<svg width="13" height="11" viewBox="0 0 13 11" fill="none" xmlns="http://www.w3.org/2000/svg">
<path d="M0.874978 6.125L10.6162 6.125L7.3081 9.43312C7.249 9.49092 7.20196 9.55987 7.16969 9.63598C7.13742 9.71209 7.12058 9.79384 7.12012 9.8765C7.11966 9.95917 7.13561 10.0411 7.16704 10.1176C7.19847 10.194 7.24475 10.2635 7.30321 10.3219C7.36167 10.3804 7.43114 10.4266 7.5076 10.4581C7.58406 10.4895 7.666 10.5054 7.74866 10.5049C7.83133 10.5045 7.91307 10.4876 7.98918 10.4553C8.06528 10.423 8.13422 10.376 8.19201 10.3169L12.567 5.94187C12.6842 5.82467 12.75 5.66573 12.75 5.5C12.75 5.33427 12.6842 5.17533 12.567 5.05813L8.19201 0.683126C8.13403 0.624976 8.06514 0.578862 7.98927 0.547434C7.91341 0.516007 7.83209 0.499887 7.74998 0.500001C7.62638 0.500027 7.50557 0.536697 7.40282 0.605374C7.30006 0.674052 7.21997 0.771654 7.17268 0.885841C7.12539 1.00003 7.11301 1.12567 7.13711 1.2469C7.16122 1.36812 7.22072 1.47947 7.3081 1.56688L10.6162 4.875L0.874978 4.875C0.709218 4.875 0.550246 4.94085 0.433036 5.05806C0.315826 5.17527 0.249979 5.33424 0.249979 5.5C0.249979 5.66576 0.315826 5.82473 0.433036 5.94194C0.550246 6.05915 0.709218 6.125 0.874978 6.125Z" fill="#232323"/>
</svg>
