<svg width="13" height="11" viewBox="0 0 13 11" fill="none" xmlns="http://www.w3.org/2000/svg">
<path d="M12.125 4.875L2.38377 4.875L5.6919 1.56688C5.751 1.50908 5.79804 1.44013 5.83031 1.36402C5.86258 1.28791 5.87942 1.20616 5.87988 1.1235C5.88034 1.04083 5.86439 0.9589 5.83296 0.882442C5.80153 0.805985 5.75525 0.736522 5.69679 0.678074C5.63833 0.619626 5.56886 0.573356 5.4924 0.541942C5.41594 0.510528 5.334 0.494594 5.25134 0.495064C5.16867 0.495533 5.08693 0.512398 5.01082 0.544679C4.93472 0.57696 4.86578 0.624017 4.80799 0.683125L0.432992 5.05813C0.315822 5.17533 0.25 5.33427 0.25 5.5C0.25 5.66573 0.315822 5.82467 0.432992 5.94187L4.80799 10.3169C4.86597 10.375 4.93486 10.4211 5.01073 10.4526C5.08659 10.484 5.16791 10.5001 5.25002 10.5C5.37362 10.5 5.49443 10.4633 5.59718 10.3946C5.69994 10.3259 5.78003 10.2283 5.82732 10.1142C5.87461 9.99997 5.88699 9.87433 5.86289 9.7531C5.83878 9.63188 5.77928 9.52053 5.6919 9.43312L2.38377 6.125L12.125 6.125C12.2908 6.125 12.4498 6.05915 12.567 5.94194C12.6842 5.82473 12.75 5.66576 12.75 5.5C12.75 5.33424 12.6842 5.17527 12.567 5.05806C12.4498 4.94085 12.2908 4.875 12.125 4.875Z" fill="#232323"/>
</svg>
