<svg width="55" height="53" viewBox="0 0 55 53" fill="none" xmlns="http://www.w3.org/2000/svg">
<path d="M31.2984 43.0705C31.3381 43.1102 31.3381 43.1102 31.3381 43.1896C31.3381 43.3087 31.3381 43.4278 31.2984 43.5469C31.2587 43.666 31.219 43.7852 31.1396 43.944C31.1 44.0631 30.9809 44.2219 30.8222 44.3013C30.7428 44.3411 30.6237 44.341 30.5047 44.341C30.3856 44.341 30.2269 44.3411 30.0681 44.3013C30.0284 44.3013 29.9491 44.2616 29.9094 44.2219C29.2347 43.3881 28.7188 42.594 28.1632 41.7999L27.3298 40.5293L27.0123 40.0529H26.933H26.7345C26.6155 40.0529 26.4567 40.0529 26.3377 40.0529C26.0599 40.0529 25.7821 40.0529 25.5043 40.0132C24.9487 39.9735 24.3931 39.894 23.8772 39.7749C22.8056 39.497 21.7738 39.0999 20.861 38.5043C19.9483 37.9485 19.0752 37.2338 18.3608 36.4794C16.8925 34.9309 15.7813 33.0647 15.0272 31.0794C14.3129 29.0942 13.916 26.9501 14.0748 24.806C14.1542 23.7339 14.3526 22.6619 14.7098 21.6295C14.8288 21.3913 14.9082 21.1134 15.0272 20.8751L15.3844 20.1604C15.5035 19.9222 15.6225 19.684 15.7416 19.4457L16.1384 18.7708C17.2496 16.984 18.718 15.3561 20.5039 14.1252C22.2897 12.9341 24.3137 12.1399 26.417 11.8223C26.6948 11.7826 26.933 11.7429 27.2108 11.7032C27.4886 11.6635 27.7267 11.6635 28.0045 11.6238H28.7982C29.076 11.6238 29.3141 11.6238 29.5919 11.6238C30.1078 11.6635 30.6634 11.6635 31.1793 11.7826C31.4571 11.8223 31.6952 11.862 31.973 11.9017L32.7667 12.0605C34.8701 12.4973 36.8544 13.4899 38.4815 14.8796C40.1483 16.2693 41.4182 18.0163 42.2913 20.0016C43.1644 21.9472 43.5613 24.0913 43.5216 26.2354C43.4819 28.3795 42.966 30.5236 41.9738 32.4294C41.8548 32.6676 41.696 32.9059 41.577 33.1441C41.4579 33.3823 41.2595 33.5809 41.1404 33.8191C41.0214 34.0176 40.9023 34.1764 40.8229 34.3353C40.7833 34.4147 40.7436 34.4941 40.7039 34.6132L40.6642 34.772L40.7436 34.9308C40.8626 35.1294 40.9817 35.3279 41.1404 35.5264C41.4182 35.9235 41.696 36.3603 41.9738 36.797C42.0929 37.0352 42.2516 37.2338 42.3707 37.5117L42.4501 37.7102L42.4897 37.8294L42.5294 37.8691C42.5294 37.9088 42.5691 37.9088 42.5691 37.9485C42.6485 38.1867 42.7279 38.4249 42.7676 38.6632C42.8072 39.1396 42.4501 39.5764 42.1326 39.894C41.9738 40.0131 41.8945 40.0926 41.7357 40.2117C41.6167 40.2911 41.4976 40.3705 41.3786 40.4499C40.9023 40.7279 40.4261 40.9661 39.9499 41.1646C39.4736 41.3631 38.9974 41.5617 38.5609 41.7602L37.2909 42.3558L36.4972 42.7131C36.4972 42.7131 36.3385 42.7528 36.0607 42.8719C35.7829 42.9513 35.4257 43.0705 34.9892 43.2293C34.1161 43.5072 33.0842 43.8646 32.2112 44.1425C31.854 44.3013 31.5365 44.3808 31.2984 44.4999C31.0603 44.5793 30.8618 44.6587 30.7031 44.6984C30.3856 44.7778 30.3062 44.7381 30.3062 44.619C30.3459 44.3808 30.9809 43.7852 31.8143 43.2293C31.6952 43.269 32.7668 42.6337 33.8383 42.0778C34.9098 41.522 36.021 40.9661 36.021 40.9661C36.2591 40.847 36.5369 40.7279 36.775 40.6484L37.1322 40.4896L37.7672 40.172L39.1165 39.5764C39.553 39.3779 39.9895 39.1793 40.3467 38.9411C40.5451 38.822 40.7039 38.7029 40.8626 38.6235L40.9023 38.5838L40.8229 38.4646C40.7436 38.2661 40.6245 38.0676 40.5055 37.8691C40.2673 37.472 39.9895 37.075 39.7117 36.6382C39.5927 36.4397 39.4339 36.2014 39.3149 36.0029C39.2355 35.8838 39.1561 35.7647 39.1165 35.6456C39.0768 35.6059 39.0371 35.4867 38.9577 35.3676C38.918 35.2485 38.8783 35.1294 38.8387 35.0103C38.8387 34.9706 38.8387 34.8912 38.8387 34.8515V34.8117V34.772V34.6926C38.8387 34.5735 38.918 34.4544 38.918 34.3353L38.9974 34.097L39.0768 33.8985C39.1958 33.6206 39.3546 33.3029 39.5133 33.1044C39.6721 32.8662 39.7911 32.6677 39.9499 32.4691C40.0292 32.3897 40.0689 32.2706 40.1086 32.1912L40.2674 31.9132C40.3864 31.7147 40.4658 31.5162 40.5848 31.3177C40.7039 31.1191 40.7833 30.8809 40.8626 30.6824C41.5373 28.9751 41.8548 27.1089 41.7357 25.2427C41.6167 23.3766 41.1404 21.5501 40.2674 19.9222C39.3943 18.2943 38.164 16.8649 36.6956 15.7929C35.9416 15.237 35.1479 14.8002 34.2748 14.4429C33.8383 14.284 33.4017 14.1252 32.9652 14.0061C32.7667 13.9267 32.5286 13.887 32.2905 13.8473L31.6159 13.6884C29.7506 13.3708 27.8854 13.3708 26.0599 13.7679C24.2343 14.1252 22.5278 14.9193 21.0595 16.0311C19.5911 17.1428 18.3608 18.5722 17.4084 20.2001C17.3687 20.3193 17.2893 20.3987 17.21 20.5178L17.0512 20.8354L16.7337 21.4707L16.575 21.7884C16.5353 21.9075 16.4956 21.9869 16.4559 22.106L16.3369 22.4236L16.2178 22.7413C15.94 23.6148 15.821 24.528 15.7813 25.4413C15.7019 27.2677 16.0591 29.1339 16.7337 30.8809C17.4084 32.628 18.4005 34.2162 19.7102 35.5264C20.9801 36.8367 22.6072 37.8294 24.3534 38.2264C24.5518 38.2661 24.7899 38.3058 25.028 38.3455C25.2662 38.3852 25.4646 38.3852 25.7027 38.4249H25.8614H26.0202H26.3377C26.4567 38.4249 26.5758 38.4249 26.6552 38.4249L27.1711 38.3852L27.5282 38.3455H27.7267H27.806H27.8457H27.8854L28.2823 38.9808L28.7585 39.6955L29.5919 40.9264C30.1872 41.5617 30.7428 42.3955 31.2984 43.0705Z" fill="url(#paint0_linear)"/>
<path d="M34.9893 41.244C35.0289 41.2837 35.0289 41.2837 34.9893 41.3632C34.9496 41.7999 34.7114 42.6337 33.5606 42.197C33.5209 42.197 33.4415 42.1573 33.4415 42.1176C32.9653 41.244 32.4891 40.4102 32.0128 39.5764C31.5366 38.7426 31.0604 37.9485 30.5841 37.1941C30.0682 36.4397 29.5126 35.725 28.8777 35.1294L28.6395 34.8912L28.4014 34.6926C28.322 34.6132 28.2427 34.5338 28.1633 34.4941L27.8855 34.3353C27.7268 34.2162 27.5283 34.1368 27.3696 34.0176C27.2109 33.9382 26.9727 33.8191 26.7743 33.7397C25.9409 33.3426 24.9885 32.9853 24.0757 32.4294C23.8376 32.2706 23.5995 32.1118 23.401 31.9133C23.1629 31.7147 22.9645 31.4368 22.7661 31.0794C22.6073 30.7221 22.5279 30.2853 22.6073 29.8486C22.6867 29.4515 22.8454 29.1339 23.0439 28.8559L23.1629 28.6574L23.3217 28.4986C23.401 28.3795 23.5201 28.3 23.6391 28.1809C23.7582 28.0618 23.8376 27.9824 23.9566 27.903C24.0757 27.8236 24.1947 27.7045 24.3138 27.6251C24.79 27.3074 25.3059 27.0295 25.9012 26.8707C26.4965 26.7118 27.2109 26.7515 27.8458 27.0295C28.0046 27.1089 28.1633 27.1883 28.2824 27.2677C28.4411 27.3471 28.5602 27.4662 28.6792 27.5853C28.7983 27.7045 28.8776 27.8236 28.9967 27.9427C29.1158 28.0618 29.1951 28.2206 29.2745 28.3795C29.4729 28.6971 29.5523 29.1339 29.5126 29.5706C29.4729 30.0074 29.3142 30.3647 29.0761 30.6824C28.838 31 28.5602 31.2383 28.203 31.3971C28.1236 31.4368 28.0046 31.4765 27.9252 31.5162C27.8458 31.5559 27.6871 31.5956 27.6077 31.5956C27.3696 31.6353 27.1315 31.5956 26.8934 31.5559C26.4171 31.4368 26.06 31.1192 25.8615 30.6824C25.7425 30.4442 25.7028 30.2853 25.6631 30.0868C25.6234 29.8883 25.6234 29.7692 25.6234 29.65C25.5837 29.0942 25.5837 28.4986 25.7822 27.903C25.8615 27.5854 26.0203 27.3074 26.2187 26.9898C26.4171 26.7118 26.6949 26.4736 26.9727 26.2751C27.568 25.9177 28.203 25.7986 28.7983 25.7986C29.3936 25.7986 29.9492 25.9177 30.5048 26.1163C30.7826 26.1957 31.0207 26.3148 31.2985 26.4736C31.5763 26.6324 31.8144 26.7913 32.0525 27.0295C32.1716 27.1486 32.2906 27.3074 32.4097 27.506C32.5287 27.7045 32.6081 27.9427 32.6478 28.2603C32.6478 28.578 32.5287 28.8956 32.37 29.1339C32.2112 29.3721 32.0128 29.4912 31.8541 29.6103C31.6953 29.7295 31.5366 29.7692 31.3778 29.8486C31.5366 29.8089 31.1397 29.928 31.1794 29.8883H31.1C31.0604 29.8883 31.0207 29.8883 30.981 29.8883C30.9016 29.8883 30.8222 29.8883 30.7032 29.8486C30.5444 29.8089 30.3857 29.7294 30.227 29.65C29.9492 29.4912 29.8301 29.2927 29.711 29.0942C29.592 28.9354 29.5523 28.7368 29.4729 28.578C29.2745 27.9427 29.2745 27.3471 29.3539 26.7515C29.4729 26.156 29.6714 25.5207 30.1476 25.0045C30.3857 24.7265 30.7032 24.528 31.0604 24.3692C31.4175 24.2501 31.7747 24.1707 32.1716 24.2104C32.5287 24.2501 32.8859 24.3692 33.1637 24.528C33.4415 24.6869 33.7193 24.8854 33.9177 25.0839C34.3543 25.5207 34.6718 25.9574 34.9496 26.553C35.0289 26.7118 35.0686 26.8707 35.1083 27.0692C35.1083 27.1089 35.1083 27.1883 35.148 27.228C35.148 27.3074 35.148 27.3471 35.148 27.4265V27.5456C35.148 27.5854 35.148 27.6648 35.1083 27.7045C35.1083 27.7839 35.0289 27.9427 34.9496 28.0618C34.8702 28.2206 34.7114 28.3398 34.5527 28.4192C34.513 28.4589 34.4733 28.4589 34.4337 28.4589C34.4337 28.4589 34.2749 28.4986 34.3146 28.4986H34.2749L34.1955 28.5383H34.1558H34.0765C34.0368 28.5383 33.9971 28.5383 33.9574 28.5383C33.878 28.5383 33.7987 28.5383 33.6796 28.5383C33.6002 28.5383 33.5209 28.4986 33.4018 28.4986C33.3225 28.4986 33.2034 28.4192 33.124 28.3795C33.0447 28.3397 32.9653 28.2603 32.8859 28.1809C32.7272 28.0221 32.6875 27.903 32.6081 27.7442C32.5684 27.6648 32.5684 27.6251 32.5684 27.5456L32.5287 27.4662V27.3868V27.228C32.5287 27.1883 32.5287 27.1486 32.5287 27.0692C32.5287 26.9898 32.5287 26.8706 32.5287 26.7912C32.5684 26.4339 32.6478 26.156 32.7668 25.878C32.8859 25.6001 33.005 25.3221 33.1637 25.0839C33.3224 24.8457 33.5209 24.6074 33.759 24.3692C33.9574 24.1707 34.1955 24.0119 34.513 23.8927C34.8305 23.7736 35.1877 23.6942 35.5448 23.7339C35.902 23.7736 36.2195 23.9324 36.4973 24.0913C36.7354 24.2898 36.9339 24.4883 37.0926 24.6868C37.172 24.806 37.2513 24.8854 37.3307 25.0045C37.4101 25.1236 37.4894 25.2427 37.5291 25.3618C37.6085 25.481 37.6482 25.6398 37.6879 25.7589C37.7276 25.9177 37.7672 26.0368 37.7672 26.1957C37.8466 26.7515 37.7672 27.2677 37.6482 27.7442C37.3704 28.6574 36.9735 29.4118 36.537 30.1662L35.902 31.1986C35.7036 31.5559 35.5052 31.8736 35.3464 32.1912C35.267 32.35 35.2274 32.5088 35.1877 32.6279C35.1877 32.7074 35.148 32.8265 35.148 32.9853C35.148 33.1441 35.148 33.303 35.1877 33.4618L35.2274 33.6206V33.6603C35.2671 33.8191 35.3067 33.9382 35.3464 34.0971C35.4258 34.4147 35.5449 34.6926 35.6242 35.0103C35.6242 35.0103 35.783 35.6059 36.0608 36.4794C36.3386 37.3132 36.6957 38.3853 36.9735 39.3382C37.2116 40.0926 37.3307 40.6485 37.3307 40.9661C37.3307 41.2837 37.2513 41.3632 37.172 41.3235C37.0529 41.2838 36.9338 41.0852 36.7354 40.7676C36.537 40.4896 36.3386 40.0926 36.0608 39.6558C36.1004 39.7352 35.5448 38.7426 34.9496 37.6309C34.6718 37.075 34.394 36.5191 34.1955 36.0823C33.9971 35.6456 33.878 35.3279 33.878 35.3279C33.759 35.0103 33.6796 34.6926 33.6003 34.3353C33.5606 34.2559 33.5606 34.1765 33.5209 34.0574L33.4812 33.9382V33.8588L33.4415 33.5809C33.4018 33.1441 33.3224 32.6677 33.4812 32.0721C33.6399 31.5559 33.8384 31.1985 34.0368 30.8412C34.4337 30.1265 34.8305 29.4912 35.1877 28.8559C35.5449 28.2206 35.8623 27.5853 35.9814 26.9898C36.0608 26.7118 36.0608 26.4339 35.9814 26.2354C35.9417 26.1163 35.902 26.0368 35.8623 25.9574C35.8226 25.878 35.7036 25.7589 35.6242 25.6398C35.4655 25.4413 35.3067 25.3618 35.267 25.4015C35.2274 25.4015 35.1877 25.4016 35.148 25.4413C35.0686 25.481 34.9893 25.5207 34.9099 25.6001C34.6718 25.7986 34.4733 26.1162 34.3543 26.4736C34.2749 26.6324 34.2352 26.7912 34.2352 26.9501C34.2352 26.9898 34.2352 27.0295 34.2352 27.0295V27.0692C34.1955 27.0692 34.1955 27.0692 34.1558 27.0692C34.1162 27.0692 34.0368 27.1089 33.9971 27.1089C33.9574 27.1089 33.9177 27.1486 33.878 27.1486L33.8384 27.1883C33.8384 27.1883 33.8384 27.1883 33.7987 27.1883C33.7987 27.1883 33.7987 27.1883 33.759 27.228V27.1883C33.759 27.1486 33.759 27.1089 33.759 27.1089C33.759 27.1089 33.759 27.0692 33.759 27.0295C33.759 26.9898 33.759 26.9501 33.759 26.9501C33.759 26.9104 33.7193 26.9104 33.7193 26.8707C33.7193 26.8707 33.7193 26.831 33.6796 26.831V26.7515C33.7193 26.7118 33.7193 26.7118 33.759 26.7118H33.7987C33.6796 26.1163 33.9971 27.5456 33.9574 27.3868C33.9574 27.4265 33.9574 27.3868 33.9574 27.3868C33.9177 27.3471 33.878 27.3471 33.7987 27.3471C33.759 27.3471 33.7193 27.3471 33.6796 27.3471C33.6399 27.3471 33.6002 27.3471 33.5606 27.3471C33.4812 27.3471 33.3621 27.3471 33.2828 27.3471C33.2828 27.3074 33.2431 27.2677 33.2431 27.1883C33.124 26.9104 32.8859 26.553 32.6478 26.3148C32.4097 26.0766 32.1319 25.9177 31.9335 25.9177C31.8144 25.9177 31.735 25.9177 31.616 25.9574C31.5366 25.9971 31.4175 26.0368 31.3382 26.156C31.1794 26.3148 31.0207 26.6324 30.981 26.9898C30.9413 27.3471 30.9413 27.7045 31.0207 27.9824C31.0604 28.0618 31.0604 28.1015 31.1 28.1412L31.0604 28.1809C31.0207 28.1809 31.0207 28.2206 31.0207 28.2206L30.981 28.2603C30.9413 28.3 30.9413 28.3398 30.9016 28.3398C30.9016 28.3795 30.8619 28.4192 30.8619 28.4192V28.4589C30.8619 28.4589 30.8619 28.4589 30.8619 28.4192C30.9016 28.4986 30.3857 27.8236 30.6238 28.1015C30.7032 28.0618 30.7429 28.0221 30.7826 28.0221C30.8222 28.0221 30.8223 27.9824 30.8223 27.9824L30.8619 28.0221C30.9016 28.0618 30.9413 28.1015 30.981 28.1015C31.1 28.1809 31.1397 28.1809 31.1 28.1809C31.1 28.1809 31.0604 28.1809 31.0207 28.1809H30.981H30.9413C30.9413 28.1809 30.9016 28.1809 30.9016 28.2206C30.8619 28.2206 30.8619 28.2206 30.8223 28.2603C30.8223 28.2603 30.7826 28.2206 30.7429 28.1809C30.5445 27.9824 30.1873 27.7839 29.8301 27.6648C29.4729 27.5456 29.0761 27.4662 28.7189 27.4662C28.3617 27.4662 28.0443 27.5456 27.8061 27.6648C27.568 27.7839 27.449 27.9824 27.3299 28.3001C27.2505 28.6177 27.2109 28.975 27.2505 29.3721C27.2505 29.4515 27.2902 29.6103 27.2902 29.65C27.2902 29.7294 27.3299 29.7692 27.3299 29.7295L27.4093 29.6898C27.4887 29.6501 27.568 29.5706 27.6474 29.4912C27.6871 29.4118 27.7268 29.3324 27.7268 29.2927C27.7268 29.253 27.7268 29.1736 27.6871 29.0942C27.6474 29.0545 27.6474 29.0148 27.568 28.9353C27.5283 28.8956 27.449 28.8162 27.4093 28.7765C27.3696 28.7368 27.2902 28.6574 27.2505 28.6574C27.2109 28.6177 27.1315 28.578 27.0918 28.578C26.9727 28.5383 26.8537 28.4986 26.6949 28.4986C26.6156 28.4986 26.5362 28.4986 26.4568 28.4986C26.3775 28.4986 26.2981 28.4986 26.2187 28.5383C25.9012 28.6177 25.5441 28.7765 25.2266 29.0148C25.1472 29.0545 25.0678 29.1339 24.9885 29.1736C24.9091 29.253 24.8297 29.2927 24.7503 29.3721C24.671 29.4515 24.5916 29.4912 24.5519 29.5706L24.4725 29.6898L24.3932 29.7691C24.3138 29.8883 24.2741 30.0074 24.2344 30.0868C24.2344 30.1662 24.2344 30.1662 24.2741 30.2456C24.3138 30.325 24.3932 30.4441 24.5122 30.5633C24.6313 30.6824 24.79 30.8015 24.9488 30.9206C25.6234 31.3574 26.4965 31.7147 27.4093 32.1118C27.6474 32.2309 27.8458 32.3103 28.0839 32.4294C28.3221 32.5485 28.5602 32.6677 28.7983 32.8265L29.1158 33.0647C29.2348 33.1441 29.3142 33.2235 29.4333 33.3029L29.7507 33.5412L30.0285 33.8191C30.7826 34.5338 31.3778 35.3676 31.9731 36.1617C32.5287 36.9956 33.005 37.8294 33.4812 38.6632C34.0765 39.5367 34.513 40.4102 34.9893 41.244Z" fill="url(#paint1_linear)"/>
<path d="M30.1076 44.3411C30.1473 44.3014 30.1473 44.2617 30.2664 44.222C30.4251 44.1822 30.5839 44.1028 30.7823 44.1425C30.941 44.1822 31.0998 44.2219 31.1791 44.3411C31.2982 44.4602 31.3379 44.5793 31.3776 44.7778C31.4173 44.9764 31.4173 45.1749 31.457 45.3734V45.4528C31.3776 45.5322 31.3776 45.6116 31.3379 45.6911C31.3379 45.7308 31.3379 45.7308 31.3379 45.7705C31.3379 45.8102 31.3379 45.8102 31.3379 45.8499C31.3379 45.8896 31.3379 45.8896 31.3379 45.9293C31.3379 45.969 31.3379 45.969 31.3379 46.0087C31.3379 46.0484 31.3776 46.0484 31.3776 46.0881C31.3776 46.1278 31.4173 46.1278 31.4173 46.1675C31.4569 46.2072 31.4569 46.2469 31.4966 46.2469C31.5363 46.2866 31.576 46.2866 31.6951 46.3263C31.8141 46.3263 32.0126 46.3263 32.2507 46.2866C32.4888 46.2469 32.6872 46.1278 32.9253 46.0484C33.4015 45.8499 33.8778 45.5719 34.4334 45.294L35.2271 44.8969L35.9811 44.4999C36.497 44.222 37.0129 43.944 37.4892 43.6661C37.9654 43.3881 38.4019 43.1499 38.8782 42.872C38.8782 42.872 39.4735 42.594 40.2275 42.1573C40.9815 41.7205 41.9737 41.1646 42.6086 40.6485C42.8864 40.4102 43.0055 40.172 43.0452 40.0529C43.0849 39.9338 43.0055 39.7749 42.9261 39.6558C42.7277 39.4573 42.6483 39.3382 42.7674 39.2985C42.8071 39.2588 42.9261 39.2588 43.0452 39.2985C43.1642 39.3382 43.3627 39.3779 43.5611 39.6161C43.6405 39.7352 43.7198 39.894 43.7198 40.0529C43.7198 40.2117 43.7198 40.3705 43.6801 40.5293C43.6008 40.8073 43.442 41.0455 43.2833 41.2837C43.323 41.244 43.1642 41.522 42.8467 41.8396C42.5293 42.197 42.053 42.594 41.5768 42.9911C40.6244 43.7852 39.5528 44.4602 39.5528 44.4602C39.156 44.6984 38.7194 44.9367 38.3226 45.1749C37.8067 45.4528 37.2907 45.7308 36.7748 46.0087L35.9811 46.4058L35.1874 46.8028C34.7112 47.041 34.1556 47.3587 33.5603 47.6366C33.2825 47.7557 32.965 47.8749 32.6078 47.9543C32.2507 48.0337 31.8935 48.1131 31.4173 48.0734C31.2188 48.0337 31.0204 47.994 30.822 47.9146C30.6235 47.8351 30.4251 47.716 30.2664 47.5572C30.1076 47.3984 29.9886 47.2396 29.8695 47.0808C29.7505 46.9219 29.7108 46.7631 29.6314 46.5646C29.5123 46.1675 29.4727 45.7705 29.552 45.3734C29.7108 44.9764 29.8695 44.619 30.1076 44.3411Z" fill="url(#paint2_linear)"/>
<path d="M30.981 47.8748C30.981 47.7954 31.0206 47.7954 31.0603 47.716C31.2588 47.438 31.6159 47.3189 31.8937 47.3983C32.0525 47.438 32.1715 47.5175 32.2906 47.6763C32.4096 47.7954 32.489 48.0336 32.6478 48.1924C32.6478 48.1924 32.6874 48.2322 32.6874 48.2719H32.6081C32.5684 48.2719 32.5287 48.2719 32.489 48.2719C32.4493 48.2719 32.4493 48.2719 32.4096 48.2719C32.37 48.2719 32.2906 48.2718 32.2509 48.3116C32.2112 48.3116 32.2112 48.3116 32.1715 48.3513C32.1715 48.3513 32.1715 48.3513 32.2112 48.3116C32.2112 48.3116 32.2112 48.2719 32.2509 48.2719L32.2906 48.2321C32.2906 48.1924 32.3303 48.1925 32.3303 48.1527C32.3303 48.113 32.3303 48.113 32.37 48.0733C32.37 48.0336 32.4096 47.9939 32.4096 47.9542C32.4096 47.9145 32.4096 47.8748 32.4493 47.8351C32.4493 47.7954 32.4493 47.8351 32.4493 47.8351C32.4493 47.8351 32.4493 47.8351 32.489 47.8351C32.489 47.8351 32.5287 47.8351 32.5684 47.8351C32.6478 47.8351 32.7271 47.8351 32.8065 47.7954C33.1637 47.716 33.6002 47.5969 34.0368 47.438C34.3146 47.3189 34.632 47.1998 34.9098 47.0807C35.0686 47.0013 35.1876 46.9616 35.3464 46.8822C35.5051 46.8028 35.6639 46.7233 35.8226 46.6439L37.6482 45.8498C38.1244 45.6513 38.6006 45.4131 39.0768 45.1748C39.0768 45.1748 39.2356 45.0954 39.4737 45.016C39.7118 44.8969 40.069 44.7778 40.4658 44.5793C41.2199 44.2219 42.212 43.666 42.7279 43.0704C42.9264 42.8322 43.0454 42.594 43.0851 42.3557C43.0851 42.316 43.1248 42.2366 43.1248 42.1969C43.1248 42.1572 43.1248 42.1175 43.1248 42.0381C43.1248 41.9587 43.1248 41.8793 43.1248 41.7999C43.0851 41.5219 43.0851 41.4028 43.2042 41.4028C43.3232 41.4425 43.5613 41.6013 43.7201 42.0381C43.7201 42.0778 43.7598 42.1572 43.7598 42.1969C43.7598 42.2366 43.7597 42.3161 43.7994 42.3955C43.8391 42.5146 43.7994 42.6734 43.7994 42.7925C43.7994 42.9513 43.7598 43.0704 43.7201 43.2293C43.6804 43.3484 43.601 43.5072 43.5216 43.6263C43.5613 43.5866 43.4026 43.8645 43.0851 44.2616C42.7676 44.6587 42.2914 45.0954 41.7755 45.4528C41.2596 45.8498 40.7436 46.1675 40.3071 46.4057C39.9102 46.6439 39.6324 46.8028 39.6324 46.8028C39.1959 47.0013 38.7594 47.1998 38.3228 47.3983C37.7275 47.6763 37.0926 47.9145 36.4973 48.1924C36.3385 48.2719 36.2195 48.3116 36.1004 48.391C35.9417 48.4704 35.7829 48.5498 35.6242 48.6292C35.3067 48.788 34.9892 48.9071 34.6717 49.0262C34.1955 49.2248 33.7193 49.3836 33.124 49.463C32.9652 49.5027 32.8065 49.5027 32.6478 49.5027C32.4493 49.5027 32.2906 49.5027 32.0128 49.463L31.9334 49.4233C31.8937 49.4233 31.854 49.3836 31.8144 49.3836C31.735 49.3439 31.6556 49.3439 31.5762 49.2645C31.4969 49.1851 31.4175 49.1454 31.3381 49.066C31.2588 48.9866 31.2191 48.9071 31.1397 48.788C31.1 48.7086 31.0603 48.5895 31.0603 48.5101C31.0603 48.4307 31.0206 48.3513 31.0206 48.2719C31.0206 48.1924 31.0206 48.113 31.0206 48.0733C30.981 47.9939 30.981 47.9542 30.981 47.8748Z" fill="url(#paint3_linear)"/>
<path d="M31.0601 48.7086C31.0601 48.6689 31.0204 48.6292 31.0601 48.5498C31.0998 48.2719 31.2585 47.9939 31.5363 47.8351C31.8141 47.6763 32.1713 47.7557 32.6475 47.9939C32.6475 47.9939 32.7269 48.0336 32.7666 48.0733C32.8857 48.4307 33.0841 48.7086 33.2825 48.8675C33.4809 49.0263 33.7191 49.1057 34.0762 49.066C34.7112 49.066 35.4652 48.788 36.1796 48.5498L37.3305 48.113L37.9257 47.8748C38.1242 47.7954 38.3226 47.7557 38.4813 47.6763C38.9576 47.4778 39.4338 47.2792 39.91 47.0807C39.91 47.0807 40.0688 47.041 40.3069 46.9219C40.545 46.8425 40.9022 46.6836 41.2593 46.4851C41.6562 46.2866 42.0531 46.0881 42.4102 45.8101C42.7674 45.5322 43.0849 45.2145 43.2833 44.8969C43.442 44.619 43.4817 44.341 43.4817 44.1028C43.4817 43.9837 43.4817 43.8646 43.4421 43.7851C43.4421 43.7057 43.4024 43.6263 43.4024 43.5469C43.323 43.269 43.3627 43.1498 43.4817 43.1498C43.6008 43.1895 43.8389 43.3484 44.0373 43.7057C44.077 43.7851 44.1564 43.9043 44.1564 44.0234C44.1564 44.0631 44.1961 44.1425 44.1961 44.2219C44.1961 44.3013 44.2358 44.341 44.2358 44.4204C44.2755 44.5395 44.2358 44.6984 44.2358 44.8572C44.2358 45.016 44.1961 45.1748 44.1564 45.294C44.1961 45.2145 44.1167 45.5719 43.8389 46.0086C43.7199 46.2072 43.5214 46.4454 43.2833 46.6836C43.0849 46.9219 42.8071 47.1204 42.569 47.3586C42.0531 47.7557 41.4974 48.1131 41.1006 48.3513C40.664 48.5895 40.3863 48.7483 40.3863 48.7483C39.9497 48.9469 39.5132 49.1454 39.0369 49.3042C38.8385 49.3836 38.6401 49.463 38.4417 49.5027L37.8861 49.7013L36.7352 50.138C36.3383 50.2969 35.9415 50.416 35.5049 50.5351C35.0684 50.6542 34.5921 50.7336 34.0762 50.7733C33.7587 50.7733 33.4413 50.7733 33.0841 50.6542C32.7666 50.5748 32.4094 50.416 32.1316 50.1777C31.8538 49.9395 31.6157 49.7013 31.457 49.4233C31.2585 49.2645 31.1395 48.9866 31.0601 48.7086Z" fill="url(#paint4_linear)"/>
<path d="M34.8306 50.5351C34.8306 50.4954 34.8306 50.4954 34.8702 50.4557C34.9893 50.2969 35.1877 50.138 35.4655 50.0586C35.7433 49.9792 36.1005 50.0586 36.4974 50.138C36.4974 50.138 36.5767 50.138 36.5767 50.1777C36.5767 50.1777 36.5767 50.1777 36.5767 50.2174C36.5767 50.2571 36.5767 50.2969 36.6164 50.3366C36.6561 50.416 36.7355 50.5351 36.9339 50.6542C37.0926 50.7733 37.4101 50.8924 37.7673 50.9321C38.1245 50.9718 38.561 50.9718 38.9579 50.8924C39.7913 50.7733 40.585 50.416 41.0612 50.0586C41.2993 49.8601 41.4581 49.7013 41.5771 49.5822C41.6168 49.5027 41.6565 49.463 41.6962 49.4233C41.7359 49.3836 41.7359 49.3836 41.7359 49.3836C41.7359 49.3836 41.7756 49.3439 41.8549 49.2645C41.8946 49.2248 41.9343 49.1851 41.974 49.1454C42.0137 49.1057 42.0931 49.0263 42.0931 48.9469C42.2915 48.6689 42.4502 48.2719 42.5296 47.8748C42.5296 47.716 42.5693 47.5572 42.609 47.4381C42.609 47.3189 42.6487 47.1998 42.6487 47.1204C42.6883 46.9616 42.7677 46.8822 42.8471 46.8822C43.0058 46.9219 43.3233 47.2395 43.4821 47.7954C43.4821 47.7557 43.5217 47.9145 43.5614 48.1528C43.6011 48.2719 43.6011 48.4307 43.6011 48.5895C43.6011 48.7483 43.5614 48.9469 43.5614 49.1057C43.5217 49.2645 43.4821 49.463 43.4424 49.6219C43.4027 49.7807 43.3233 49.9395 43.2836 50.0586C43.2043 50.1777 43.1646 50.2968 43.1249 50.3763C43.0852 50.4557 43.0455 50.4954 43.0455 50.4954C43.0455 50.4954 42.9661 50.6145 42.7677 50.813C42.6883 50.8924 42.5693 51.0116 42.4502 51.1307C42.3312 51.2498 42.1724 51.3689 41.974 51.488C41.2597 52.0042 40.2278 52.4409 39.1166 52.5997C38.561 52.6792 38.0054 52.6792 37.4498 52.5997C36.8942 52.5203 36.3386 52.3218 35.9021 52.0439C35.4655 51.7659 35.148 51.3292 34.9893 51.0115C34.9099 50.8527 34.8703 50.7336 34.8306 50.6145C34.8703 50.5748 34.8306 50.5351 34.8306 50.5351Z" fill="url(#paint5_linear)"/>
<path d="M39.6723 48.7484C39.712 48.7484 39.712 48.7484 39.7913 48.7484C39.9898 48.7881 40.2676 48.9072 40.466 49.1454C40.6644 49.3836 40.7438 49.7013 40.4263 50.2571C40.4263 50.2969 40.3469 50.3763 40.3072 50.3763C39.7913 50.5748 39.2754 50.6939 38.7992 50.813C38.323 50.9321 37.8864 51.0512 37.4896 51.1704C37.3705 51.2101 37.2514 51.2498 37.1324 51.3292L37.053 51.3689H37.0133H36.9736C36.7752 50.6145 37.4499 53.0365 36.4974 49.7013L36.7355 49.6616C37.4499 49.5822 38.0848 49.5424 38.7595 49.4233C39.3945 49.3042 40.0294 49.1851 40.5454 48.9469C40.8232 48.8278 41.0216 48.7087 41.1803 48.5498C41.22 48.5101 41.2597 48.4704 41.2994 48.4307C41.3391 48.391 41.3391 48.3513 41.3788 48.3116L41.4184 48.2719C42.2122 50.7336 41.6169 48.9469 41.8153 49.5027L41.7359 49.463L41.6566 49.4233H41.5772C41.1406 49.3042 40.5454 49.3836 39.9501 49.5425L39.8707 49.5822H39.831H39.8707C40.0691 49.5027 40.3072 49.4233 40.466 49.3439C40.5454 49.3042 40.585 49.2645 40.6644 49.2248C40.7041 49.2248 40.7041 49.1851 40.7438 49.1454L40.7835 49.1057C40.7835 49.1057 40.8232 49.1057 40.8232 49.066V49.0263C40.8232 49.0263 40.8232 49.0263 40.7835 48.9866C40.7835 48.9866 40.6644 48.9866 40.585 48.9866C39.7913 49.0263 38.7992 49.2645 37.9658 49.5425C37.2514 49.7807 36.7752 49.9792 36.4974 50.0983C36.2196 50.2174 36.1006 50.1777 36.1006 50.0586C36.1006 49.9395 36.2593 49.7013 36.5371 49.463C36.8149 49.2248 37.1721 48.9072 37.6086 48.6689C37.5292 48.7087 38.2833 48.2322 39.2754 47.8748C39.5135 47.7954 39.7913 47.716 40.0691 47.6366C40.1882 47.5969 40.3469 47.5572 40.466 47.5572C40.5454 47.5572 40.585 47.5175 40.7041 47.5175C40.8232 47.5175 40.9422 47.5175 41.0216 47.4778C41.1406 47.4778 41.2597 47.4778 41.3391 47.4381C41.4581 47.4381 41.5375 47.4381 41.6566 47.4381C41.7359 47.4381 41.855 47.4778 41.9344 47.4778C41.974 47.4778 42.0137 47.4778 42.0534 47.4778C42.0931 47.4778 42.1328 47.5175 42.1725 47.5175C42.49 47.5969 42.8074 47.6763 43.0059 47.716C43.0059 48.0337 42.9662 48.1925 42.9662 48.1925C42.9662 48.391 42.9265 48.5498 42.9265 48.7484C42.8868 48.8278 42.8868 48.9469 42.8471 49.0263C42.8074 49.1057 42.7678 49.2248 42.7281 49.3042C42.5693 49.6616 42.2915 50.0586 41.9344 50.3366C41.8947 50.3763 41.855 50.416 41.8153 50.416L41.7359 50.4954C41.6962 50.5351 41.6169 50.5748 41.5772 50.6145C41.4581 50.6939 41.3788 50.7336 41.2597 50.813C40.9422 50.9718 40.6247 51.1306 40.3072 51.2101H40.2279L40.1485 51.2498L39.9501 51.2895C39.831 51.3292 39.6723 51.3292 39.5532 51.3689C39.2754 51.4086 38.9976 51.4086 38.7595 51.4086C38.2436 51.3689 37.807 51.2895 37.4499 51.1307C37.0927 50.9718 36.8149 50.7733 36.5768 50.5351L35.9021 49.7807L35.8228 49.7013V49.6616C35.8228 49.6616 35.8228 49.6616 35.8624 49.6219L35.9418 49.5822L36.2196 49.3836L36.7752 49.0263C37.1324 48.788 37.5689 48.5498 38.0452 48.3116C38.2833 48.1925 38.5611 48.1131 38.7992 47.994L39.1564 47.8748L39.3548 47.7954L39.4738 47.7557C39.831 47.6366 40.2279 47.5969 40.6644 47.5572C41.0613 47.5175 41.4978 47.5572 41.974 47.6366L42.1328 47.6763C42.1725 47.6763 42.2518 47.716 42.2915 47.7557L42.4503 47.8351H42.49C42.6487 48.391 42.0931 46.6043 42.8868 49.066V49.1057L42.8471 49.1851C42.7678 49.3042 42.6884 49.3836 42.609 49.5027C42.5296 49.5822 42.4503 49.6616 42.3709 49.7807C42.0137 50.0983 41.6169 50.3365 41.2597 50.4954C40.5057 50.813 39.7516 50.9718 39.0373 51.0909C38.323 51.2101 37.6086 51.2895 36.8943 51.3292L36.6958 51.3689C35.7434 48.0337 36.418 50.4557 36.2196 49.7013H36.2593L36.299 49.6616L36.418 49.6219C36.5768 49.5424 36.7355 49.463 36.8943 49.4233C37.4102 49.2248 37.9261 49.1057 38.4023 48.9866C38.8389 49.0263 39.3151 48.9072 39.6723 48.7484Z" fill="url(#paint6_linear)"/>
<path d="M1.09758 25.203C1.13727 25.203 1.13727 25.203 1.13727 25.2427C1.29601 25.3618 1.37538 25.6 1.29601 25.9177C1.29601 26.0765 1.21664 26.2353 1.17695 26.3544C1.13727 26.4338 1.13727 26.5132 1.09758 26.5927C1.09758 26.6324 1.0579 26.6721 1.0579 26.7118C1.0579 26.7515 1.0579 26.7515 1.0579 26.7912C1.0579 26.7912 1.0579 26.6324 1.0579 26.7118V26.7912V26.8309V26.9103H0.978523C0.938838 26.9103 0.938838 26.9103 0.859467 26.9103H0.819782C0.780096 26.9103 0.780096 26.9103 0.74041 26.9103C0.74041 26.9103 0.700724 26.9103 0.661038 26.9103H0.621353H0.581667H0.541981C0.46261 26.8706 0.422924 26.8309 0.343553 26.7912L0.303867 26.7515L0.264181 26.7118C0.224496 26.6721 0.224495 26.6324 0.18481 26.6324C0.145124 26.553 0.105439 26.4736 0.065753 26.4338C-0.0136184 26.275 -0.0136177 26.0368 0.0260679 25.878C0.0657536 25.7986 0.0657533 25.7192 0.145125 25.6397L0.18481 25.6V25.5603L0.224496 25.5206C0.264182 25.4809 0.264181 25.4809 0.303867 25.4412C0.343552 25.4015 0.422925 25.3618 0.422925 25.3618L0.46261 25.3221H0.502295L0.541981 25.2824C0.581667 25.2427 0.621353 25.2427 0.661038 25.203L0.780095 25.1236H0.938838C2.60564 24.8854 4.31212 24.9251 5.93924 25.0442C5.93924 25.0442 6.13766 25.0839 6.41546 25.203C6.69326 25.3221 7.05043 25.4412 7.32823 25.6C8.28069 26.0765 7.84415 26.4338 7.20918 26.553C7.24886 26.5927 6.852 26.6324 6.49483 26.6721C6.09798 26.7118 5.74081 26.7515 5.74081 26.7515C4.19307 26.6324 2.68501 26.6324 1.21664 26.8309L1.49444 26.7515L1.45475 26.7912L1.29601 26.5133L1.21664 26.3941C1.17695 26.3544 1.17695 26.3147 1.13727 26.275C1.0579 26.1559 0.938838 26.0368 0.938838 26.0765C0.978524 26.0765 0.978523 25.9574 0.978523 25.7589V25.5603V25.2824V25.203H1.09758Z" fill="url(#paint7_linear)"/>
<path d="M51.816 8.16937C51.816 8.16937 51.8557 8.16937 51.8954 8.16937C52.1732 8.28849 52.6891 8.72524 52.6891 9.59876V9.67817C52.6891 9.67817 52.2923 9.9164 51.7367 10.2738C51.4589 10.4723 51.1414 10.7105 50.8239 10.9488C50.5064 11.2267 50.1889 11.5046 49.8318 11.7826C49.5143 12.1002 49.1968 12.3781 48.919 12.6958C48.6412 13.0134 48.3634 13.2914 48.165 13.5296C47.7284 14.0458 47.4506 14.3634 47.4506 14.3634C47.4506 14.3634 47.2125 14.5619 46.895 14.8002C46.5775 15.0384 46.1807 15.3561 45.8235 15.5943C44.6329 16.4678 44.7123 15.7531 45.1092 14.959C45.0695 14.9987 45.3473 14.5222 45.6251 14.0458C45.7838 13.8075 45.9029 13.5693 46.0219 13.4105C46.141 13.2517 46.2204 13.1325 46.2204 13.1325C46.2204 13.1325 46.2997 13.0531 46.4188 12.8943C46.5379 12.7355 46.7363 12.537 46.9744 12.259C47.2125 12.0208 47.4903 11.7031 47.7681 11.3855C48.0856 11.0679 48.4031 10.7502 48.7602 10.4326C49.1174 10.1149 49.4746 9.79728 49.8318 9.51934C50.1889 9.2414 50.5461 9.00318 50.8239 8.80465C51.3795 8.4473 51.816 8.16937 51.816 8.16937Z" fill="url(#paint8_linear)"/>
<path d="M6.89174 12.537C6.89174 12.537 6.89174 12.5369 6.89174 12.4972C6.89174 12.3781 6.85205 12.1399 6.85205 11.862C6.85205 11.584 6.93142 11.2267 7.12985 10.8693C7.12985 10.8693 7.16954 10.8296 7.16954 10.7899C7.16954 10.7899 7.24891 10.7899 7.40765 10.8296C7.52671 10.8693 7.76482 10.909 7.96325 10.9884C8.39979 11.1076 8.95539 11.3458 9.47131 11.584C9.98722 11.8223 10.4634 12.1002 10.8206 12.2987C11.1778 12.4972 11.4159 12.6164 11.4159 12.6164C11.4159 12.6164 11.535 12.7355 11.6937 12.934C11.8524 13.1325 12.0509 13.3311 12.2096 13.5693C12.4874 13.9266 12.5271 14.1252 12.408 14.284C12.289 14.4031 12.0509 14.4825 11.7334 14.4428C11.7334 14.4825 11.4159 14.4031 11.0984 14.3237C10.7809 14.2443 10.4634 14.1649 10.4634 14.1649C10.4634 14.1649 10.2253 14.0458 9.90785 13.8472C9.55068 13.6487 9.11414 13.4105 8.63791 13.212C8.20136 12.9737 7.72514 12.8149 7.40765 12.6958C7.24891 12.6561 7.09017 12.6164 7.01079 12.5767C6.97111 12.5369 6.89174 12.537 6.89174 12.537Z" fill="url(#paint9_linear)"/>
<path d="M38.4816 0.90329C38.4816 0.90329 38.5213 0.90329 38.561 0.90329C38.6801 0.9827 38.8388 1.1415 38.9975 1.37973C39.1166 1.61797 39.2357 1.97531 39.315 2.37237V2.45178C39.315 2.45178 39.2753 2.45179 39.196 2.5312C39.1166 2.5709 39.0372 2.65031 38.8785 2.76942C38.6404 3.00765 38.2832 3.40471 38.0054 3.84147C37.7276 4.27823 37.4498 4.7547 37.2514 5.11205C37.0529 5.46939 36.9339 5.74732 36.9339 5.74732C36.9339 5.74732 36.8148 5.90616 36.6164 6.06498C36.418 6.26351 36.1799 6.50174 35.9417 6.66056C35.1877 7.29585 35.029 6.77966 35.0687 6.22379C35.029 6.22379 35.1083 5.90616 35.1877 5.58851C35.2671 5.27087 35.3465 4.91352 35.3465 4.91352C35.3465 4.91352 35.4655 4.6753 35.6639 4.27824C35.8624 3.88119 36.1799 3.36502 36.4973 2.88856C36.8545 2.37239 37.2514 1.89591 37.6085 1.53857C38.0848 1.10181 38.4816 0.90329 38.4816 0.90329Z" fill="url(#paint10_linear)"/>
<path d="M10.384 42.1175C10.384 42.1175 10.384 42.1175 10.3443 42.1175C10.0665 42.0381 9.5109 41.7602 9.07435 41.0852L9.03467 41.0058C9.03467 41.0058 9.19341 40.7675 9.43153 40.4896C9.47121 40.4102 9.55058 40.3308 9.62995 40.2514C9.70933 40.172 9.74901 40.0529 9.82838 39.9337C9.98713 39.7352 10.1062 39.497 10.2649 39.2587C10.5824 38.822 10.8602 38.3455 11.0983 37.9882C11.3364 37.6308 11.4555 37.4323 11.4555 37.4323C11.4555 37.4323 11.5746 37.3132 11.773 37.1544C11.9714 36.9956 12.2095 36.797 12.4873 36.6779C13.2414 36.1617 13.4001 36.6779 13.281 37.2338C13.3207 37.2338 13.2017 37.5117 13.1223 37.8294C13.0032 38.147 12.8842 38.4646 12.8842 38.4646C12.8842 38.4646 12.7254 38.7029 12.527 39.0205C12.3286 39.3779 12.0111 39.8146 11.7333 40.2514C11.5746 40.4896 11.4158 40.6881 11.2968 40.9264C11.2174 41.0455 11.138 41.1249 11.0983 41.244C11.019 41.3631 10.9396 41.4425 10.8999 41.5219C10.5824 41.8396 10.384 42.1175 10.384 42.1175Z" fill="url(#paint11_linear)"/>
<path d="M54.2766 25.0442C54.2766 25.0442 54.2766 25.0442 54.3163 25.0839C54.4353 25.3618 54.5544 25.9971 54.1972 26.7118L54.1576 26.7912C54.0782 26.7912 48.8 26.3148 48.8 26.3148C48.8 26.3148 47.9666 26.0765 47.3713 25.7589C46.3792 25.2824 46.8157 24.9648 47.4904 24.8059C47.411 24.7662 49.0381 24.6074 49.0381 24.6074C49.0381 24.6074 54.2369 25.0442 54.2766 25.0442Z" fill="url(#paint12_linear)"/>
<path d="M18.877 0.268001C18.877 0.228296 18.877 0.228291 18.9166 0.188586C18.9563 0.14888 18.996 0.1489 19.0357 0.109194C19.0754 0.0694892 19.1548 0.0694843 19.1944 0.029779C19.3135 -0.00992633 19.4326 -0.00992633 19.5913 0.029779C19.8691 0.0694843 20.1866 0.267996 20.5438 0.387112L20.6231 0.426832C20.6231 0.426832 20.6231 0.466523 20.6231 0.585639C20.6231 0.704755 20.6628 0.903291 20.7025 1.14152C20.8216 1.65769 21.02 2.3724 21.2978 3.08709C21.5359 3.80179 21.8137 4.51647 22.0518 5.03264C22.2502 5.54881 22.409 5.90616 22.409 5.90616C22.409 5.90616 22.6074 6.8988 22.6471 7.65321C22.6868 8.28849 22.5677 8.5267 22.409 8.5267C22.2106 8.5267 21.9724 8.28848 21.774 8.01054C21.774 8.05024 21.5359 7.6929 21.2978 7.29585C21.0597 6.89879 20.8216 6.50174 20.8216 6.50174C20.8216 6.50174 20.6628 6.14439 20.4644 5.62822C20.266 5.11205 19.9485 4.39735 19.7104 3.64295C19.4326 2.88855 19.1944 2.13417 19.0754 1.49888C18.996 1.18124 18.9563 0.903286 18.9563 0.665054C18.877 0.466528 18.877 0.268001 18.877 0.268001Z" fill="url(#paint13_linear)"/>
<defs>
<linearGradient id="paint0_linear" x1="28.7822" y1="11.6238" x2="28.7822" y2="44.7397" gradientUnits="userSpaceOnUse">
<stop stop-color="#0852E3"/>
<stop offset="1" stop-color="#B65DFC"/>
</linearGradient>
<linearGradient id="paint1_linear" x1="30.1877" y1="23.7236" x2="30.1877" y2="42.3199" gradientUnits="userSpaceOnUse">
<stop stop-color="#0852E3"/>
<stop offset="1" stop-color="#B65DFC"/>
</linearGradient>
<linearGradient id="paint2_linear" x1="36.6153" y1="39.2687" x2="36.6153" y2="48.084" gradientUnits="userSpaceOnUse">
<stop stop-color="#0852E3"/>
<stop offset="1" stop-color="#B65DFC"/>
</linearGradient>
<linearGradient id="paint3_linear" x1="37.399" y1="41.4028" x2="37.399" y2="49.5027" gradientUnits="userSpaceOnUse">
<stop stop-color="#0852E3"/>
<stop offset="1" stop-color="#B65DFC"/>
</linearGradient>
<linearGradient id="paint4_linear" x1="37.6479" y1="43.1498" x2="37.6479" y2="50.7733" gradientUnits="userSpaceOnUse">
<stop stop-color="#0852E3"/>
<stop offset="1" stop-color="#B65DFC"/>
</linearGradient>
<linearGradient id="paint5_linear" x1="39.2158" y1="46.8822" x2="39.2158" y2="52.6593" gradientUnits="userSpaceOnUse">
<stop stop-color="#0852E3"/>
<stop offset="1" stop-color="#B65DFC"/>
</linearGradient>
<linearGradient id="paint6_linear" x1="39.4143" y1="47.4381" x2="39.4143" y2="51.521" gradientUnits="userSpaceOnUse">
<stop stop-color="#0852E3"/>
<stop offset="1" stop-color="#B65DFC"/>
</linearGradient>
<linearGradient id="paint7_linear" x1="3.94075" y1="24.9495" x2="3.94075" y2="26.9103" gradientUnits="userSpaceOnUse">
<stop stop-color="#0852E3"/>
<stop offset="1" stop-color="#B65DFC"/>
</linearGradient>
<linearGradient id="paint8_linear" x1="48.7677" y1="8.16937" x2="48.7677" y2="15.9945" gradientUnits="userSpaceOnUse">
<stop stop-color="#0852E3"/>
<stop offset="1" stop-color="#B65DFC"/>
</linearGradient>
<linearGradient id="paint9_linear" x1="9.66169" y1="10.7899" x2="9.66169" y2="14.4534" gradientUnits="userSpaceOnUse">
<stop stop-color="#0852E3"/>
<stop offset="1" stop-color="#B65DFC"/>
</linearGradient>
<linearGradient id="paint10_linear" x1="37.1866" y1="0.90329" x2="37.1866" y2="6.95328" gradientUnits="userSpaceOnUse">
<stop stop-color="#0852E3"/>
<stop offset="1" stop-color="#B65DFC"/>
</linearGradient>
<linearGradient id="paint11_linear" x1="11.1757" y1="36.4651" x2="11.1757" y2="42.1175" gradientUnits="userSpaceOnUse">
<stop stop-color="#0852E3"/>
<stop offset="1" stop-color="#B65DFC"/>
</linearGradient>
<linearGradient id="paint12_linear" x1="50.6122" y1="24.6074" x2="50.6122" y2="26.7912" gradientUnits="userSpaceOnUse">
<stop stop-color="#0852E3"/>
<stop offset="1" stop-color="#B65DFC"/>
</linearGradient>
<linearGradient id="paint13_linear" x1="20.7659" y1="0" x2="20.7659" y2="8.5267" gradientUnits="userSpaceOnUse">
<stop stop-color="#0852E3"/>
<stop offset="1" stop-color="#B65DFC"/>
</linearGradient>
</defs>
</svg>
