<svg width="17" height="23" viewBox="0 0 17 23" fill="none" xmlns="http://www.w3.org/2000/svg">
<path d="M14.5065 12.6505C14.3232 12.6505 14.1315 12.57 13.9482 12.5125C13.5772 12.398 13.2124 12.2481 12.8565 12.0639C12.4699 11.8698 12.0449 11.8799 11.6634 12.0922C11.2819 12.3045 10.9707 12.7041 10.7898 13.214L10.6065 13.743C9.79716 13.1096 9.04949 12.3367 8.38147 11.4429C7.73384 10.521 7.17379 9.4892 6.7148 8.3723L7.09813 8.13079C7.4676 7.88114 7.75712 7.45173 7.91096 6.9252C8.06481 6.39866 8.07211 5.81221 7.93147 5.27869C7.79912 4.78306 7.69055 4.27594 7.60647 3.76064C7.5648 3.50763 7.53147 3.24312 7.50647 2.99011C7.40527 2.18004 7.09782 1.44646 6.63948 0.921458C6.18114 0.396461 5.60204 0.114554 5.00646 0.126504H2.49812C2.14582 0.125868 1.79741 0.227993 1.47571 0.426187C1.15402 0.62438 0.866308 0.914165 0.631444 1.27655C0.39171 1.64876 0.213205 2.08819 0.108195 2.56463C0.0031849 3.04108 -0.025842 3.54325 0.0231089 4.03665C0.4761 8.82328 2.06079 13.2699 4.53146 16.6871C7.00759 20.0967 10.2297 22.2837 13.6982 22.9088C13.8063 22.9202 13.915 22.9202 14.0232 22.9088C14.6377 22.9101 15.231 22.5989 15.6898 22.0348C15.9524 21.7107 16.1624 21.3136 16.306 20.8697C16.4496 20.4257 16.5236 19.9449 16.5232 19.4587V16.0086C16.5187 15.2139 16.3155 14.4458 15.9481 13.834C15.5807 13.2221 15.0714 12.8041 14.5065 12.6505ZM14.9148 19.5507C14.9145 19.7112 14.8899 19.8698 14.8426 20.0164C14.7952 20.163 14.7261 20.2942 14.6398 20.4017C14.5485 20.5166 14.4398 20.6019 14.3216 20.6517C14.2034 20.7014 14.0787 20.7142 13.9565 20.6892C10.8467 20.1287 7.95668 18.173 5.73146 15.123C3.50435 12.0495 2.07481 8.04726 1.66478 3.73764C1.64668 3.56896 1.65598 3.39685 1.69201 3.23375C1.72804 3.07065 1.7899 2.92064 1.87311 2.7946C1.95197 2.67402 2.04843 2.57786 2.15616 2.51245C2.26388 2.44703 2.38043 2.41385 2.49812 2.41509H4.99812C5.19076 2.40859 5.37907 2.49442 5.53101 2.65798C5.68295 2.82153 5.78913 3.05269 5.83146 3.31212C5.83146 3.62263 5.90646 3.94464 5.95646 4.25515C6.05277 4.85762 6.18089 5.44955 6.3398 6.02622L5.17313 6.78525C4.97259 6.91228 4.81676 7.14389 4.73979 7.42927C4.65644 7.70926 4.65644 8.02331 4.73979 8.3033C5.93913 11.8486 8.00417 14.6985 10.5731 16.3536C10.776 16.4686 11.0036 16.4686 11.2065 16.3536C11.4133 16.2474 11.5811 16.0323 11.6731 15.7556L12.1981 14.1455C12.6281 14.3619 13.0679 14.5386 13.5148 14.6745C13.7315 14.7435 13.9648 14.801 14.1898 14.847C14.3778 14.9055 14.5453 15.052 14.6638 15.2617C14.7823 15.4714 14.8445 15.7312 14.8398 15.9971L14.9148 19.5507ZM9.99814 0C9.80647 0 9.60647 0 9.4148 0C9.19379 0.0259259 8.98929 0.171955 8.84629 0.405962C8.7033 0.639969 8.63352 0.942785 8.6523 1.2478C8.67109 1.55281 8.7769 1.83502 8.94647 2.03237C9.11603 2.22971 9.33546 2.32601 9.55647 2.30008H9.99814C11.3242 2.30008 12.596 3.02707 13.5337 4.32112C14.4714 5.61517 14.9982 7.37027 14.9982 9.20033C14.9982 9.40734 14.9982 9.60285 14.9982 9.80985C14.9797 10.1132 15.0491 10.4144 15.1913 10.6472C15.3334 10.88 15.5367 11.0256 15.7565 11.0519H15.8232C16.0318 11.0531 16.2331 10.9462 16.3874 10.7524C16.5417 10.5587 16.6377 10.2921 16.6565 10.0054C16.6565 9.74085 16.6565 9.46484 16.6565 9.20033C16.6565 6.76224 15.9553 4.42384 14.7068 2.69878C13.4584 0.973711 11.7648 0.00304761 9.99814 0ZM11.6648 9.20033C11.6648 9.50534 11.7526 9.79786 11.9089 10.0135C12.0652 10.2292 12.2771 10.3504 12.4981 10.3504C12.7192 10.3504 12.9311 10.2292 13.0874 10.0135C13.2437 9.79786 13.3315 9.50534 13.3315 9.20033C13.3315 7.98029 12.9803 6.81022 12.3552 5.94752C11.73 5.08483 10.8822 4.60017 9.99814 4.60017C9.77713 4.60017 9.56516 4.72133 9.40888 4.93701C9.2526 5.15268 9.1648 5.4452 9.1648 5.75021C9.1648 6.05522 9.2526 6.34774 9.40888 6.56341C9.56516 6.77908 9.77713 6.90025 9.99814 6.90025C10.4402 6.90025 10.8641 7.14258 11.1767 7.57393C11.4892 8.00528 11.6648 8.59031 11.6648 9.20033Z" fill="#060230"/>
</svg>
