<svg width="107" height="106" viewBox="0 0 107 106" fill="none" xmlns="http://www.w3.org/2000/svg">
<path d="M104.472 49.2299C102.87 47.7523 100.691 46.8397 98.4937 46.7254C95.9982 46.5964 93.6601 47.4862 91.9189 49.2283L80.0214 61.0008C79.7863 60.5935 79.5177 60.209 79.2165 59.8522C77.7528 58.1142 75.6123 57.1575 73.1902 57.1575H56.5351C53.3946 57.1575 50.3308 56.7501 47.4295 55.9476C39.8652 53.8553 32.6389 55.3836 26.5302 60.3698C24.046 62.3976 22.2337 64.6034 21.0876 66.2116L18.1014 63.3136C17.7087 62.9323 17.1765 62.716 16.6287 62.716C16.6238 62.716 16.6197 62.716 16.6148 62.716C16.0475 62.7201 15.4989 62.956 15.1054 63.3642L0.588274 78.4348C0.199693 78.8381 -0.0117415 79.3801 0.000503728 79.9401C0.012749 80.501 0.247041 81.0332 0.652766 81.4193L25.2061 104.799C25.6134 105.187 26.1359 105.38 26.6575 105.38C27.2053 105.38 27.7531 105.167 28.1653 104.744L42.5469 89.9894C42.9396 89.5861 43.1576 89.0351 43.147 88.4718C43.1363 87.9167 42.9037 87.3811 42.5053 86.9942L41.253 85.7795L44.1192 85.457C45.8532 85.2554 47.6165 85.1533 49.3618 85.1533H74.7021C78.8197 85.1533 82.317 84.2529 85.0975 82.4765C85.1203 82.4618 85.1432 82.4463 85.166 82.4308C86.162 81.7385 87.0657 80.9181 87.851 79.9932L104.927 59.9037C107.85 56.466 107.667 52.1761 104.472 49.2299ZM26.6028 100.316L5.0888 79.8307L16.6785 67.7986L38.0668 88.5542L26.6028 100.316ZM101.72 57.1771L84.6436 77.2674C84.1015 77.905 83.4803 78.4715 82.7954 78.9515C80.708 80.2732 77.9854 80.9442 74.7021 80.9442H49.361C47.4548 80.9442 45.5274 81.0561 43.6408 81.2757L37.3403 81.9826L24.1481 69.1807C25.0648 67.8214 26.7506 65.6246 29.1923 63.6311C34.2684 59.4873 40.0269 58.2669 46.307 60.0049C49.5741 60.9086 53.015 61.3674 56.5351 61.3674H73.1902C76.1813 61.3674 76.9797 63.9585 76.9797 65.4891C76.9797 66.6075 76.6205 67.672 75.9944 68.41C75.3152 69.2092 74.3494 69.6141 73.1241 69.6141H58.6257C57.4633 69.6141 56.5212 70.557 56.5212 71.7195C56.5212 72.882 57.4633 73.824 58.6257 73.824H73.1241C75.5715 73.824 77.7299 72.8689 79.2026 71.135C80.4279 69.6933 81.1267 67.7978 81.1855 65.7716L94.8879 52.2129C96.8463 50.2544 99.906 50.7459 101.618 52.3247C102.503 53.141 103.693 54.8562 101.72 57.1771Z" fill="#0852E3"/>
<path d="M52.0616 71.1586C51.7963 70.0263 50.664 69.3251 49.5317 69.5896C48.4003 69.8549 47.6974 70.9872 47.9635 72.1195L47.9831 72.2052C48.2109 73.175 49.0754 73.8297 50.0305 73.8297C50.1897 73.8297 50.3513 73.8118 50.513 73.7742C51.6453 73.5089 52.3473 72.3758 52.082 71.2443L52.0616 71.1586Z" fill="#0852E3"/>
<path d="M14.2268 44.4093H34.7368C35.8535 44.4093 36.887 44.0469 37.7279 43.4346C38.5687 44.0469 39.6022 44.4093 40.719 44.4093H61.2297C62.3465 44.4093 63.38 44.0469 64.2208 43.4346C65.0616 44.0469 66.0951 44.4093 67.2119 44.4093H87.7218C90.5317 44.4093 92.8175 42.1228 92.8175 39.3129V29.7485C92.8175 25.4529 90.4133 21.7214 86.8149 19.8805C88.5586 17.7776 89.6084 15.0804 89.6084 12.1415C89.6084 5.44668 84.1618 0 77.4669 0C70.772 0 65.3253 5.44668 65.3253 12.1415C65.3253 15.0804 66.3752 17.7784 68.1189 19.8805C66.5637 20.6773 65.2323 21.8275 64.2208 23.2227C63.2094 21.8267 61.8779 20.6765 60.3219 19.8805C62.0657 17.7784 63.1155 15.0804 63.1155 12.1415C63.1155 5.44668 57.6688 0 50.9739 0C44.2791 0 38.8324 5.44668 38.8324 12.1415C38.8324 15.0804 39.883 17.7784 41.6267 19.8813C40.0708 20.6773 38.7393 21.8275 37.7279 23.2235C36.7164 21.8275 35.3849 20.6773 33.829 19.8805C35.5727 17.7784 36.6225 15.0804 36.6225 12.1424C36.6225 5.44668 31.1759 0 24.481 0C17.7869 0 12.3403 5.44668 12.3403 12.1424C12.3403 15.0804 13.3901 17.7784 15.1338 19.8813C11.5353 21.7222 9.13037 25.4546 9.13037 29.7494V39.3129C9.13037 42.1228 11.417 44.4093 14.2268 44.4093ZM77.4677 4.20991C81.8409 4.20991 85.3993 7.76755 85.3993 12.1415C85.3993 16.5147 81.8409 20.0732 77.4677 20.0732C73.0937 20.0732 69.5361 16.5155 69.5361 12.1415C69.5352 7.76755 73.0937 4.20991 77.4677 4.20991ZM71.999 22.9769C73.6439 23.8104 75.5011 24.2831 77.4669 24.2831C79.4335 24.2831 81.2906 23.8104 82.9348 22.9769C86.2059 23.5467 88.6084 26.3656 88.6084 29.7485V39.3129C88.6084 39.8019 88.2108 40.1994 87.7218 40.1994H67.2119C66.7237 40.1994 66.3262 39.8019 66.3262 39.3129V29.7485C66.3254 26.3664 68.7287 23.5467 71.999 22.9769ZM50.9747 4.20991C55.3479 4.20991 58.9064 7.76755 58.9064 12.1415C58.9064 16.5147 55.3479 20.0732 50.9747 20.0732C46.6008 20.0732 43.0431 16.5155 43.0431 12.1415C43.0431 7.76755 46.6008 4.20991 50.9747 4.20991ZM45.5068 22.9769C47.151 23.8104 49.0082 24.2831 50.9747 24.2831C52.9413 24.2831 54.7977 23.8104 56.4426 22.9769C59.7129 23.5467 62.1163 26.3656 62.1163 29.7485V39.3129C62.1163 39.8019 61.7187 40.1994 61.2297 40.1994H40.7198C40.2308 40.1994 39.8332 39.8019 39.8332 39.3129V29.7485C39.8332 26.3664 42.2366 23.5467 45.5068 22.9769ZM24.4818 4.20991C28.855 4.20991 32.4134 7.76755 32.4134 12.1415C32.4134 16.5147 28.855 20.0732 24.4818 20.0732C20.1086 20.0732 16.5502 16.5147 16.5502 12.1415C16.5502 7.76755 20.1086 4.20991 24.4818 4.20991ZM13.3403 29.7485C13.3403 26.3664 15.7436 23.5467 19.0139 22.9769C20.6588 23.8104 22.5152 24.2831 24.4818 24.2831C26.4484 24.2831 28.3048 23.8104 29.9497 22.9769C33.2208 23.5467 35.6233 26.3656 35.6233 29.7485V39.3129C35.6233 39.8019 35.2258 40.1994 34.7368 40.1994H14.2268C13.7378 40.1994 13.3403 39.8019 13.3403 39.3129V29.7485Z" fill="#0852E3"/>
</svg>
