<svg width="107" height="107" viewBox="0 0 107 107" fill="none" xmlns="http://www.w3.org/2000/svg">
<path d="M36.6948 52.8346C35.927 52.4154 34.9659 52.6982 34.5469 53.4654L29.5384 62.6387L23.4435 51.4752C23.166 50.967 22.6333 50.6508 22.0542 50.6508C21.4753 50.6508 20.9424 50.967 20.6651 51.475L11.4135 68.4197C11.4121 68.4224 11.4106 68.4249 11.4091 68.4276L8.5611 73.6439C8.14209 74.4113 8.42463 75.3728 9.19182 75.7916C9.43278 75.9233 9.69254 75.9856 9.94897 75.9856C10.5093 75.9856 11.0522 75.6873 11.3396 75.1609L13.1882 71.7751L15.0258 73.6127C15.644 74.2309 16.6461 74.2309 17.2643 73.6127L18.2555 72.6215L20.9351 75.3011C21.2442 75.6102 21.6492 75.7647 22.0542 75.7647C22.1677 75.7647 22.2807 75.7513 22.3921 75.727L12.0121 94.7388C11.5933 95.5062 11.8756 96.4677 12.6428 96.8865C12.8837 97.0182 13.1435 97.0805 13.3999 97.0805C13.9602 97.0805 14.5032 96.7822 14.7905 96.2558L37.3253 54.982C37.7446 54.2152 37.462 53.2537 36.6948 52.8346ZM24.734 69.2644L22.0544 71.944L19.3748 69.2644C18.7566 68.6462 17.7545 68.6462 17.1364 69.2644L16.1452 70.2556L14.7694 68.8799L22.0544 55.5368L27.735 65.942L26.158 68.8305C25.6586 68.7327 25.121 68.8774 24.734 69.2644Z" fill="#0852E3"/>
<path d="M7.16502 79.5045C6.39762 79.0854 5.43608 79.368 5.01728 80.1352L0.193914 88.9694C-0.2251 89.7368 0.0574469 90.6983 0.82463 91.1171C1.06538 91.2488 1.32536 91.311 1.58178 91.311C2.14207 91.311 2.68501 91.0128 2.97236 90.4864L7.79573 81.6522C8.21475 80.885 7.9322 79.9235 7.16502 79.5045Z" fill="#0852E3"/>
<path d="M106.806 80.3166L95.5904 59.7744C95.5894 59.7725 95.5883 59.7707 95.5873 59.7686L92.3794 53.8932C91.9604 53.1258 90.9988 52.8432 90.2316 53.2625C89.4642 53.6813 89.1819 54.6428 89.6007 55.4102L92.2306 60.2269L90.8548 61.6026L89.8636 60.6114C89.2452 59.9932 88.2434 59.9932 87.625 60.6114L84.9456 63.291L82.2662 60.6114C81.6478 59.9932 80.6459 59.9932 80.0275 60.6114L79.0363 61.6026L77.6599 60.226L84.9454 46.8836L86.0503 48.9072C86.4691 49.6744 87.4304 49.9567 88.198 49.5381C88.9654 49.1193 89.2477 48.1576 88.8289 47.3904L86.3349 42.8224C86.0576 42.3142 85.5247 41.998 84.9456 41.998C84.3667 41.998 83.834 42.3142 83.5562 42.8222L75.0986 58.3109L55.0827 21.6502V16.2506H71.6498C72.2357 16.2506 72.7737 15.9271 73.0481 15.4095C73.3227 14.8918 73.2888 14.2651 72.9601 13.78L69.1296 8.12532L72.9601 2.47062C73.2888 1.98556 73.3227 1.35882 73.0481 0.841163C72.7735 0.323717 72.2355 0 71.6498 0H53.5001C52.6259 0 51.9172 0.708667 51.9172 1.58285V21.6502L38.0864 46.9823C37.6676 47.7497 37.9499 48.7112 38.7171 49.13C39.4849 49.5494 40.446 49.2667 40.8649 48.4993L44.6339 41.5961L46.4715 43.4337C47.0897 44.0519 48.0918 44.0519 48.7099 43.4337L49.7011 42.4425L52.3807 45.1221C52.6898 45.4312 53.0948 45.5856 53.4999 45.5856C53.9049 45.5856 54.3101 45.431 54.6192 45.1221L57.2986 42.4425L58.2898 43.4337C58.9082 44.0519 59.91 44.0519 60.5284 43.4337L62.366 41.5961L92.209 96.2562C92.4966 96.7827 93.0393 97.0809 93.5998 97.0809C93.8561 97.0809 94.116 97.0184 94.3568 96.887C95.1242 96.4682 95.4065 95.5066 94.9877 94.7392L78.9807 65.4212C79.4041 65.436 79.8323 65.2835 80.1556 64.9602L81.1469 63.969L83.8263 66.6486C84.1353 66.9576 84.5406 67.1121 84.9456 67.1121C85.3506 67.1121 85.7558 66.9574 86.0649 66.6486L88.7443 63.969L89.7355 64.9602C90.3539 65.5783 91.3558 65.5783 91.9741 64.9602L93.8117 63.1226L104.028 81.8334C104.315 82.3598 104.858 82.658 105.418 82.658C105.675 82.658 105.935 82.5956 106.175 82.4641C106.943 82.0455 107.225 81.084 106.806 80.3166ZM65.9075 9.0133L68.6657 13.0852H55.0827V3.16591H68.6657L65.9075 7.23777C65.5443 7.77381 65.5443 8.47705 65.9075 9.0133ZM59.4093 40.0762L58.4181 39.0849C57.7997 38.4668 56.7978 38.4668 56.1795 39.0849L53.5001 41.7645L50.8205 39.0849C50.2023 38.4668 49.2002 38.4668 48.582 39.0849L47.5908 40.0762L46.2151 38.7004L53.5001 25.3574L60.7851 38.7004L59.4093 40.0762Z" fill="#0852E3"/>
<path d="M63.0361 69.645H67.0071C67.6209 69.645 68.1793 69.2901 68.4401 68.7344C68.7009 68.1787 68.6167 67.5225 68.2242 67.0504L54.7173 50.8C54.4166 50.4382 53.9706 50.2288 53.5002 50.2288C53.0298 50.2288 52.5836 50.438 52.2831 50.8L38.7762 67.0504C38.3837 67.5225 38.2997 68.1787 38.5603 68.7344C38.8209 69.2901 39.3795 69.645 39.9933 69.645H43.9642L32.9946 104.947C32.8454 105.428 32.9334 105.95 33.2316 106.356C33.5298 106.761 34.003 107 34.5062 107H72.4942C72.9972 107 73.4705 106.761 73.7688 106.356C74.0672 105.951 74.155 105.428 74.0058 104.947L63.0361 69.645ZM36.6554 103.834L47.625 68.5319C47.7742 68.0515 47.6862 67.5288 47.388 67.1236C47.0898 66.7183 46.6166 66.4793 46.1134 66.4793H43.3669L53.5002 54.2879L63.6332 66.4793H60.8867C60.3837 66.4793 59.9104 66.7183 59.6121 67.1236C59.3137 67.5286 59.2259 68.0515 59.3752 68.5319L70.3448 103.834H36.6554Z" fill="#0852E3"/>
</svg>
