<svg width="33" height="30" viewBox="0 0 33 30" fill="none" xmlns="http://www.w3.org/2000/svg">
<path d="M32.5568 27.8839C31.9047 26.816 30.8644 26.0323 29.6691 25.6981C29.6922 25.283 29.6168 24.8687 29.446 24.4834C28.9985 23.4729 27.9842 22.8696 26.9245 22.9109L28.0111 21.0288L28.2733 21.4042C28.5099 21.743 28.9787 21.8271 29.3186 21.5897L30.3779 20.8498C30.7173 20.6127 30.8004 20.1439 30.5634 19.8045L29.3961 18.1334C29.2447 17.9167 28.9464 17.8638 28.7296 18.0151C28.5129 18.1665 28.4599 18.4648 28.6113 18.6816L29.6602 20.1833L28.9397 20.6866L25.1217 15.2207C24.9505 14.9755 24.6813 14.8201 24.3833 14.7943L17.7407 14.2208L17.8163 13.3452L25.1326 13.9769C25.2627 13.9881 25.3802 14.056 25.455 14.1631L27.3166 16.8282C27.468 17.045 27.7664 17.0979 27.9831 16.9466C28.1998 16.7952 28.2528 16.4968 28.1014 16.28L26.2398 13.6149C26.0021 13.2745 25.6285 13.0588 25.2149 13.0232L23.5235 12.8772L24.1373 11.8136C24.2608 11.6009 24.2669 11.3433 24.1536 11.1248C24.0401 10.9059 23.8259 10.7622 23.5794 10.7404L21.8472 10.591C21.545 10.5649 21.2517 10.7178 21.0999 10.9806L20.1724 12.5879L17.6927 12.3738C17.4931 12.3566 17.2985 12.4181 17.145 12.5472C16.9915 12.6763 16.8975 12.8573 16.8802 13.0571L16.7691 14.3445C16.7335 14.7569 17.04 15.1213 17.4524 15.1569L17.9088 15.1963L15.6386 19.1285L12.7758 18.4678V16.7054C12.7758 16.0591 12.4308 15.4522 11.8754 15.1218L11.2092 14.7253C10.9819 14.59 10.6883 14.6646 10.5531 14.8918C10.4178 15.119 10.4924 15.4127 10.7196 15.5479L11.3858 15.9444C11.6527 16.1032 11.8185 16.3949 11.8185 16.7055V18.4775C11.8185 18.9202 12.1198 19.299 12.5512 19.3986L15.9538 20.1838C15.9795 20.1897 16.0011 20.2066 16.0131 20.2301L16.5888 21.3587C16.7919 21.7566 17.2475 21.9571 17.6721 21.8358C18.5574 21.5826 19.5205 21.8231 20.1854 22.4636C20.3117 22.5852 20.4843 22.6458 20.659 22.6303C20.8339 22.6145 20.9931 22.5237 21.0958 22.381C22.4196 20.543 25.366 21.1733 25.762 23.4649C25.7915 23.6357 25.8931 23.7857 26.0407 23.8765C26.1888 23.9677 26.3693 23.9907 26.536 23.9397C27.3504 23.6907 28.2249 24.0911 28.5705 24.8714C28.7086 25.1829 28.7491 25.5238 28.6876 25.8573C28.6276 26.1825 28.8354 26.4908 29.1608 26.559C30.1402 26.7643 31.0121 27.3407 31.5904 28.1566H6.57781C7.14427 27.5743 7.92191 27.2189 8.75111 27.1917C8.94538 27.1854 9.11654 27.0621 9.18419 26.8799C10.1678 24.2294 13.4256 23.2163 15.7371 24.8694C15.9521 25.023 16.251 24.9735 16.4049 24.7584C16.5587 24.5434 16.509 24.2444 16.294 24.0906C15.4007 23.4517 14.3467 23.1129 13.2453 23.1098L8.23009 15.6765C8.02351 15.3707 7.94495 15.0015 8.00877 14.6372L8.12051 14.0007L8.80383 14.4073C8.88054 14.4529 8.96484 14.4747 9.04813 14.4747C9.21138 14.4747 9.37042 14.3912 9.45996 14.2407C9.59512 14.0135 9.52052 13.7198 9.29339 13.5847L8.29774 12.9922L8.5437 11.5915C8.68768 10.7688 8.40827 9.93785 7.79618 9.36877L7.2063 8.82075L7.7847 7.8191L8.80817 8.41001C8.94519 8.48914 9.0988 8.52903 9.25273 8.52903C9.38107 8.52903 9.50973 8.50127 9.62927 8.44536C9.89214 8.32245 10.0787 8.07834 10.1285 7.79249L11.0495 2.50109C11.0997 2.21282 10.9683 1.93195 10.7149 1.78568C10.4614 1.63934 10.1526 1.66595 9.92801 1.85365L5.8061 5.29696C5.58344 5.48299 5.46537 5.76667 5.49032 6.05571C5.51528 6.34481 5.68025 6.60398 5.93151 6.74911L6.95562 7.34039L6.4868 8.15224L1.92307 3.9124C1.71049 3.7152 1.43396 3.60657 1.14447 3.60657C0.513364 3.60657 0 4.11994 0 4.75086V9.55978C0 9.82412 0.214306 10.0384 0.478646 10.0384C0.742986 10.0384 0.957292 9.82412 0.957292 9.55978V4.75086C0.957292 4.64773 1.04115 4.56387 1.14428 4.56387C1.19157 4.56387 1.23688 4.58174 1.2716 4.61396L7.14427 10.0699C7.51787 10.4172 7.68846 10.9243 7.60064 11.4261L7.06577 14.4718C6.95887 15.0818 7.09059 15.7 7.43656 16.2121L12.1649 23.2201C10.6126 23.5435 9.26614 24.5591 8.53655 25.9813L7.71615 24.5598L8.73975 23.9689C9.27437 23.6602 9.33889 22.9124 8.86522 22.5167L4.74325 19.0734C4.51867 18.8858 4.20985 18.8591 3.95636 19.0054C3.70293 19.1518 3.57159 19.4326 3.62182 19.7209L4.5428 25.0123C4.59257 25.2982 4.77918 25.5422 5.04199 25.6651C5.30422 25.7878 5.6112 25.7752 5.86309 25.6297L6.88701 25.0385L7.67614 26.4058C6.72912 26.6897 5.90119 27.3089 5.36339 28.1566H0.957292V11.7879C0.957292 11.5236 0.742986 11.3093 0.478646 11.3093C0.214306 11.3093 0 11.5236 0 11.7879V28.3169C0 28.7563 0.357516 29.1139 0.796977 29.1139H31.8696C32.1607 29.1139 32.43 28.9562 32.5723 28.7026C32.7153 28.4476 32.7094 28.1339 32.5568 27.8839ZM21.8742 11.5541L23.1199 11.6615L22.4708 12.7862L21.2253 12.6787L21.8742 11.5541ZM20.5589 21.5229C20.2957 21.3195 20.0069 21.1569 19.703 21.0355L20.6099 19.4641C20.9845 18.8153 21.8175 18.592 22.4665 18.9665C22.9592 19.2512 23.2124 19.8094 23.1296 20.3512C22.1383 20.3668 21.2177 20.7855 20.5589 21.5229ZM24.0816 20.4608C24.2058 19.5487 23.7734 18.6161 22.9453 18.1376C21.8388 17.4992 20.4193 17.8796 19.7808 18.9855L18.7344 20.7987C18.3032 20.7554 17.8623 20.7891 17.4339 20.9082L16.8659 19.7948C16.7933 19.6523 16.6899 19.5311 16.5659 19.437L18.9618 15.2871L24.301 15.7481C24.3155 15.7494 24.3286 15.7569 24.337 15.7688L27.4059 20.1624L26.2763 22.1191C25.7955 21.284 25.0122 20.6937 24.0816 20.4608ZM9.98098 3.05664L9.202 7.53198L6.49478 5.96891L9.98098 3.05664ZM5.46913 24.7517L4.69015 20.2763L8.17642 23.1886L5.46913 24.7517Z" fill="url(#paint0_linear)"/>
<path d="M14.9427 8.30128C15.1235 8.48584 15.3699 8.58304 15.6187 8.58304C15.7681 8.58304 15.9184 8.54794 16.0557 8.47563L17.5691 7.6784C17.7966 7.55855 17.9673 7.34775 18.0371 7.10013C18.1069 6.85257 18.0716 6.5837 17.9402 6.36257L17.2216 5.153C17.0271 4.8256 16.6577 4.6478 16.2807 4.70077L15.0388 4.87411C14.6063 4.93448 14.2741 5.28013 14.2309 5.71474L14.1067 6.96496C14.079 7.24353 14.1755 7.51808 14.3714 7.71809L14.9427 8.30128ZM15.1824 5.82055L16.4035 5.65009L17.1095 6.83841L15.619 7.62358L15.06 7.0529L15.1824 5.82055Z" fill="url(#paint1_linear)"/>
<path d="M3.10188 3.07699C3.27476 3.2292 3.49641 3.31191 3.72405 3.31191C3.83561 3.31191 3.77632 3.31159 5.94356 3.03678C6.23413 2.99996 6.48622 2.8339 6.63517 2.58169C6.78413 2.32947 6.80768 2.02863 6.69976 1.75637L6.23949 0.594542C6.09635 0.233388 5.75281 0 5.36434 0H3.72399C3.20494 0 2.78271 0.422293 2.78271 0.941336V2.37064C2.78271 2.64085 2.89906 2.89836 3.10188 3.07699ZM3.74001 0.957228H5.35343L5.80208 2.08977L3.73994 2.35238V0.957228H3.74001Z" fill="url(#paint2_linear)"/>
<path d="M10.7206 11.8257L12.0621 13.4404C12.4532 13.9113 13.1928 13.8331 13.4811 13.2997L14.3145 11.758C14.5723 11.281 14.4189 10.6748 13.9651 10.3779L12.4521 9.38802C12.2994 9.28821 12.1099 9.25476 11.9324 9.2965C11.7549 9.33818 11.6001 9.45235 11.5078 9.60973L10.658 11.0591C10.5158 11.3015 10.541 11.6096 10.7206 11.8257ZM12.1808 10.3546L13.4409 11.179C13.4817 11.2056 13.4954 11.26 13.4723 11.3027L12.707 12.7186L11.5859 11.3692L12.1808 10.3546Z" fill="url(#paint3_linear)"/>
<defs>
<linearGradient id="paint0_linear" x1="16.3378" y1="1.69189" x2="16.3378" y2="29.1139" gradientUnits="userSpaceOnUse">
<stop stop-color="#0852E3"/>
<stop offset="1" stop-color="#B65DFC"/>
</linearGradient>
<linearGradient id="paint1_linear" x1="16.0871" y1="4.69153" x2="16.0871" y2="8.58304" gradientUnits="userSpaceOnUse">
<stop stop-color="#0852E3"/>
<stop offset="1" stop-color="#B65DFC"/>
</linearGradient>
<linearGradient id="paint2_linear" x1="4.77467" y1="0" x2="4.77467" y2="3.31191" gradientUnits="userSpaceOnUse">
<stop stop-color="#0852E3"/>
<stop offset="1" stop-color="#B65DFC"/>
</linearGradient>
<linearGradient id="paint3_linear" x1="12.5029" y1="9.27893" x2="12.5029" y2="13.7511" gradientUnits="userSpaceOnUse">
<stop stop-color="#0852E3"/>
<stop offset="1" stop-color="#B65DFC"/>
</linearGradient>
</defs>
</svg>
