<svg width="33" height="34" viewBox="0 0 33 34" fill="none" xmlns="http://www.w3.org/2000/svg">
<path d="M31.2711 19.1352C32.2678 18.1549 32.8167 16.847 32.8167 15.4526C32.8167 14.2656 32.4064 13.1169 31.6577 12.1966V7.30977C31.6577 7.03592 31.4357 6.81391 31.1618 6.81391C30.8879 6.81391 30.6659 7.03592 30.6659 7.30977V12.3779C30.6659 12.4981 30.7096 12.6143 30.7889 12.7047C31.4569 13.4669 31.8249 14.4428 31.8249 15.4526C31.8249 16.5791 31.3812 17.6358 30.5757 18.4282C28.0517 20.9108 23.7086 19.2984 23.4822 15.7229C23.4779 15.6553 23.4742 15.5879 23.4744 15.5206C23.4744 15.515 23.4744 15.5095 23.4743 15.5039C23.462 14.4725 23.8252 13.4858 24.5098 12.7047C24.589 12.6143 24.6327 12.4982 24.6327 12.3779V3.03875C24.6327 2.16657 25.3423 1.45696 26.2146 1.45696H29.0842C29.9564 1.45696 30.666 2.16657 30.666 3.03875V4.99582C30.666 5.26967 30.888 5.49168 31.1619 5.49168C31.4358 5.49168 31.6577 5.26967 31.6577 4.99582V3.03875C31.6577 1.61973 30.5032 0.465234 29.0842 0.465234H26.2146C24.7955 0.465234 23.641 1.61973 23.641 3.03875V7.65225C21.7436 6.4797 19.5721 5.89657 17.3059 5.95871C16.6641 5.9763 16.0316 6.04632 15.4134 6.16552C15.5247 5.97604 15.6528 5.79554 15.7992 5.62629C16.0172 5.37499 16.0734 5.02716 15.9459 4.7186C15.8183 4.40997 15.5327 4.20337 15.2004 4.1793C14.3298 4.11669 13.5095 3.74142 12.8904 3.12226C12.2721 2.50507 11.8967 1.68499 11.8334 0.813329C11.8094 0.480904 11.6027 0.195155 11.2939 0.0676198C10.9855 -0.0598496 10.6377 -0.00338752 10.3868 0.214395C9.72698 0.785693 8.88164 1.10033 8.00661 1.10033C7.13131 1.10033 6.2861 0.785495 5.62627 0.213601C5.37457 -0.00418088 5.02661 -0.0601802 4.71805 0.0675537C4.40976 0.195221 4.20328 0.480705 4.17915 0.813461C4.15634 1.13604 4.09023 1.45451 3.98266 1.75989C3.89162 2.01821 4.02722 2.30137 4.28553 2.39235C4.54371 2.48326 4.82688 2.34779 4.91799 2.08948C5.03058 1.76988 5.10747 1.43911 5.14747 1.1039C5.95996 1.74264 6.96669 2.09199 8.00661 2.09199C9.04593 2.09199 10.0525 1.74297 10.8655 1.10463C10.9895 2.13179 11.4548 3.09046 12.1894 3.82373C12.9246 4.55887 13.8835 5.02392 14.9093 5.14722C14.5969 5.54583 14.3505 5.99772 14.1832 6.47408C13.4659 6.69675 12.7741 6.98911 12.1164 7.34739C11.7993 5.36474 10.0774 3.84469 8.00654 3.84469C5.71163 3.84469 3.84461 5.71171 3.84461 8.00662C3.84461 10.1067 5.4079 11.8474 7.43147 12.1286C7.09918 12.7692 6.82851 13.44 6.62295 14.1334C6.09113 14.3001 5.58832 14.5635 5.14721 14.9094C5.0239 13.8834 4.55892 12.9246 3.82379 12.1896C3.08925 11.455 2.13111 10.9899 1.10481 10.8656C1.74289 10.0537 2.09204 9.04694 2.09204 8.00669C2.09204 6.96664 1.74249 5.95964 1.10389 5.14742C1.95617 5.04567 2.7555 4.71285 3.42763 4.17791C3.6419 4.00734 3.67727 3.69541 3.50676 3.48113C3.33619 3.26685 3.02419 3.23148 2.80998 3.40199C2.23756 3.85772 1.54692 4.12647 0.812651 4.17937C0.480755 4.20337 0.195271 4.40978 0.0676034 4.71814C-0.0601966 5.02663 -0.0042634 5.37472 0.213916 5.62682C0.785478 6.28631 1.10032 7.13153 1.10032 8.00675C1.10032 8.88258 0.785743 9.72779 0.214312 10.387C-0.0036684 10.639 -0.0594032 10.9872 0.0687935 11.2958C0.196858 11.6042 0.48254 11.8102 0.813246 11.8335C1.68378 11.8967 2.50393 12.2722 3.12264 12.8909C3.74147 13.5097 4.11674 14.33 4.17928 15.2008C4.20335 15.5329 4.41009 15.8186 4.71872 15.9461C4.82814 15.9913 4.94251 16.0134 5.0557 16.0134C5.26172 16.0134 5.4639 15.9402 5.62561 15.7999C5.84412 15.611 6.08471 15.4488 6.34031 15.317C6.21278 16.0094 6.14686 16.7184 6.14693 17.4374C6.14693 20.3411 7.23432 23.1127 9.20877 25.2416C9.30649 25.3469 9.43925 25.4002 9.57247 25.4002C9.69313 25.4002 9.81405 25.3565 9.90959 25.2679C10.1103 25.0817 10.1221 24.768 9.9359 24.5672C9.21558 23.7905 8.62491 22.9201 8.17474 21.9859L9.22656 20.0427C9.29399 19.9181 9.41062 19.8953 9.45763 19.8913C9.50483 19.8873 9.62351 19.8899 9.71111 20.0012L11.6553 22.4714C12.1941 23.1558 13.1833 23.3129 13.9085 22.8209C14.7038 22.2813 14.8816 21.1806 14.2959 20.4182L12.3985 17.9477C12.3097 17.8321 12.2795 17.6847 12.3156 17.5435C12.3518 17.4023 12.4491 17.2875 12.5824 17.2287L16.5087 15.4984C17.1833 15.2011 17.6192 14.5327 17.6192 13.7954V11.3291C17.6192 10.6677 17.2638 10.0509 16.6916 9.71913L15.2203 8.86611C14.5792 8.49448 13.9079 8.17369 13.2157 7.90507C16.4438 6.41993 20.454 6.60254 23.641 8.83993V12.1966C22.9708 13.0192 22.5766 14.0102 22.497 15.0559L20.7122 15.2199C19.9038 15.2939 19.2557 15.9064 19.1364 16.7091L18.9117 18.2177C18.7891 19.0383 19.2449 19.8188 20.0201 20.1159L23.1842 21.3284C23.8854 21.5972 24.4443 22.1523 24.7173 22.8514L25.3665 24.5125C24.6129 25.3367 23.7269 26.045 22.7357 26.599C22.5788 26.6867 22.4817 26.8523 22.4817 27.0319V30.2682C22.4817 30.7323 22.1041 31.1098 21.6401 31.1098C21.176 31.1098 20.7985 30.7323 20.7985 30.2682V29.6712C20.7985 29.147 20.5731 28.6476 20.18 28.3008C19.7924 27.9589 19.2777 27.7995 18.7681 27.8635L18.7412 27.8669C17.8241 27.9812 17.1325 28.758 17.1325 29.6739V32.0177C17.1325 32.4818 16.7549 32.8593 16.2909 32.8593C15.8268 32.8593 15.4492 32.4818 15.4492 32.0177V25.6809C15.4492 25.4071 15.227 25.1851 14.9532 25.1851C14.6792 25.1851 14.4574 25.4071 14.4574 25.681V27.4364C13.4483 27.1172 12.4973 26.6484 11.6231 26.0372C11.3986 25.8802 11.0895 25.935 10.9326 26.1594C10.7756 26.3839 10.8304 26.693 11.0548 26.8499C12.0978 27.5792 13.2409 28.1241 14.4576 28.4727V32.0177C14.4576 33.0286 15.28 33.851 16.2909 33.851C17.3019 33.851 18.1243 33.0286 18.1243 32.0177V29.6739C18.1243 29.2573 18.4423 28.9035 18.8641 28.8509L18.8916 28.8475C19.1228 28.8186 19.3472 28.8885 19.5239 29.0445C19.9342 29.4063 19.7698 29.8855 19.8068 30.2682C19.8068 31.2791 20.6292 32.1016 21.6401 32.1016C22.6511 32.1016 23.4735 31.2792 23.4735 30.2682V27.3185C24.5348 26.6891 25.4799 25.896 26.2789 24.9799C26.3055 24.955 26.3292 24.9276 26.3494 24.8979C27.4329 23.632 28.2395 22.1367 28.6904 20.5148C29.6574 20.3175 30.5487 19.8458 31.2711 19.1352ZM4.83633 8.00675C4.83633 6.25868 6.25853 4.83655 8.00654 4.83655C9.72625 4.83655 11.1295 6.2126 11.1752 7.92113C9.89921 8.78638 8.8144 9.89837 7.98512 11.1771C6.24696 11.1655 4.83633 9.74795 4.83633 8.00675ZM14.7228 9.72402L16.1941 10.577C16.4613 10.732 16.6274 11.0201 16.6274 11.329V13.7954C16.6274 14.1397 16.4237 14.452 16.1086 14.5908L12.1824 16.3211C11.7684 16.5035 11.4668 16.8595 11.3547 17.2976C11.2427 17.7358 11.3364 18.1929 11.6119 18.5516L13.5093 21.0221C13.6246 21.1723 13.6716 21.3581 13.6414 21.5451C13.6113 21.7321 13.5084 21.8937 13.3516 22.0001C13.0573 22.1998 12.6544 22.1373 12.4344 21.8578L10.4903 19.3878C10.2222 19.0473 9.80341 18.866 9.373 18.903C8.94134 18.94 8.56052 19.1894 8.3543 19.5704L7.68965 20.7984C6.21655 16.4402 7.71656 11.254 12.0378 8.54202C12.9737 8.83709 13.8764 9.23332 14.7228 9.72402ZM25.641 22.4905C25.2665 21.532 24.5004 20.7709 23.539 20.4024L20.3748 19.1898C20.0375 19.0606 19.8391 18.721 19.8925 18.3639L20.1173 16.855C20.1691 16.5059 20.4509 16.2396 20.8027 16.2075L22.5164 16.0499C22.8104 18.5909 24.9774 20.5766 27.5626 20.6192C27.5831 20.6195 27.6034 20.6196 27.6238 20.6197C27.2778 21.7052 26.7561 22.7226 26.0876 23.6335L25.641 22.4905Z" fill="url(#paint0_linear)"/>
<path d="M28.0656 2.71472H27.2333C26.493 2.71472 25.8906 3.31709 25.8906 4.05751V13.3372C25.2132 13.902 24.8402 14.7688 24.9059 15.6599C25.0089 17.0577 26.1813 18.2039 27.6521 18.2039C28.3547 18.2039 29.0168 17.9428 29.5324 17.4585C30.0842 16.9404 30.4007 16.2093 30.4007 15.4526C30.4007 14.6299 30.0342 13.8573 29.4084 13.3369V4.05751C29.4083 3.31709 28.806 2.71472 28.0656 2.71472ZM29.4089 15.4526C29.4089 15.9436 29.2117 16.3992 28.8536 16.7356C28.4958 17.0716 28.0273 17.2398 27.5346 17.2085C26.6639 17.1537 25.9589 16.4566 25.8948 15.5871C25.8478 14.9479 26.1355 14.3526 26.6645 13.9944C26.8007 13.9021 26.8823 13.7483 26.8823 13.5838V4.05751C26.8823 3.86393 27.0398 3.70644 27.2334 3.70644H28.0656C28.2592 3.70644 28.4167 3.86393 28.4167 4.05751V13.5838C28.4167 13.7483 28.4983 13.9021 28.6345 13.9944C29.1194 14.3228 29.4089 14.8679 29.4089 15.4526Z" fill="url(#paint1_linear)"/>
<defs>
<linearGradient id="paint0_linear" x1="16.4083" y1="0" x2="16.4083" y2="33.851" gradientUnits="userSpaceOnUse">
<stop stop-color="#0852E3"/>
<stop offset="1" stop-color="#B65DFC"/>
</linearGradient>
<linearGradient id="paint1_linear" x1="27.6496" y1="2.71472" x2="27.6496" y2="18.2039" gradientUnits="userSpaceOnUse">
<stop stop-color="#0852E3"/>
<stop offset="1" stop-color="#B65DFC"/>
</linearGradient>
</defs>
</svg>
