<svg width="32" height="34" viewBox="0 0 32 34" fill="none" xmlns="http://www.w3.org/2000/svg">
<path d="M12.8798 9.89231C12.9765 9.75419 13.0136 9.58671 12.9843 9.42089L12.5642 7.03883C12.5039 6.69617 12.176 6.46661 11.8333 6.52697L5.53825 7.63695C5.37224 7.66617 5.2276 7.75834 5.13092 7.8964C5.03423 8.03446 4.99711 8.20194 5.02633 8.36795L5.44635 10.7501C5.50027 11.0558 5.76716 11.2716 6.06751 11.2716C6.1037 11.2716 6.14049 11.2684 6.17735 11.2619L12.4724 10.152C12.6384 10.1226 12.7831 10.0304 12.8798 9.89231ZM6.0707 8.55449L8.36823 8.14941L8.66148 9.81242L6.36395 10.2176L6.0707 8.55449ZM9.64243 9.63937L9.34918 7.97635L11.6467 7.57128L11.94 9.23429L9.64243 9.63937Z" fill="url(#paint0_linear)"/>
<path d="M30.4985 15.4492L26.8741 14.81L27.128 13.3684C27.3018 13.3862 27.4663 13.3957 27.6207 13.3957C27.9435 13.3957 28.2252 13.3567 28.4703 13.2785C29.1166 13.0725 29.5234 12.5947 29.6464 11.8968C29.7658 11.2198 29.5915 10.5385 29.1554 9.97466C29.4415 9.7097 29.6264 9.3766 29.6912 9.00884C29.8058 8.35919 29.7123 7.59751 29.4414 6.97123C29.1193 6.22675 28.6016 5.75672 27.9837 5.64775C27.3659 5.53878 26.7185 5.80341 26.1612 6.39283C25.6924 6.88862 25.3441 7.57254 25.2296 8.22213C25.1647 8.58989 25.2246 8.96621 25.4028 9.31298C24.8002 9.69369 24.4034 10.2743 24.284 10.9512C24.1609 11.6492 24.3796 12.2372 24.9164 12.6518C25.2174 12.8843 25.623 13.0635 26.147 13.1955L25.8931 14.637L22.9729 14.122C22.7734 14.0867 22.5691 14.1399 22.412 14.2675L21.3289 15.1474C21.0462 15.377 20.9869 15.7776 21.1908 16.0793L21.9212 17.1598C22.0263 17.3154 22.1928 17.4234 22.378 17.4561L23.0123 17.568L23.9621 21.0804L21.754 23.791C21.6197 23.9558 21.5543 24.1634 21.5697 24.3755L21.7905 27.4152L17.9299 23.709C18.4928 23.0317 20.0697 21.1339 20.6325 20.4566C20.7507 20.3145 20.8006 20.1285 20.7693 19.9466L20.376 17.6521C20.3475 17.4854 20.2555 17.3401 20.1173 17.2428C19.979 17.1454 19.8112 17.1079 19.6445 17.1373L19.2326 17.21L18.6531 16.4396L18.9379 15.8501C19.0415 15.6357 19.0167 15.3847 18.873 15.1948C18.7294 15.005 18.4948 14.913 18.2602 14.9541L16.6274 15.2419L14.5755 3.60582L15.1893 3.49758C15.3728 3.46524 15.5327 3.36337 15.6395 3.21071C15.7464 3.0581 15.7873 2.87303 15.755 2.68961L15.3824 0.576365C15.3156 0.197716 14.9533 -0.0558897 14.5744 0.0105831L6.17428 1.49184C5.90341 1.53959 5.72252 1.79791 5.77026 2.06878C5.81801 2.33965 6.07653 2.52068 6.3472 2.4728L14.4532 1.04347L14.722 2.56849L1.46966 4.90533L1.20078 3.38031L4.02086 2.88306C4.29179 2.83531 4.47262 2.57699 4.42487 2.30612C4.37713 2.03525 4.11894 1.85442 3.84793 1.9021L0.733741 2.45128C0.550261 2.48362 0.39042 2.58549 0.283573 2.73809C0.176725 2.89069 0.135619 3.07577 0.168026 3.25925L0.540632 5.37236C0.600132 5.71037 0.895109 5.9489 1.22721 5.9489C1.26725 5.9489 1.30782 5.94545 1.3486 5.93828L1.96233 5.83004L4.01402 17.466L1.24002 17.955C0.906066 18.0139 0.663616 18.3027 0.663616 18.6419V33.1701C0.663616 33.6278 1.03596 34.0001 1.4937 34.0001H30.2447C30.7024 34.0001 31.0747 33.6278 31.0747 33.1701V25.3124C31.0747 25.0373 30.8517 24.8144 30.5767 24.8144C30.3016 24.8144 30.0786 25.0373 30.0786 25.3124V33.004H1.65971V21.3201L19.4562 18.1822L19.7591 19.9494L15.6806 24.8571C15.4152 25.1765 15.3622 25.6236 15.5457 25.9962L16.4951 27.9244C16.506 27.9465 16.5016 27.9731 16.4842 27.9906L14.3579 30.1236C14.1638 30.3184 14.1642 30.6337 14.3591 30.8279C14.4563 30.9248 14.5835 30.9732 14.7107 30.9732C14.8384 30.9732 14.9662 30.9244 15.0634 30.8268L17.1898 28.6938C17.5079 28.3746 17.5879 27.8886 17.3889 27.4844L16.4394 25.5562C16.4294 25.5358 16.4323 25.5113 16.4468 25.4938L17.2917 24.4773L21.7866 28.7924C21.9766 28.9748 22.2535 29.0204 22.4918 28.9084C22.7303 28.7964 22.872 28.5543 22.853 28.2915L22.568 24.3694L24.7882 21.6438C24.9566 21.4371 25.0155 21.1602 24.946 20.9028L24.0959 17.7594L24.1068 17.7613C24.1106 17.762 24.1142 17.7621 24.118 17.7627L30.0787 18.8144V22.9861C30.0787 23.2612 30.3017 23.4842 30.5768 23.4842C30.8518 23.4842 31.0748 23.2612 31.0748 22.9861V16.1361C31.0747 15.797 30.8324 15.5082 30.4985 15.4492ZM25.2649 11.1243C25.336 10.7211 25.5803 10.373 25.9528 10.1439C26.3871 9.87691 26.5389 9.32002 26.2984 8.87616C26.2119 8.71659 26.1824 8.55476 26.2105 8.39518C26.2926 7.92981 26.5447 7.43714 26.885 7.07728C27.1637 6.78244 27.46 6.62054 27.7138 6.62054C27.7469 6.62054 27.7792 6.62333 27.8107 6.62884C28.4064 6.73389 28.8772 7.88903 28.7102 8.83599C28.6821 8.9955 28.599 9.13747 28.4631 9.25787C28.0853 9.59275 28.0374 10.168 28.3543 10.5674C28.626 10.9101 28.7364 11.3208 28.6654 11.7239C28.6069 12.056 28.458 12.2371 28.1677 12.3296C27.8615 12.4271 27.4037 12.4233 26.8073 12.3181C26.211 12.213 25.7796 12.0601 25.5252 11.8636C25.2842 11.6774 25.2063 11.4562 25.2649 11.1243ZM2.94321 5.65698L13.5946 3.77881L15.6464 15.4151L12.3645 15.9937L11.8844 13.271C11.8541 13.0992 11.7515 12.9464 11.6028 12.8519C11.4661 12.7651 11.3022 12.7329 11.1411 12.7613L8.56551 13.2154C8.21614 13.277 7.98107 13.6059 8.04143 13.9485L8.52148 16.6713L4.9949 17.293L2.94321 5.65698ZM9.5025 16.4983L9.0858 14.1351L10.9668 13.8034L11.3835 16.1667L9.5025 16.4983ZM17.7307 16.0591L17.6594 16.2068C17.5561 16.4203 17.5806 16.6708 17.7232 16.8607L18.1321 17.4042L1.65971 20.3085V18.8925C2.33374 18.7736 17.0012 16.1878 17.7307 16.0591ZM22.1692 15.7482L22.9342 15.1267C24.0897 15.3305 29.1109 16.216 30.0786 16.3867V17.8028L23.4968 16.6415C23.4935 16.6409 23.4903 16.6409 23.487 16.6405L22.6757 16.4974L22.1692 15.7482Z" fill="url(#paint1_linear)"/>
<path d="M1.02823 16.9051C1.21702 16.9051 1.39758 16.7972 1.48132 16.6143L1.90546 15.6882C2.0896 15.2861 2.0046 14.8043 1.69402 14.4895L1.25674 14.0462C1.23482 14.024 1.22884 13.99 1.24186 13.9617L1.50111 13.3957C1.68532 12.9935 1.60039 12.5117 1.28967 12.1968L0.852586 11.7538C0.659344 11.5579 0.34398 11.5558 0.14828 11.749C-0.047552 11.9422 -0.0496771 12.2575 0.143499 12.4533L0.580652 12.8964C0.602566 12.9185 0.608543 12.9525 0.595527 12.9808L0.336277 13.5468C0.152132 13.949 0.236999 14.4307 0.547648 14.7456L0.984934 15.189C1.00685 15.2112 1.01276 15.2452 0.999809 15.2735L0.575672 16.1995C0.461121 16.4496 0.571023 16.7452 0.821109 16.8598C0.888379 16.8905 0.958836 16.9051 1.02823 16.9051Z" fill="url(#paint2_linear)"/>
<path d="M17.0458 6.61187C17.0677 6.63405 17.0736 6.66798 17.0607 6.69634L16.8015 7.26219C16.6173 7.66434 16.7021 8.14619 17.0128 8.46109L17.45 8.90442C17.5475 9.00323 17.676 9.0527 17.8046 9.0527C17.9309 9.0527 18.0573 9.00496 18.1543 8.90927C18.3501 8.71609 18.3523 8.40079 18.1592 8.20496L17.7219 7.76163C17.7 7.73945 17.694 7.70545 17.707 7.67709L17.9662 7.11125C18.1505 6.70902 18.0655 6.22718 17.7548 5.91228L17.3177 5.46921C17.2958 5.44703 17.2898 5.41303 17.3028 5.38468L17.7269 4.45891C17.8414 4.20882 17.7315 3.91325 17.4815 3.79869C17.2314 3.68408 16.9358 3.79398 16.8213 4.04407L16.3972 4.96977C16.2129 5.37193 16.2979 5.85377 16.6086 6.16874L17.0458 6.61187Z" fill="url(#paint3_linear)"/>
<defs>
<linearGradient id="paint0_linear" x1="9.00532" y1="6.51733" x2="9.00532" y2="11.2716" gradientUnits="userSpaceOnUse">
<stop stop-color="#0852E3"/>
<stop offset="1" stop-color="#B65DFC"/>
</linearGradient>
<linearGradient id="paint1_linear" x1="15.616" y1="0" x2="15.616" y2="34.0001" gradientUnits="userSpaceOnUse">
<stop stop-color="#0852E3"/>
<stop offset="1" stop-color="#B65DFC"/>
</linearGradient>
<linearGradient id="paint2_linear" x1="1.00089" y1="11.6055" x2="1.00089" y2="16.9051" gradientUnits="userSpaceOnUse">
<stop stop-color="#0852E3"/>
<stop offset="1" stop-color="#B65DFC"/>
</linearGradient>
<linearGradient id="paint3_linear" x1="17.3017" y1="3.7533" x2="17.3017" y2="9.0527" gradientUnits="userSpaceOnUse">
<stop stop-color="#0852E3"/>
<stop offset="1" stop-color="#B65DFC"/>
</linearGradient>
</defs>
</svg>
