<svg width="436" height="172" viewBox="0 0 436 172" fill="none" xmlns="http://www.w3.org/2000/svg">
<g clip-path="url(#clip0)">
<path d="M402.34 12.1356C402.082 15.2231 401.782 18.3535 401.525 21.441C401.396 22.9848 405.77 25.086 406.113 23.1992C406.585 20.4548 407.099 17.7103 407.571 14.9658C406.027 14.3655 404.526 13.7651 402.983 13.2077C403.026 16.3381 403.068 19.4685 403.111 22.5989C403.111 23.9282 407.228 26.2009 407.614 24.7001C408.514 21.1409 409.415 17.5817 410.272 14.0224C408.771 13.3363 407.271 12.6073 405.77 11.9212C405.899 16.2952 405.555 20.6263 404.698 24.9145C404.398 26.3725 408.857 28.3879 409.2 27.0157C410.487 21.9985 411.773 16.9384 413.059 11.9212C411.559 11.2351 410.058 10.5061 408.557 9.82C408.686 16.8098 407.657 23.7138 406.542 30.6178C406.327 32.0758 410.701 34.0912 411.044 32.719C412.631 26.1152 414.217 19.5113 415.804 12.9075C414.303 12.2214 412.802 11.4924 411.301 10.8063C411.816 14.4084 411.216 18.0105 410.701 21.5697C410.186 25.1289 409.629 28.731 409.115 32.2902C408.9 33.7053 413.188 35.8065 413.617 34.3914C415.761 27.0157 417.433 19.5113 418.634 11.9212C417.09 11.3209 415.589 10.7205 414.046 10.1631C414.26 17.6674 413.017 25.0431 411.687 32.4188C411.43 33.9197 415.889 36.0638 416.275 34.177C417.69 27.3159 419.063 20.4976 420.478 13.6365C418.934 13.0362 417.433 12.4358 415.89 11.8783C416.404 17.8818 415.847 23.8424 414.217 29.6315C415.675 30.4463 417.176 31.261 418.634 32.0329C420.049 26.1152 421.421 20.1546 422.836 14.2369C421.335 13.5507 419.834 12.8217 418.334 12.1356C418.848 16.5954 418.677 21.0551 417.862 25.4291C419.406 26.0294 420.906 26.6298 422.45 27.1872C423.05 23.0277 423.694 18.8681 424.294 14.7086C422.75 14.1082 421.249 13.5079 419.706 12.9504C419.62 17.2386 419.749 21.4839 420.049 25.7721C420.135 27.2301 424.165 29.5029 424.637 27.5303C425.366 24.3999 426.052 21.2695 426.781 18.1391C425.237 17.5388 423.736 16.9384 422.193 16.381C422.493 17.9676 422.836 19.5542 423.136 21.098C423.393 22.3416 426.609 24.743 427.639 23.1992C428.325 22.2129 428.539 21.1837 428.325 19.983C428.153 18.8681 426.952 18.1391 426.009 17.7532C425.58 17.5817 423.565 17.11 423.736 18.2249C423.908 19.2541 423.779 19.9402 423.179 20.7978C424.68 21.4839 426.181 22.2129 427.681 22.899C427.381 21.3124 427.038 19.7258 426.738 18.182C426.481 16.8527 422.622 14.3226 422.15 16.4238C421.421 19.5542 420.735 22.6846 420.006 25.815C421.55 26.4154 423.05 27.0157 424.594 27.5732C424.294 23.3279 424.165 19.0396 424.251 14.7514C424.294 13.2077 419.963 11.0636 419.663 12.9933C419.063 17.1528 418.419 21.3124 417.819 25.472C417.605 27.0157 422.021 29.1169 422.407 27.2301C423.265 22.8133 423.436 18.3964 422.879 13.9367C422.75 12.7789 418.762 10.2488 418.377 11.8355C416.961 17.7532 415.589 23.7138 414.174 29.6315C413.788 31.3468 418.205 33.4909 418.591 32.0329C420.306 26.0294 420.949 19.8544 420.435 13.6365C420.306 12.1785 416.275 9.86288 415.847 11.8783C414.432 18.7395 413.059 25.5577 411.644 32.4188C413.188 33.0192 414.689 33.6195 416.233 34.177C417.562 26.8013 418.805 19.4256 418.591 11.9212C418.548 10.4203 414.303 8.19048 414.003 10.1631C412.845 17.5388 411.216 24.8287 409.157 31.99C410.658 32.6761 412.159 33.4051 413.66 34.0912C414.174 30.532 414.732 26.9299 415.246 23.3707C415.761 19.7686 416.361 16.2094 415.847 12.6073C415.675 11.4924 411.73 8.87659 411.344 10.5061C409.758 17.11 408.171 23.7138 406.585 30.3176C408.085 31.0037 409.586 31.7327 411.087 32.4188C412.202 25.5148 413.231 18.6108 413.102 11.621C413.059 10.3346 408.986 8.01895 408.6 9.51983C407.314 14.537 406.027 19.5971 404.741 24.6143C406.242 25.3004 407.742 26.0294 409.243 26.7155C410.101 22.4273 410.487 18.0962 410.315 13.7223C410.272 12.4358 406.199 10.0773 405.813 11.621C404.912 15.1803 404.012 18.7395 403.154 22.2987C404.655 22.9848 406.156 23.7138 407.657 24.3999C407.614 21.2695 407.571 18.1391 407.528 15.0087C407.528 13.5079 403.283 11.3209 402.94 13.2506C402.468 15.995 401.954 18.7395 401.482 21.4839C403.026 22.0843 404.526 22.6846 406.07 23.2421C406.327 20.1546 406.628 17.0242 406.885 13.9367C407.056 12.3072 402.468 10.2917 402.34 12.1356Z" fill="#F25A29" fill-opacity="0.25"/>
<path d="M421.035 23.6709C419.405 25.2575 417.733 26.8013 416.104 28.3879C414.689 29.7173 418.848 32.3331 420.049 31.3039C421.121 30.4034 422.193 29.46 423.222 28.5595C421.807 27.6589 420.435 26.8013 419.02 25.9008C418.333 26.9299 417.476 27.6161 416.361 28.1306C417.776 29.0312 419.148 29.8888 420.563 30.7893C421.678 27.6161 422.836 24.4857 423.908 21.2695C424.723 18.911 425.366 16.381 423.865 14.194C420.82 9.77712 413.617 8.87659 408.728 8.83371C409.758 9.86288 410.83 10.892 411.859 11.8783C412.888 11.1065 414.431 10.2917 415.804 10.6348C417.133 10.9778 417.647 12.4787 417.819 13.6794C418.076 15.3518 422.621 17.0671 422.407 15.4375C421.507 9.091 413.231 4.88856 407.914 8.96236C406.327 10.1631 410.186 12.007 411.044 12.007C412.974 12.007 414.903 12.1785 416.79 12.6502C418.934 13.1648 420.52 13.5936 420.22 16.2523C419.963 18.2678 419.062 20.2403 418.376 22.1272C417.647 24.1855 416.918 26.2867 416.189 28.3451C415.589 30.0603 419.105 31.6041 420.392 31.0037C421.721 30.4034 422.707 29.5029 423.522 28.3022C424.422 26.9728 420.392 24.743 419.32 25.6435C418.248 26.544 417.176 27.4874 416.147 28.3879C417.476 29.3742 418.805 30.3176 420.092 31.3039C421.721 29.7173 423.393 28.1735 425.023 26.5869C426.438 25.2575 422.193 22.5989 421.035 23.6709Z" fill="#F25A29" fill-opacity="0.25"/>
<path d="M6.13177 149.444C35.3328 151.417 64.4481 143.698 93.5633 147.943C93.0916 146.657 92.6628 145.37 92.1912 144.084C63.5905 149.616 34.3037 151.417 5.2313 149.272C1.92957 149.015 3.60188 152.917 6.04601 153.132C18.9957 154.247 31.4736 150.602 44.0802 148.415C50.5122 147.3 56.9441 146.742 63.4618 147.257C70.1939 147.772 76.9689 148.715 83.6581 147.471C83.0149 146.185 82.3717 144.899 81.6857 143.612C68.5645 146.314 55.1861 147.814 41.7647 148.072C29.544 148.286 16.5944 146.485 5.05978 151.588C4.07355 152.017 4.03067 153.046 4.54523 153.861C5.18842 154.89 6.34617 155.319 7.50392 155.319C36.8336 155.319 65.9488 147.471 95.2785 151.031C94.8068 149.744 94.378 148.458 93.9064 147.171C71.7805 149.573 49.6117 150.988 27.3572 151.459C28.0004 152.746 28.6436 154.032 29.3296 155.319C51.2411 153.818 73.1955 154.29 95.1499 154.847C98.4516 154.933 96.7793 151.159 94.3352 150.988C63.762 148.972 33.2317 160.679 2.83004 154.333C3.30172 155.619 3.73051 156.906 4.20219 158.192C34.6467 156.219 65.0913 155.147 95.5787 155.019C94.9355 153.732 94.2923 152.446 93.6062 151.159C80.0562 153.561 66.3348 154.89 52.5704 155.147C53.2136 156.434 53.8568 157.72 54.5429 159.007C68.6931 156.691 83.0578 156.005 97.3796 156.991C100.681 157.206 99.0519 153.303 96.5649 153.132C81.8572 152.146 67.1066 152.789 52.5704 155.147C51.4555 155.319 50.8981 156.262 51.4127 157.291C51.9272 158.449 53.3422 159.007 54.5429 159.007C68.3072 158.792 82.0287 157.463 95.5787 155.019C96.6935 154.804 97.251 153.947 96.7364 152.875C96.179 151.674 94.8068 151.159 93.6062 151.159C63.1188 151.288 32.6314 152.36 2.22973 154.333C1.15774 154.418 0.686061 155.276 0.943339 156.262C1.28638 157.42 2.52988 157.978 3.60188 158.235C34.1322 164.581 64.4909 152.832 95.107 154.89C94.8497 153.604 94.5924 152.317 94.2923 151.031C72.0806 150.387 49.7403 149.83 27.4429 151.374C26.2852 151.459 25.8135 152.532 26.2852 153.518C26.7998 154.676 28.2148 155.233 29.4154 155.233C51.6271 154.761 73.8387 153.346 95.9646 150.945C98.9662 150.602 96.3505 147.3 94.5924 147.086C64.834 143.526 35.3757 151.374 5.6601 151.374C6.47481 152.617 7.28952 153.861 8.14712 155.104C19.5102 150.087 32.5456 152.103 44.5948 151.845C57.7588 151.545 70.8371 150.044 83.7439 147.386C86.7883 146.742 84.0012 143.097 81.7714 143.526C75.168 144.77 68.6074 143.741 61.961 143.269C55.5291 142.84 49.2258 143.312 42.8796 144.384C30.4445 146.485 18.0094 150.345 5.27418 149.23C5.53146 150.516 5.78874 151.803 6.08889 153.089C35.5472 155.276 65.2199 153.561 94.2065 147.943C97.1652 147.386 94.6353 144.341 92.8344 144.084C63.7191 139.838 34.6038 147.514 5.40282 145.585C2.01533 145.37 3.64475 149.272 6.13177 149.444Z" fill="#F25A29" fill-opacity="0.25"/>
<path d="M162.899 153.046C192.872 151.888 222.802 150.73 252.775 149.53C252.132 148.243 251.446 146.957 250.803 145.67C221.13 149.015 191.286 151.159 161.442 152.103C158.74 152.188 160.755 155.362 162.213 155.791C169.031 157.806 176.106 156.562 183.053 155.962C190.342 155.319 197.632 154.847 204.964 154.547C219.929 153.947 234.894 154.118 249.859 155.019C249.388 153.732 248.916 152.446 248.487 151.202C219.243 152.96 189.999 154.761 160.755 156.52C161.399 157.806 162.085 159.092 162.728 160.379C191.843 156.991 221.216 153.561 250.545 155.833C250.074 154.547 249.602 153.261 249.173 152.017C222.373 155.276 195.531 157.806 168.602 159.564C169.246 160.851 169.932 162.137 170.575 163.424C197.803 158.535 225.461 156.219 253.118 156.648C256.42 156.691 254.748 152.875 252.303 152.832C224.26 152.36 196.217 154.59 168.602 159.564C165.472 160.122 168.474 163.552 170.575 163.424C197.503 161.665 224.389 159.135 251.146 155.876C254.062 155.533 251.575 152.188 249.774 152.06C220.015 149.744 190.3 153.132 160.798 156.562C159.641 156.691 159.169 157.677 159.641 158.707C160.155 159.821 161.613 160.508 162.771 160.422C192.015 158.664 221.259 156.863 250.503 155.104C253.418 154.933 250.974 151.374 249.13 151.288C234.594 150.43 220.015 150.216 205.436 150.73C198.104 150.988 190.814 151.417 183.525 152.017C176.792 152.574 169.331 154.29 162.728 152.317C162.985 153.561 163.242 154.761 163.5 156.005C193.344 155.062 223.188 152.917 252.861 149.573C254.019 149.444 254.49 148.458 254.019 147.429C253.504 146.271 252.089 145.67 250.888 145.713C220.916 146.871 190.986 148.029 161.013 149.23C159.855 149.272 159.426 150.387 159.855 151.374C160.327 152.489 161.742 153.089 162.899 153.046Z" fill="#F25A29" fill-opacity="0.25"/>
<path d="M330.216 151.074C356.501 150.816 382.743 150.902 409.028 151.374C410.058 151.374 410.529 150.43 410.229 149.573C409.886 148.586 408.6 147.686 407.571 147.643C381.328 146.271 355.043 147.471 328.801 148.758C327.772 148.801 327.3 149.616 327.6 150.559C327.943 151.631 329.23 152.317 330.259 152.489C343.165 154.504 356.201 152.703 369.15 152.66C382.272 152.66 395.393 154.161 408.171 157.034C407.871 155.791 407.571 154.547 407.313 153.346C380.171 152.146 353.028 153.089 325.885 154.118C326.571 155.362 327.214 156.605 327.9 157.849C354.957 156.391 382.014 155.662 409.071 155.662C408.385 154.418 407.742 153.175 407.056 151.931C407.956 152.574 408.171 152.532 407.699 151.76C407.613 151.374 407.485 151.031 407.399 150.645C407.228 150.13 407.013 149.616 406.756 149.144C406.07 147.9 404.869 147 403.583 146.485C400.624 145.327 396.936 145.713 393.806 145.585C386.56 145.284 379.27 144.984 372.023 144.684C364.777 144.384 357.487 144.084 350.241 143.784C343.337 143.483 336.262 142.84 329.401 144.212C328.329 144.427 327.772 145.156 328.286 146.228C328.844 147.386 330.216 147.943 331.416 147.943C356.372 148.2 381.243 142.454 406.241 145.113C405.77 143.869 405.255 142.626 404.783 141.382C399.466 142.197 394.149 142.583 388.789 142.626C387.632 142.626 387.246 143.741 387.674 144.641C388.232 145.799 389.604 146.357 390.805 146.357C396.894 146.442 402.982 146.528 409.071 146.614C408.214 145.413 407.399 144.17 406.541 142.969C403.626 143.912 400.753 144.856 397.837 145.756C395.307 146.571 398.652 149.144 399.809 149.401C403.197 150.044 406.627 150.688 410.015 151.331C409.372 150.13 408.728 148.929 408.042 147.686C406.327 148.286 404.569 148.887 402.854 149.487C401.096 150.087 402.511 152.188 403.583 152.703C405.341 153.561 407.099 154.375 408.857 155.233C408.471 154.247 408.085 153.261 407.699 152.231C407.013 152.66 406.284 153.089 405.598 153.475C403.711 154.59 407.056 156.691 407.956 156.863C408.728 157.034 409.543 157.163 410.315 157.334C411.344 157.549 412.373 156.906 412.202 155.791C411.987 154.547 410.529 153.818 409.457 153.604C408.685 153.432 407.871 153.303 407.099 153.132C407.871 154.247 408.685 155.405 409.457 156.52C410.143 156.091 410.872 155.662 411.558 155.276C412.888 154.504 411.172 152.617 410.401 152.274C408.643 151.417 406.884 150.602 405.126 149.744C405.384 150.816 405.598 151.888 405.855 152.96C407.571 152.36 409.329 151.76 411.044 151.159C413.531 150.302 410.272 147.772 409.071 147.514C405.684 146.871 402.254 146.228 398.866 145.585C399.509 146.785 400.152 147.986 400.838 149.23C403.754 148.286 406.627 147.343 409.543 146.442C410.572 146.099 410.486 144.984 409.972 144.255C409.329 143.269 408.171 142.797 407.013 142.797C400.924 142.712 394.835 142.626 388.746 142.54C389.432 143.784 390.076 145.027 390.762 146.271C396.122 146.228 401.482 145.842 406.756 145.027C409.672 144.598 407.056 141.468 405.298 141.296C379.913 138.595 354.7 144.341 329.358 144.084C330.044 145.327 330.687 146.571 331.373 147.815C338.106 146.442 345.052 147.086 351.87 147.386C359.117 147.686 366.406 147.986 373.653 148.286C380.771 148.586 387.932 148.887 395.05 149.187C396.765 149.273 398.48 149.315 400.195 149.401C400.624 149.401 402.339 149.273 402.682 149.616C402.897 149.83 402.982 150.731 403.068 151.031C403.926 153.689 406.113 155.876 409.071 155.619C410.186 155.49 410.658 154.59 410.186 153.604C409.629 152.489 408.257 151.888 407.056 151.888C379.999 151.888 352.899 152.66 325.885 154.075C324.727 154.118 324.298 155.147 324.77 156.134C325.285 157.249 326.743 157.892 327.9 157.849C354.657 156.863 381.414 155.876 408.171 157.077C409.2 157.12 410.272 156.777 410.058 155.533C409.843 154.29 408.385 153.604 407.313 153.346C394.621 150.473 381.671 149.015 368.679 148.929C355.6 148.844 342.436 150.859 329.401 148.801C329.873 150.044 330.387 151.288 330.859 152.532C356.715 151.288 382.615 150.002 408.471 151.374C407.999 150.13 407.485 148.887 407.013 147.643C380.728 147.171 354.486 147.086 328.2 147.343C327.043 147.343 326.657 148.458 327.086 149.358C327.643 150.473 329.058 151.074 330.216 151.074Z" fill="#F25A29" fill-opacity="0.25"/>
<path d="M172.419 74.3146C173.362 78.0025 174.691 81.2615 177.35 84.0918C182.281 89.452 189.528 92.5395 196.303 94.8123C204.664 97.6425 213.883 99.3578 222.631 97.1279C229.749 95.3269 236.524 90.9958 240.04 84.4348C244.199 76.716 243.17 66.7674 240.983 58.6198C238.754 50.2149 233.522 43.6968 226.276 39.0227C219.329 34.6058 210.882 30.918 202.52 31.0038C195.231 31.0895 188.027 33.9197 182.538 38.7654C178.079 42.7534 175.335 47.642 173.92 53.3882C172.247 60.1636 170.747 67.5393 172.419 74.3146C172.762 75.7726 177.35 77.5308 176.793 75.3438C175.463 69.8978 176.621 63.7657 177.736 58.4054C178.551 54.5031 179.494 50.901 181.595 47.5134C185.068 41.9387 190.643 37.6934 196.86 35.635C203.935 33.2765 211.01 34.2628 217.743 37.2217C224.732 40.2663 231.207 44.7689 234.466 51.8444C237.682 58.8342 239.011 67.8394 237.724 75.4296C236.524 82.5909 231.807 88.2942 225.461 91.639C218.429 95.3269 210.282 95.627 202.606 93.9546C197.975 92.9683 193.387 91.4246 189.099 89.4091C186.312 88.1227 183.568 86.5789 181.381 84.4348C178.765 81.9048 177.607 78.7744 176.75 75.3009C176.45 73.9287 171.861 72.1705 172.419 74.3146Z" fill="#0852E3"/>
<path d="M209.553 81.5188C215.213 82.1192 220.916 78.6028 222.074 72.8566C222.374 71.27 217.828 69.4261 217.657 70.4552C216.714 75.258 212.125 79.1603 207.109 78.6457C206.079 78.5171 205.951 79.0745 206.465 79.8464C206.98 80.6612 208.524 81.3902 209.553 81.5188Z" fill="#0852E3"/>
<path d="M192.658 56.0898C192.658 56.9474 192.658 57.805 192.658 58.6627C192.658 58.9628 193.259 59.4774 193.473 59.6061C193.945 59.992 194.545 60.378 195.145 60.5924C195.531 60.7639 197.161 61.45 197.161 60.5924C197.161 59.7347 197.161 58.8771 197.161 58.0194C197.161 57.7193 196.56 57.2047 196.346 57.076C195.874 56.6901 195.274 56.3042 194.674 56.0898C194.245 55.9611 192.658 55.2321 192.658 56.0898Z" fill="#0852E3"/>
<path d="M216.842 55.1463C216.842 55.7038 216.842 56.2184 216.842 56.7759C216.842 57.1189 217.4 57.5906 217.614 57.805C218.086 58.191 218.686 58.5769 219.286 58.8342C219.715 59.0057 221.345 59.649 221.345 58.7484C221.345 58.191 221.345 57.6764 221.345 57.1189C221.345 56.7759 220.787 56.3042 220.573 56.0898C220.101 55.7038 219.501 55.3179 218.9 55.0606C218.472 54.889 216.842 54.2458 216.842 55.1463Z" fill="#0852E3"/>
<path d="M203.893 97.9426C203.592 105.962 203.078 113.938 202.349 121.914C202.22 123.372 206.723 125.43 206.894 123.715C207.623 115.739 208.181 107.763 208.438 99.7437C208.481 98.2857 203.935 96.3131 203.893 97.9426Z" fill="#0852E3"/>
<path d="M24.9989 51.5871C28.9867 41.467 39.2778 34.177 50.255 34.1341C56.687 34.0912 63.0331 36.7928 68.4789 40.009C74.0532 43.268 78.4269 47.6849 80.8282 53.7312C83.2723 59.8205 84.2586 67.1962 83.5296 73.7143C82.8435 79.8464 79.842 85.0352 74.9108 88.723C64.1051 96.8277 49.2688 94.6407 37.6484 89.5807C33.4462 87.7367 29.2869 85.1209 27.4859 80.7041C26.4139 78.0883 26.3711 75.2152 25.4277 72.5565C24.6559 70.3695 20.0678 70.1122 21.0969 73.0711C21.3541 73.7572 21.6114 75.5153 21.8258 76.5874C22.126 78.2169 22.5548 79.8464 23.198 81.3902C25.0847 85.8499 28.9438 89.0661 33.1032 91.3388C39.7066 94.9409 47.5965 97.2565 55.0575 97.8998C62.1327 98.543 69.3793 97.471 75.5969 93.9117C81.1283 90.7385 85.4592 85.9357 87.303 79.7607C89.447 72.6851 88.5036 64.2802 86.5312 57.2476C84.5158 50.1291 80.528 44.1256 74.5249 39.7517C68.7361 35.4635 61.7468 32.1616 54.6716 30.7893C40.8644 28.002 25.8136 35.8923 20.5823 49.1429C19.6818 51.4156 24.1413 53.7312 24.9989 51.5871Z" fill="#0852E3"/>
<path d="M38.2915 55.6609C38.2915 56.5186 38.2915 57.3762 38.2915 58.2338C38.2915 58.6198 38.8061 59.0915 39.0205 59.3059C39.4921 59.7347 40.0924 60.0778 40.6928 60.3351C41.1644 60.5066 42.7939 61.1069 42.7939 60.1207C42.7939 59.263 42.7939 58.4054 42.7939 57.5477C42.7939 57.1618 42.2793 56.6901 42.0649 56.4757C41.5932 56.0469 40.9929 55.7038 40.3926 55.4465C39.9209 55.275 38.2915 54.6746 38.2915 55.6609Z" fill="#0852E3"/>
<path d="M62.4326 54.7175C62.4326 55.275 62.4326 55.7896 62.4326 56.347C62.4326 56.7759 62.8185 57.2476 63.1187 57.5477C63.5475 57.9766 64.1907 58.3625 64.7481 58.5769C65.3055 58.7913 67.0207 59.2202 67.0207 58.1481C67.0207 57.5906 67.0207 57.076 67.0207 56.5186C67.0207 56.0898 66.6348 55.6181 66.3347 55.3179C65.9059 54.8891 65.2627 54.5031 64.7052 54.2887C64.1478 54.0743 62.4326 53.6455 62.4326 54.7175Z" fill="#0852E3"/>
<path d="M49.4404 97.5996C49.1403 105.619 48.6257 113.595 47.8967 121.571C47.6823 123.801 52.3991 125.602 52.6135 123.072C53.3425 115.095 53.8999 107.119 54.1572 99.1005C54.2429 96.8706 49.5262 95.1124 49.4404 97.5996Z" fill="#0852E3"/>
<path d="M47.4247 102.317C41.6789 103.389 35.59 103.217 30.1443 100.944C24.9987 98.8003 20.968 94.5978 18.6954 89.5378C14.2788 79.7178 18.2666 67.4535 28.3004 62.9938C29.4153 62.5221 25.6419 59.6061 24.2697 60.2064C18.6954 62.6936 14.579 67.7537 13.0353 73.5856C11.4487 79.5034 12.6494 85.7641 15.8225 90.9529C22.9405 102.66 37.6482 107.677 50.7694 105.19C52.6132 104.932 48.754 102.102 47.4247 102.317Z" fill="#0852E3"/>
<path d="M53.7707 105.447C62.3896 108.063 67.3636 116.082 71.866 123.329C72.5091 124.358 73.7527 125.173 74.9962 125.044C76.0253 124.915 76.7542 123.929 76.1539 122.943C70.7082 114.152 64.5764 105.104 54.1567 101.931C50.9407 100.987 51.1551 104.675 53.7707 105.447Z" fill="#0852E3"/>
<path d="M17.7091 36.2353C16.8515 33.6624 15.5223 31.3468 13.8071 29.2456C13.1639 28.4308 11.5773 27.7018 10.5482 28.0449C9.39049 28.4308 9.86216 29.5029 10.4196 30.189C11.706 31.7327 12.6065 33.5338 13.2497 35.4206C13.6356 36.5355 14.922 37.3074 16.0368 37.5218C16.8087 37.6505 18.0522 37.3503 17.7091 36.2353Z" fill="#0852E3"/>
<path d="M9.81927 44.1257C6.98922 43.268 4.11628 42.7534 1.15759 42.539C0.0856002 42.4533 -0.257437 43.3967 0.257119 44.2114C0.857433 45.2406 2.22958 45.8409 3.38733 45.9267C5.53131 46.0982 7.67529 46.4413 9.73352 47.0845C10.4625 47.2989 11.9633 47.5991 12.0919 46.4842C12.2205 45.4121 10.634 44.3829 9.81927 44.1257Z" fill="#0852E3"/>
<path d="M8.66173 54.9748C5.96031 55.4465 3.34466 56.1326 0.81476 57.1618C-1.67226 58.191 1.97251 61.45 3.85921 60.6781C6.04607 59.7776 8.36157 59.0915 10.6771 58.7056C13.7215 58.191 10.72 54.6318 8.66173 54.9748Z" fill="#0852E3"/>
<path d="M46.6958 79.1603C47.5963 76.2014 49.7403 73.6285 52.7419 72.6851C55.7863 71.6988 58.6164 72.8566 59.8599 75.8155C60.2887 76.8447 61.6179 77.6166 62.6899 77.831C63.376 77.9596 64.7481 77.9167 64.2765 76.8018C62.3898 72.3421 57.5015 69.2545 52.699 69.1259C47.9393 68.9973 43.6085 72.2134 42.2363 76.7589C41.7218 78.4742 46.267 80.6183 46.6958 79.1603Z" fill="#0852E3"/>
<path d="M329.916 73.6714C330.859 77.2735 332.103 80.4896 334.633 83.277C339.435 88.5944 346.553 91.7247 353.157 94.0833C361.475 97.0421 370.609 98.886 379.399 97.0421C386.56 95.5412 393.549 91.253 397.28 84.7778C401.653 77.1877 400.71 67.0676 398.566 58.92C396.379 50.6008 391.319 44.2114 384.159 39.5373C377.298 35.0347 368.936 31.3039 360.618 31.0466C353.371 30.8322 346.253 33.5338 340.679 38.1222C335.962 42.0244 332.96 47.0416 331.502 52.8736C329.873 59.4345 328.286 66.9818 329.916 73.6714C330.13 74.6148 331.545 75.3009 332.36 75.644C332.617 75.7726 334.59 76.4587 334.375 75.6011C333.046 70.0693 334.032 64.0229 335.19 58.534C336.005 54.7604 336.819 51.1154 338.835 47.7706C342.222 42.1531 347.582 37.822 353.757 35.5921C360.789 33.0192 367.993 33.5338 374.854 36.4069C381.929 39.3657 388.404 43.7826 391.834 50.8581C393.592 54.4602 394.535 58.3625 395.136 62.3076C395.736 66.4672 396.079 70.7554 395.393 74.915C394.235 82.0334 389.776 87.7796 383.515 91.253C376.612 95.0695 368.636 95.627 360.961 94.2119C356.201 93.3114 351.527 91.7676 347.111 89.795C344.281 88.5515 341.45 87.0077 339.221 84.8636C336.476 82.2907 335.276 79.1174 334.375 75.5582C334.118 74.6148 332.746 73.9287 331.931 73.5856C331.674 73.5428 329.659 72.8138 329.916 73.6714Z" fill="#0852E3"/>
<path d="M350.112 55.9611C350.112 56.8187 350.112 57.6764 350.112 58.534C350.112 60.1207 354.658 62.0504 354.658 60.3351C354.658 59.4774 354.658 58.6198 354.658 57.7622C354.7 56.1755 350.112 54.2887 350.112 55.9611Z" fill="#0852E3"/>
<path d="M374.382 54.889C374.382 55.4465 374.382 55.9611 374.382 56.5186C374.382 56.8187 375.068 57.2904 375.197 57.4191C375.711 57.805 376.311 58.1481 376.869 58.4054C377.298 58.6198 377.855 58.8771 378.327 58.8771C378.584 58.8771 378.798 58.8771 378.798 58.534C378.798 57.9766 378.798 57.462 378.798 56.9045C378.798 56.6043 378.112 56.1326 377.984 56.004C377.469 55.618 376.869 55.275 376.311 55.0177C375.883 54.8033 375.325 54.546 374.854 54.546C374.596 54.546 374.382 54.5889 374.382 54.889Z" fill="#0852E3"/>
<path d="M361.39 97.7283C361.089 105.747 360.575 113.723 359.846 121.699C359.717 123.114 364.22 125.173 364.391 123.543C365.12 115.567 365.678 107.591 365.935 99.5722C365.978 98.1571 361.475 96.1845 361.39 97.7283Z" fill="#0852E3"/>
<path d="M347.539 74.529C350.455 81.3044 357.959 83.5343 364.691 84.2633C368.036 84.6063 371.681 85.1209 374.982 83.9631C378.241 82.8482 380.171 79.9751 381.929 77.1448C383.172 75.0865 378.756 72.6422 377.512 74.7435C376.269 76.7589 374.94 79.0317 372.667 80.0608C370.223 81.1329 367.264 80.6612 364.691 80.4039C359.846 79.9322 354.1 79.0317 351.913 74.0573C350.97 71.8703 346.296 71.6988 347.539 74.529Z" fill="#0852E3"/>
<path d="M366.664 110.421C377.984 111.15 389.862 109.692 399.553 103.389C403.798 100.644 407.528 97.0422 410.187 92.7111C413.231 87.7367 414.689 82.0334 416.147 76.4159C416.49 75.0436 411.945 73.114 411.73 74.0145C410.358 79.3747 408.943 84.8636 406.113 89.7093C403.54 94.1691 399.81 97.8998 395.522 100.687C386.003 106.905 374.425 108.363 363.276 107.634C362.119 107.548 363.234 108.792 363.534 109.049C364.305 109.778 365.506 110.378 366.664 110.421Z" fill="#0852E3"/>
<path d="M413.017 71.3129C413.66 71.3558 413.574 71.999 413.488 71.27C413.445 70.8412 413.059 70.3266 412.888 69.9407C412.416 68.8686 412.073 67.7537 412.03 66.553C412.03 65.5667 412.845 62.6078 414.432 63.1224C415.375 63.4226 415.847 65.438 415.932 66.2528C416.061 67.5821 415.804 69.1688 414.474 69.7262C411.816 70.8412 415.246 74.3575 417.39 73.457C424.337 70.4981 419.62 59.0486 413.059 59.0486C409.243 59.0486 407.013 62.6936 407.314 66.2099C407.571 69.6405 409.629 75.1723 413.745 75.3438C417.004 75.4724 415.589 71.4415 413.017 71.3129Z" fill="#0852E3"/>
<path d="M357.445 107.034C338.535 109.135 327.086 91.5961 321.34 76.1157C320.868 74.8721 316.366 73.1139 317.052 74.915C320.568 84.4348 325.542 93.6544 333.303 100.387C340.807 106.862 350.798 111.107 360.789 109.993C361.904 109.864 361.089 108.792 360.66 108.363C359.889 107.677 358.517 106.905 357.445 107.034Z" fill="#0852E3"/>
<path d="M317.309 77.4879C320.954 77.445 323.913 74.4862 322.583 70.7554C321.254 67.0247 316.58 65.095 312.893 66.1242C309.462 67.0676 306.761 70.4981 308.004 74.1002C309.419 78.0882 314.179 79.2889 317.952 79.1603C318.981 79.1174 319.367 78.4313 318.853 77.5308C318.295 76.5874 316.795 75.7726 315.723 75.8155C314.05 75.8584 312.378 76.1157 312.292 74.0145C312.206 72.2992 313.364 70.7983 314.779 69.9407C316.366 68.9973 318.424 68.5684 318.295 71.0127C318.21 72.728 316.752 74.1002 315.037 74.1431C313.965 74.1431 313.621 74.8721 314.136 75.7726C314.736 76.716 316.194 77.4879 317.309 77.4879Z" fill="#0852E3"/>
<path d="M10.3342 145.585C11.0202 151.76 11.106 157.978 10.5486 164.153C11.4062 164.153 12.2209 164.153 13.0785 164.153C13.0785 163.981 13.0356 163.81 13.0356 163.638C12.9069 162.051 10.3771 162.008 10.5057 163.638C10.5057 163.81 10.5486 163.981 10.5486 164.153C10.6772 165.782 12.9069 165.782 13.0785 164.153C13.6359 157.978 13.593 151.76 12.8641 145.585C12.6497 143.955 10.1198 143.955 10.3342 145.585Z" fill="#0852E3"/>
<path d="M9.86208 147.815C12.0489 146.228 16.0367 146.314 17.023 149.315C17.4089 150.516 17.1087 151.974 16.3369 153.003C15.0934 154.547 13.1638 154.29 11.4057 153.99C9.8192 153.732 9.13313 156.134 10.7197 156.434C13.2496 156.863 15.8652 157.077 17.8377 155.104C19.3814 153.561 20.0246 151.159 19.5529 149.058C18.4809 144.255 12.2633 143.012 8.61857 145.628C7.24643 146.571 8.53282 148.758 9.86208 147.815Z" fill="#0852E3"/>
<path d="M20.1107 147.343C22.5119 149.916 23.8412 153.089 23.9698 156.605C24.7417 156.391 25.5564 156.177 26.3282 155.962C25.342 154.461 25.7279 152.703 26.3282 151.074C26.5855 150.302 26.9285 149.444 27.5288 148.887C28.1291 148.286 29.6728 147.729 30.0587 148.972C30.5304 150.516 32.9745 149.873 32.5029 148.286C31.5595 145.113 27.5717 145.07 25.5993 147.3C23.4124 149.744 22.2975 154.375 24.1842 157.249C24.8274 158.235 26.5855 157.935 26.5426 156.605C26.414 152.446 24.8274 148.629 21.9545 145.585C20.7539 144.341 18.9958 146.142 20.1107 147.343Z" fill="#0852E3"/>
<path d="M39.3636 147.257C38.4202 144.212 34.7326 145.242 33.6177 147.557C32.5028 149.873 31.731 153.861 34.218 155.619C36.7479 157.377 40.1354 155.662 41.2932 153.089C42.3652 150.645 41.8077 147.6 39.7495 145.885C38.506 144.856 36.705 146.614 37.9486 147.686C39.7066 149.144 39.921 152.489 37.5626 153.604C35.7617 154.461 34.9041 152.96 35.1185 151.331C35.2043 150.688 35.3758 150.001 35.5902 149.401C35.6331 149.315 36.6622 147.3 36.9194 147.986C37.434 149.487 39.8781 148.844 39.3636 147.257Z" fill="#0852E3"/>
<path d="M42.5365 137.994C43.0082 143.441 43.78 148.844 44.8949 154.161C45.195 155.533 47.5105 155.233 47.3819 153.818C47.2532 152.188 46.9102 149.83 48.2395 148.543C49.2686 147.557 51.0695 147.6 52.0986 148.543C53.2564 149.616 53.1278 151.631 52.0986 152.746C50.7265 154.247 48.4968 153.861 47.0388 152.746C45.7525 151.76 44.4661 153.947 45.7525 154.933C48.0251 156.648 51.5412 156.777 53.6852 154.719C55.6148 152.832 56.0007 149.573 54.3713 147.386C52.9134 145.413 50.0404 144.813 47.8536 145.799C44.7233 147.214 44.5518 150.859 44.8091 153.861C45.6238 153.732 46.4814 153.646 47.2961 153.518C46.2241 148.372 45.4952 143.226 45.0235 137.994C44.9377 136.408 42.4078 136.408 42.5365 137.994Z" fill="#0852E3"/>
<path d="M57.0729 139.024C57.2873 144.384 57.5017 149.744 57.6732 155.104C57.7161 156.734 60.246 156.734 60.2031 155.104C59.9887 149.744 59.7743 144.384 59.6028 139.024C59.5171 137.394 56.9872 137.394 57.0729 139.024Z" fill="#0852E3"/>
<path d="M65.3914 149.959C67.0208 150.688 69.0362 150.945 70.5369 149.658C71.6518 148.672 72.0806 146.957 71.3945 145.585C69.5936 141.897 64.8339 145.027 63.7191 147.557C62.3898 150.516 63.2903 154.29 66.249 155.876C69.2934 157.506 73.1955 156.477 75.1251 153.646C76.0255 152.317 73.8387 151.031 72.9382 152.36C71.1801 154.933 66.5063 154.633 65.7344 151.374C65.3914 150.001 65.7773 148.415 66.7635 147.386C67.2352 146.871 68.7789 145.842 69.1648 146.914C69.6365 148.286 67.1923 147.943 66.6349 147.729C65.2199 147.128 63.9335 149.315 65.3914 149.959Z" fill="#0852E3"/>
<path d="M80.6139 154.633C79.4562 151.803 79.5419 148.929 80.9998 146.228C80.2709 146.228 79.5419 146.228 78.813 146.228C80.1423 148.372 83.1867 155.619 86.274 151.459C86.8315 150.688 89.5329 146.228 90.905 147.3C91.634 147.857 91.8484 150.602 91.977 151.459C92.1486 152.832 92.1914 154.204 92.1057 155.576C92.0199 157.206 94.5498 157.206 94.6356 155.576C94.8071 153.003 94.7213 143.441 90.1332 144.513C88.2894 144.941 86.5313 146.785 85.4165 148.2C85.0734 148.629 84.7733 149.315 84.3873 149.701C84.3873 149.873 84.3445 150.001 84.3445 150.173C84.0872 149.744 83.787 149.315 83.5297 148.844C82.715 147.514 81.8574 146.228 81.0427 144.899C80.5711 144.127 79.3275 144.041 78.8559 144.899C77.1407 148.158 76.8405 151.845 78.2127 155.276C78.813 156.82 81.2571 156.176 80.6139 154.633Z" fill="#0852E3"/>
<path d="M168.217 140.696C168.174 140.653 168.131 140.653 168.088 140.61C168.303 141.082 168.474 141.554 168.688 142.025C168.56 142.154 168.474 142.326 168.345 142.454C167.831 142.368 167.316 142.326 166.802 142.24C167.016 142.454 167.016 144.127 167.016 144.341C167.102 145.113 167.145 145.928 167.188 146.7C167.273 148.158 167.359 149.573 167.402 151.031C167.488 154.032 167.488 157.077 167.359 160.079C167.316 161.708 169.846 161.708 169.889 160.079C170.018 156.391 170.018 152.746 169.846 149.058C169.76 147.214 169.632 145.413 169.46 143.569C169.375 142.454 169.46 141.254 168.56 140.439C168.131 140.053 167.574 139.967 167.016 140.224C166.545 140.482 166.287 140.782 166.201 141.296C166.116 141.811 166.244 142.454 166.802 142.712C166.845 142.754 166.888 142.754 166.93 142.797C168.388 143.612 169.675 141.468 168.217 140.696Z" fill="#0852E3"/>
<path d="M164.1 148.844C166.973 148.458 169.846 148.072 172.719 147.686C174.305 147.471 174.305 144.941 172.719 145.156C169.846 145.542 166.973 145.928 164.1 146.314C162.514 146.528 162.471 149.058 164.1 148.844Z" fill="#0852E3"/>
<path d="M175.464 141.425C176.664 147.043 177.307 152.703 177.307 158.449C178.165 158.449 178.98 158.449 179.837 158.449C179.623 156.863 180.009 147.643 183.439 150.645C185.583 152.532 184.34 156.863 184.983 159.393C185.369 160.979 187.813 160.293 187.427 158.707C186.569 155.233 188.242 147.986 182.582 147.557C177.436 147.171 176.921 155.019 177.307 158.449C177.479 159.993 179.837 160.122 179.837 158.449C179.794 152.489 179.151 146.571 177.865 140.739C177.565 139.195 175.121 139.838 175.464 141.425Z" fill="#0852E3"/>
<path d="M190 149.058C190.171 152.231 190.386 155.405 190.557 158.578C190.643 160.207 193.173 160.207 193.087 158.578C192.915 155.405 192.701 152.231 192.53 149.058C192.444 147.471 189.914 147.429 190 149.058Z" fill="#0852E3"/>
<path d="M190.214 143.784C191.844 143.784 191.844 141.254 190.214 141.254C188.585 141.296 188.585 143.784 190.214 143.784Z" fill="#0852E3"/>
<path d="M195.831 149.658C196.946 152.146 197.546 154.719 197.589 157.463C198.447 157.463 199.262 157.463 200.119 157.463C199.948 155.919 200.033 154.418 200.505 152.917C200.719 152.231 201.02 151.588 201.363 150.945C201.577 150.602 201.791 150.259 202.049 149.916C202.349 149.23 202.52 149.144 202.692 149.701C203.507 150.302 203.85 153.218 204.064 154.204C204.45 156.005 204.664 157.806 204.75 159.607C204.836 161.237 207.366 161.237 207.28 159.607C207.151 156.82 206.723 154.075 205.994 151.417C205.522 149.701 204.879 146.871 202.606 146.785C200.719 146.742 199.519 149.015 198.79 150.473C197.761 152.66 197.375 155.019 197.632 157.42C197.804 159.007 200.205 159.093 200.162 157.42C200.076 154.247 199.347 151.245 198.061 148.329C197.332 146.914 195.145 148.2 195.831 149.658Z" fill="#0852E3"/>
<path d="M208.352 140.353C209.381 146.742 209.81 153.175 209.767 159.607C209.767 161.237 212.254 161.237 212.297 159.607C212.383 152.917 211.868 146.271 210.796 139.667C210.496 138.08 208.095 138.766 208.352 140.353Z" fill="#0852E3"/>
<path d="M217.014 148.158C214.441 149.487 211.868 150.816 209.296 152.146C208.438 152.574 208.524 153.861 209.296 154.333C212.211 156.048 215.17 157.763 218.086 159.478C219.501 160.293 220.744 158.106 219.372 157.291C216.456 155.576 213.498 153.861 210.582 152.146C210.582 152.875 210.582 153.604 210.582 154.333C213.155 153.003 215.727 151.674 218.3 150.345C219.758 149.573 218.472 147.386 217.014 148.158Z" fill="#0852E3"/>
<path d="M222.845 148.072C223.06 151.588 223.274 155.104 223.489 158.621C223.574 160.25 226.104 160.25 226.019 158.621C225.804 155.104 225.59 151.588 225.375 148.072C225.29 146.442 222.76 146.442 222.845 148.072Z" fill="#0852E3"/>
<path d="M224.175 141.811C225.804 141.811 225.804 139.281 224.175 139.281C222.545 139.281 222.545 141.811 224.175 141.811Z" fill="#0852E3"/>
<path d="M227.862 148.929C228.848 151.803 229.577 154.761 230.006 157.763C230.221 159.264 232.407 158.749 232.493 157.42C232.622 155.533 233.565 149.487 236.31 149.787C237.639 149.916 237.682 151.459 237.939 152.617C238.239 154.032 238.582 155.448 238.882 156.863C239.225 158.449 241.669 157.763 241.326 156.177C240.683 153.303 240.34 146.399 235.838 147.043C231.55 147.643 230.178 153.99 229.963 157.42C230.778 157.291 231.636 157.206 232.45 157.077C232.022 154.032 231.335 151.116 230.306 148.243C229.792 146.742 227.348 147.429 227.862 148.929Z" fill="#0852E3"/>
<path d="M251.875 148.715C250.974 146.485 248.316 145.842 246.343 147.214C244.199 148.715 243.385 152.532 243.642 155.019C243.899 157.677 246.215 159.35 248.787 158.364C252.089 157.12 252.261 153.475 252.003 150.473C251.189 150.602 250.331 150.688 249.516 150.816C249.988 153.646 250.503 156.477 250.931 159.307C251.36 162.137 251.274 164.839 249.259 167.069C245.786 170.885 239.74 169.985 237.167 165.611C236.352 164.195 234.165 165.482 234.98 166.897C238.025 172.129 245.1 173.758 249.902 169.899C255.991 165.01 252.99 156.605 251.918 150.13C251.703 148.758 249.302 149.058 249.431 150.473C249.559 151.845 249.859 153.646 249.13 154.89C248.187 156.562 246.172 156.348 246.086 154.333C246.043 153.261 246.343 151.931 246.729 150.945C246.944 150.43 248.702 147.686 249.388 149.401C250.031 150.859 252.475 150.216 251.875 148.715Z" fill="#0852E3"/>
<path d="M338.577 145.756C336.09 142.025 330.387 144.341 331.545 148.801C331.674 149.23 332.017 149.573 332.446 149.701C334.461 150.173 338.534 151.374 338.02 154.204C337.334 157.935 331.631 156.176 333.217 152.703C333.904 151.245 331.717 149.959 331.031 151.417C328.844 156.176 334.375 161.322 338.663 157.634C340.636 155.962 341.107 153.175 339.649 150.988C338.234 148.801 335.49 147.814 333.046 147.257C333.346 147.557 333.646 147.857 333.946 148.158C333.518 146.571 335.404 145.67 336.348 147.043C337.291 148.372 339.478 147.128 338.577 145.756Z" fill="#0852E3"/>
<path d="M349.769 146.185C347.754 144.384 344.623 145.027 343.08 147.214C341.279 149.787 342.394 153.904 344.409 156.091C346.596 158.449 349.554 156.005 350.584 153.732C351.741 151.159 351.27 148.158 349.383 146.056C348.311 144.856 346.51 146.614 347.582 147.857C348.482 148.844 348.826 150.173 348.611 151.502C348.525 152.103 348.311 152.703 347.968 153.261C347.539 153.947 347.196 154.418 346.381 154.161C344.966 153.732 344.409 150.73 344.752 149.487C345.095 148.286 346.767 146.957 347.925 148.029C349.211 149.015 351.012 147.257 349.769 146.185Z" fill="#0852E3"/>
<path d="M353.757 136.494C353.543 143.183 353.586 149.916 353.929 156.605C354.014 158.235 356.544 158.235 356.458 156.605C356.115 149.916 356.073 143.226 356.287 136.494C356.33 134.907 353.8 134.907 353.757 136.494Z" fill="#0852E3"/>
<path d="M358.302 146.571C358.002 149.616 358.517 156.562 362.762 156.82C364.434 156.948 365.592 155.662 366.106 154.204C366.964 151.845 367.178 149.144 367.436 146.657C366.621 146.785 365.763 146.871 364.949 147C365.377 150.087 366.106 153.132 367.135 156.091C367.65 157.634 370.094 156.948 369.58 155.405C368.55 152.446 367.821 149.444 367.393 146.314C367.178 144.813 365.034 145.37 364.906 146.657C364.734 148.2 364.52 149.701 364.22 151.245C364.134 151.803 364.005 152.317 363.877 152.875C363.662 153.646 363.662 154.204 362.805 154.075C360.532 153.775 360.661 148.158 360.832 146.614C360.961 144.941 358.431 144.941 358.302 146.571Z" fill="#0852E3"/>
<path d="M368.636 142.797C372.024 142.797 375.411 142.797 378.756 142.797C380.385 142.797 380.385 140.267 378.756 140.267C375.368 140.267 371.981 140.267 368.636 140.267C367.05 140.267 367.007 142.797 368.636 142.797Z" fill="#0852E3"/>
<path d="M372.881 136.022C373.096 142.368 373.267 148.758 373.482 155.104C373.525 156.734 376.055 156.734 376.012 155.104C375.797 148.758 375.626 142.368 375.411 136.022C375.326 134.392 372.839 134.392 372.881 136.022Z" fill="#0852E3"/>
<path d="M381.543 146.571C381.757 149.916 381.972 153.261 382.186 156.605C382.272 158.235 384.802 158.235 384.716 156.605C384.501 153.261 384.287 149.916 384.073 146.571C383.944 144.941 381.414 144.941 381.543 146.571Z" fill="#0852E3"/>
<path d="M383.858 138.766C385.488 138.766 385.488 136.236 383.858 136.236C382.229 136.236 382.229 138.766 383.858 138.766Z" fill="#0852E3"/>
<path d="M392.606 145.971C387.418 146.957 385.66 153.99 390.291 156.948C392.821 158.535 394.965 157.249 395.994 154.719C397.066 152.103 396.765 149.187 395.35 146.785C394.536 145.413 392.349 146.657 393.164 148.072C393.978 149.401 394.321 150.902 394.064 152.446C393.807 153.904 392.949 155.962 391.32 154.547C388.833 152.446 390.376 148.972 393.249 148.415C394.879 148.072 394.193 145.628 392.606 145.971Z" fill="#0852E3"/>
<path d="M398.352 146.399C399.338 149.701 400.024 153.046 400.453 156.434C400.624 158.02 402.983 158.106 402.983 156.434C402.983 154.847 403.197 153.261 403.754 151.76C404.183 150.516 405.212 148.158 406.37 147.429C406.584 146.914 406.928 146.828 407.356 147.128C407.442 147.386 407.571 147.686 407.656 147.943C408 148.844 408.257 149.787 408.471 150.73C408.9 152.489 409.072 154.29 409.072 156.091C409.114 157.72 411.601 157.72 411.601 156.091C411.559 153.089 411.087 150.087 410.101 147.257C409.543 145.67 408.557 143.741 406.542 144.212C404.612 144.684 403.025 147.343 402.211 149.015C401.01 151.331 400.453 153.818 400.453 156.434C401.31 156.434 402.125 156.434 402.983 156.434C402.554 152.789 401.868 149.23 400.796 145.713C400.324 144.17 397.88 144.813 398.352 146.399Z" fill="#0852E3"/>
<path d="M405.941 36.8357C404.441 40.4807 410.401 42.4961 413.059 42.3675C416.018 42.196 418.205 39.0227 416.232 36.4498C415.246 35.1633 413.445 36.9644 414.432 38.2508C414.732 38.6368 414.303 39.2371 414.003 39.4944C413.36 40.0519 412.416 39.8803 411.644 39.7088C410.787 39.4944 407.871 38.7654 408.386 37.5218C408.986 35.9781 406.542 35.3348 405.941 36.8357Z" fill="#0852E3"/>
<path d="M406.713 39.3657C405.727 39.8374 405.255 40.9953 405.469 42.0673C405.77 43.4824 407.099 44.1257 408.342 44.5116C411.258 45.3692 414.817 45.5408 416.146 42.2388C416.747 40.738 414.303 40.0947 413.702 41.5527C413.231 42.6677 411.73 42.6248 410.744 42.4961C410.229 42.4104 409.714 42.2817 409.243 42.1531C409.028 42.0673 407.956 41.5956 407.956 41.5527C409.414 40.8237 408.171 38.6368 406.713 39.3657Z" fill="#0852E3"/>
<path d="M407.528 36.9643C410.186 37.3074 412.845 37.6505 415.461 37.9935C417.047 38.2079 417.047 35.6779 415.461 35.4635C412.802 35.1204 410.143 34.7774 407.528 34.4343C405.898 34.2199 405.941 36.7499 407.528 36.9643Z" fill="#0852E3"/>
<path d="M409.372 34.6058C407.828 31.4325 406.241 28.2593 404.741 25.0431C403.411 22.17 402.639 19.3827 403.626 16.2523C405.384 10.6347 411.044 7.50435 416.704 8.87658C422.578 10.2488 426.223 15.5662 425.794 21.5268C425.537 24.7429 424.079 28.002 421.335 29.803C418.805 31.4754 416.661 32.8048 414.903 35.3348C413.96 36.6642 416.147 37.9077 417.09 36.6213C418.119 35.1204 419.405 33.9626 420.906 33.0192C422.107 32.2473 423.393 31.6041 424.422 30.6178C426.309 28.731 427.51 26.1581 428.024 23.5851C429.01 18.6537 427.595 13.2077 423.822 9.7771C416.061 2.78732 402.897 6.17501 400.881 16.8955C400.324 19.7686 400.838 22.4273 401.996 25.0431C403.583 28.6881 405.469 32.2473 407.185 35.8494C407.914 37.3074 410.058 36.0638 409.372 34.6058Z" fill="#0852E3"/>
<path d="M411.902 34.7774C411.902 30.6607 411.387 26.5869 410.358 22.5989C409.972 21.0122 407.528 21.6983 407.914 23.285C408.9 27.0586 409.372 30.8751 409.372 34.7774C409.372 36.4069 411.902 36.4069 411.902 34.7774Z" fill="#0852E3"/>
<path d="M415.203 35.1204C415.675 30.7893 416.918 26.5869 418.848 22.6846C419.577 21.2266 417.39 19.9402 416.661 21.3982C414.517 25.7292 413.231 30.3176 412.673 35.1204C412.502 36.7499 415.032 36.7071 415.203 35.1204Z" fill="#0852E3"/>
<path d="M408.857 27.1015C412.245 26.5869 415.675 26.5869 419.063 27.1015C420.649 27.3588 421.335 24.9145 419.749 24.6572C415.89 24.0568 412.073 24.0568 408.171 24.6572C406.585 24.9145 407.271 27.3159 408.857 27.1015Z" fill="#0852E3"/>
<path d="M428.839 9.43406C429.654 8.53353 430.64 7.76166 431.798 7.28995C432.441 7.03266 432.87 6.47519 432.699 5.7462C432.527 5.14585 431.798 4.58838 431.155 4.84567C429.611 5.48891 428.239 6.38943 427.081 7.63301C425.966 8.83371 427.767 10.6348 428.839 9.43406Z" fill="#0852E3"/>
<path d="M429.997 12.4787C431.584 12.3072 433.17 12.1356 434.8 11.9641C436.386 11.7926 436.429 9.26253 434.8 9.43406C433.213 9.60559 431.626 9.77711 429.997 9.94864C428.411 10.1202 428.368 12.6502 429.997 12.4787Z" fill="#0852E3"/>
<path d="M424.98 4.97432C424.851 3.77362 424.937 2.65868 425.28 1.54375C425.752 -3.94974e-06 423.308 -0.686117 422.836 0.857638C422.407 2.18698 422.278 3.55921 422.45 4.97432C422.536 5.66043 422.965 6.2179 423.693 6.2179C424.337 6.26078 425.066 5.66043 424.98 4.97432Z" fill="#0852E3"/>
<path d="M203.55 102.016C197.332 101.545 191.072 102.66 185.411 105.361C183.31 106.348 179.065 108.191 178.465 110.679C177.865 113.123 180.609 114.967 182.581 115.739C185.497 116.939 188.885 117.325 191.972 117.754C195.617 118.269 199.304 118.569 203.035 118.483C206.294 118.397 209.724 118.14 212.897 117.24C215.17 116.596 217.571 115.353 217.7 112.737C217.786 111.065 213.197 109.092 213.112 110.979C212.983 113.08 210.539 113.852 208.824 114.238C206.165 114.838 203.464 115.138 200.762 115.224C195.402 115.353 190.085 114.71 184.854 113.552C184.382 113.466 183.653 113.423 183.225 113.166C183.053 113.123 182.924 113.08 182.753 112.994C182.839 112.994 182.882 112.951 182.967 112.951C182.796 112.008 184.768 110.936 185.369 110.507C187.341 109.221 189.399 108.106 191.586 107.291C196.131 105.533 200.977 104.89 205.822 105.276C206.894 105.361 207.194 104.504 206.68 103.689C206.079 102.703 204.664 102.102 203.55 102.016Z" fill="#0852E3"/>
<path d="M208.395 105.833C212.554 105.49 216.799 106.305 220.272 108.749C222.073 109.993 223.788 111.622 223.017 113.981C222.245 116.253 220.144 117.54 218 118.269C211.053 120.627 198.575 121.871 196.86 112.265C196.56 110.507 191.886 108.963 192.315 111.451C193.301 116.939 198.275 120.97 203.421 122.557C209.381 124.358 217.099 123.629 222.759 121.013C225.289 119.855 227.519 117.754 227.862 114.881C228.248 111.751 225.847 109.264 223.574 107.505C218.686 103.732 212.425 101.802 206.251 102.36C203.292 102.574 206.551 106.005 208.395 105.833Z" fill="#0852E3"/>
<path d="M195.531 110.979C194.545 109.907 193.173 109.092 191.715 108.878C191.115 108.792 190.343 108.835 189.828 109.264C189.614 109.435 189.528 109.607 189.614 109.907C189.743 110.25 190 110.593 190.3 110.807C190.643 111.107 190.986 111.322 191.372 111.536C191.844 111.794 192.53 112.094 193.087 112.137C193.687 112.18 194.288 112.18 194.888 112.222C195.188 112.222 195.703 112.265 195.874 111.965C196.046 111.665 195.746 111.193 195.531 110.979C195.145 110.507 194.631 110.121 194.116 109.864C193.602 109.607 193.001 109.306 192.401 109.264C191.801 109.221 191.2 109.221 190.6 109.178C191.672 110.121 192.744 111.107 193.816 112.051C193.945 111.922 194.116 111.836 194.288 111.794C194.159 111.836 194.073 111.836 193.945 111.879C193.988 111.879 194.073 111.836 194.116 111.836C194.202 111.836 194.459 111.836 194.159 111.836C193.216 111.708 192.315 111.193 191.672 110.507C192.101 110.936 192.573 111.322 193.087 111.622C193.559 111.879 194.245 112.18 194.802 112.222C195.102 112.265 195.617 112.308 195.789 111.965C196.003 111.665 195.746 111.193 195.531 110.979Z" fill="#0852E3"/>
<path d="M215.17 109.306C214.741 109.135 214.355 109.006 213.926 108.835C213.455 108.663 212.683 108.62 212.211 108.835C211.696 109.049 211.482 109.392 211.353 109.907C210.882 111.322 211.911 112.908 212.983 113.809C214.269 114.881 216.242 115.524 217.828 114.795C218.9 114.324 218.9 113.08 218.171 112.222C217.442 111.365 215.984 110.593 214.827 111.107C214.741 111.15 214.655 111.193 214.612 111.193C214.912 111.15 214.998 111.107 214.827 111.107C214.655 111.107 214.741 111.107 215.127 111.107C214.955 111.065 214.955 111.107 215.213 111.15C215.427 111.193 215.47 111.193 215.298 111.15C215.727 111.365 215.813 111.365 215.599 111.279C215.727 111.365 215.813 111.45 215.942 111.536C215.856 111.493 215.813 111.45 215.727 111.365C215.984 111.665 216.07 111.708 215.942 111.579C215.899 111.536 215.856 111.493 215.813 111.45C216.027 111.751 216.07 111.836 215.942 111.622C215.984 111.708 215.984 111.794 216.027 111.879C215.984 111.794 215.984 111.708 215.984 111.665C215.984 111.751 215.984 111.836 215.984 111.922C215.984 111.922 216.07 111.493 216.07 111.45C215.213 111.794 214.355 112.179 213.497 112.523C213.926 112.694 214.312 112.823 214.741 112.994C215.641 113.337 217.228 113.123 217.314 111.922C217.399 110.593 216.242 109.692 215.17 109.306Z" fill="#0852E3"/>
<path d="M112.216 90.4812C123.493 89.5378 134.814 89.2805 146.134 89.795C149.436 89.9237 147.549 86.2358 145.233 86.1501C133.527 85.6355 121.821 85.807 110.158 86.7933C109.043 86.8791 108.571 87.8225 109.086 88.8088C109.6 89.7951 111.058 90.5669 112.216 90.4812Z" fill="#0852E3"/>
<path d="M263.409 90.6098C275.416 90.4383 287.422 89.9237 299.385 89.0232C302.301 88.8088 298.957 85.464 297.199 85.5926C285.235 86.4932 273.229 87.0506 261.223 87.1793C260.151 87.1793 259.808 87.994 260.279 88.8945C260.837 89.8808 262.295 90.6527 263.409 90.6098Z" fill="#0852E3"/>
</g>
<defs>
<clipPath id="clip0">
<rect width="436" height="172" fill="white"/>
</clipPath>
</defs>
</svg>
