<svg width="107" height="62" viewBox="0 0 107 62" fill="none" xmlns="http://www.w3.org/2000/svg">
<path d="M14.4057 44.8848C14.4454 44.8848 14.4454 44.8848 14.4851 44.9642C14.5248 45.0436 14.6042 45.1627 14.6439 45.2819C14.6835 45.401 14.7232 45.5598 14.7629 45.7186C14.7629 45.8774 14.7629 46.0363 14.6439 46.1951C14.5248 46.3539 14.3264 46.5127 13.9692 46.6318C13.9295 46.6318 13.8105 46.6715 13.7708 46.6318C13.7311 46.6318 13.3739 46.5127 12.858 46.1554C12.5802 45.9966 12.3024 45.7583 12.0246 45.4407C11.7468 45.123 11.469 44.726 11.2309 44.2495C11.1912 44.1701 11.1912 44.1304 11.1515 44.051V44.0113L11.1118 43.8922L11.0721 43.7333C11.0721 43.6936 11.0325 43.6142 11.0325 43.5745L10.9531 43.2569L10.8737 42.9392C10.8737 42.8201 10.834 42.7407 10.834 42.6216C10.5959 41.0334 10.5562 39.4849 10.5959 37.8569C10.5959 37.4599 10.6356 37.0628 10.6356 36.6658C10.6356 36.2687 10.6753 35.8717 10.6753 35.5143C10.715 34.7202 10.715 33.9261 10.7547 33.132C10.7943 31.5041 10.7943 29.8761 10.834 28.2482C10.9134 24.9527 10.9928 21.538 11.0721 18.0836C11.0721 17.2101 11.1118 16.3366 11.1118 15.4631C11.1515 14.5895 11.1118 13.716 11.1118 12.8425C11.1118 11.969 11.1118 11.0558 11.1118 10.1822C11.1118 9.74547 11.1118 9.30871 11.1515 8.79254C11.1912 8.31607 11.2309 7.7602 11.4293 7.20432C11.5881 6.64844 11.9849 6.05287 12.5405 5.65581C12.6596 5.5764 12.7786 5.49699 12.8977 5.41758C13.0168 5.33816 13.1358 5.29846 13.2549 5.21905C13.3739 5.17934 13.5327 5.09993 13.6517 5.06023L14.0486 4.94111C15.0804 4.66317 16.0725 4.66317 17.025 4.70288C17.5012 4.70288 17.9775 4.74258 18.414 4.78229L19.0887 4.82199H19.7633C20.6761 4.8617 21.6285 4.8617 22.5413 4.9014C23.4541 4.94111 24.4065 4.94111 25.3193 4.98081C26.2321 5.02052 27.1845 5.06023 28.0973 5.09993C29.9625 5.17934 31.8278 5.17934 33.693 5.21905C35.5582 5.25875 37.4632 5.29846 39.3681 5.29846C41.273 5.33816 43.1779 5.37787 45.0828 5.41758C48.8926 5.53669 52.7025 5.6161 56.5123 5.73522C58.4172 5.77493 60.3221 5.85433 62.227 5.89404C63.1795 5.93375 64.132 5.93374 65.0844 5.97345C65.5606 5.97345 66.0766 6.01316 66.5528 6.05287L67.3068 6.13227L67.664 6.17198C67.7434 6.17198 67.783 6.17198 67.8624 6.21168L68.0608 6.25139C68.3386 6.2911 68.6164 6.37051 68.9339 6.52933C69.2514 6.64845 69.5689 6.84697 69.807 7.12491C70.0848 7.40285 70.2435 7.72049 70.3626 8.03814C70.4817 8.35578 70.561 8.63372 70.6007 8.91166C70.6801 9.46753 70.6801 9.9837 70.7198 10.4602V11.8896C70.7198 12.8425 70.6801 13.7954 70.6801 14.7484C70.6801 15.7013 70.6801 16.6145 70.6404 17.5674C70.6007 19.4336 70.6404 21.2998 70.6801 23.1659C70.7198 25.0321 70.6801 26.8982 70.7198 28.7247C70.7198 29.6379 70.7198 30.5511 70.6801 31.4644C70.6801 32.3776 70.6404 33.2908 70.6404 34.204C70.6404 34.6408 70.6007 35.1173 70.6007 35.554C70.561 35.9908 70.561 36.4672 70.5214 36.904C70.4817 37.8172 70.442 38.6908 70.4023 39.604L70.3626 40.2393C70.3626 40.4378 70.3626 40.676 70.3626 40.8745C70.3626 41.3113 70.3626 41.7481 70.3626 42.1848C70.3626 42.6216 70.3626 43.0981 70.3229 43.5745C70.2832 44.051 70.2436 44.5672 70.0451 45.0833C69.9658 45.3613 69.8467 45.5995 69.6483 45.8774C69.4895 46.1157 69.2911 46.3936 69.053 46.5524C68.5768 46.9495 68.0608 47.1877 67.5449 47.3068C67.029 47.4259 66.5528 47.5054 66.0766 47.5451C65.8384 47.5451 65.6003 47.5848 65.3622 47.5848C65.1241 47.5848 64.886 47.5848 64.6876 47.5848C62.9811 47.5451 61.2746 47.4657 59.6078 47.4259C57.941 47.3862 56.2742 47.3068 54.6867 47.3465C53.0596 47.3465 51.4325 47.3465 49.8848 47.3465C49.0911 47.3465 48.2974 47.3465 47.5036 47.3465C46.7099 47.3465 45.9559 47.3465 45.1622 47.3465C43.6144 47.3465 42.1064 47.3068 40.638 47.3068C39.1696 47.2671 37.7013 47.2274 36.2726 47.2274C35.5582 47.2274 34.8439 47.1877 34.1692 47.1877C33.4946 47.1877 32.8199 47.1877 32.1453 47.1877C30.796 47.1877 29.4466 47.2274 28.137 47.2274C27.502 47.2274 26.8274 47.2274 26.1924 47.2274C25.5574 47.2274 24.9225 47.1877 24.2875 47.1877C23.5732 47.148 22.8588 47.148 22.1841 47.1083C21.8667 47.1083 21.5889 47.1083 21.3507 47.0686C20.8745 47.0686 20.6364 47.0686 20.6364 47.0686C20.6364 47.0686 19.9221 47.0289 19.0093 46.9098C18.5331 46.8701 17.9775 46.7907 17.4616 46.7113C16.906 46.6318 16.39 46.5524 15.8741 46.4333C14.2073 46.076 13.7311 45.8377 13.9295 45.6789C14.1279 45.5201 14.9613 45.4407 15.9932 45.401C15.9535 45.3613 16.2313 45.401 16.6678 45.3613C17.1044 45.3613 17.7394 45.3216 18.3346 45.3216C19.6046 45.2421 20.8745 45.2024 20.8745 45.2024C20.8745 45.2024 21.1523 45.2024 21.6286 45.2024C22.2238 45.2024 22.9779 45.2421 23.8509 45.2819C26.113 45.3613 28.4942 45.3613 31.0737 45.3216C31.3912 45.3216 31.7087 45.3216 32.0262 45.3216C32.3437 45.3216 32.7009 45.3216 33.0184 45.3216C33.693 45.3216 34.3677 45.3216 35.0423 45.3613C36.3916 45.401 37.7409 45.401 39.1299 45.4407C40.5189 45.4804 41.9476 45.4804 43.416 45.4804C44.8844 45.4804 46.3527 45.5201 47.8608 45.5201C49.3689 45.5201 50.9166 45.5201 52.4644 45.5201C53.2581 45.5201 54.0518 45.5201 54.8455 45.5201C55.2424 45.5201 55.6392 45.5201 56.0361 45.5201C56.4329 45.5201 56.8298 45.5201 57.2266 45.5598C58.8538 45.5995 60.4809 45.6789 62.1477 45.7186C62.9811 45.7583 63.8145 45.7583 64.6479 45.798H64.9654H65.2431C65.4416 45.798 65.64 45.798 65.8384 45.798C66.2353 45.7583 66.5925 45.7186 66.9099 45.6392C67.2274 45.5598 67.5449 45.4407 67.7434 45.2819C67.9418 45.123 68.1005 44.9245 68.2196 44.6863C68.4577 44.1304 68.4577 43.3363 68.4577 42.5025C68.4577 41.6687 68.4577 40.7554 68.4974 39.8422C68.5371 38.9687 68.5767 38.0952 68.6164 37.2216C68.6561 36.3481 68.6958 35.4746 68.7355 34.6011C68.7355 33.7276 68.7752 32.8143 68.7752 31.9408C68.7752 31.0673 68.8149 30.1541 68.8149 29.2806C68.8149 28.3673 68.8149 27.4938 68.8149 26.5806C68.8149 24.7938 68.7752 22.9674 68.7752 21.1409C68.7355 19.3145 68.7752 17.4483 68.7752 15.5822C68.7752 14.6689 68.8149 13.7557 68.8149 12.8028C68.8149 12.3263 68.8149 11.8896 68.8149 11.4131C68.8149 10.9366 68.8149 10.4602 68.8149 10.0631C68.8149 9.62635 68.7752 9.2293 68.6561 8.91166C68.6164 8.75284 68.5371 8.63372 68.4974 8.5543C68.418 8.47489 68.3783 8.39548 68.2593 8.35578C68.1402 8.31607 68.0212 8.23666 67.8624 8.19696C67.7037 8.15725 67.5052 8.11755 67.2671 8.11755C66.8306 8.07784 66.394 7.99843 65.9178 7.99843C65.4813 7.95872 65.005 7.95872 64.5288 7.95872L63.1398 7.91902C62.1873 7.87932 61.2746 7.87932 60.3221 7.83961C58.4569 7.79991 56.5917 7.72049 54.6867 7.68079C52.8215 7.64108 50.9166 7.56167 49.0514 7.52197C48.0989 7.48226 47.1862 7.48226 46.2337 7.44256C45.2812 7.44256 44.3685 7.40285 43.416 7.40285C41.5508 7.36314 39.6855 7.32344 37.8203 7.28373C35.9551 7.24403 34.0899 7.20432 32.2246 7.20432C31.3119 7.20432 30.3594 7.16461 29.4466 7.16461C28.5339 7.12491 27.5814 7.08521 26.6686 7.0455C24.8034 6.96609 23.0175 6.92638 21.192 6.88668C20.7555 6.88668 20.2792 6.84697 19.8427 6.84697C19.4062 6.84697 18.8902 6.84697 18.4537 6.80727C17.5409 6.76756 16.6678 6.68815 15.8344 6.72786C15.4376 6.72786 15.0407 6.76756 14.6439 6.84697C14.4454 6.88668 14.2867 6.92638 14.1279 7.00579C14.0486 7.0455 13.9692 7.0455 13.8898 7.0852L13.6517 7.20432C13.5327 7.28373 13.4136 7.36315 13.3342 7.44256C13.2549 7.52197 13.1755 7.64108 13.1358 7.7602C13.0167 7.99843 12.9374 8.35578 12.9374 8.75283C12.8977 9.14989 12.8977 9.54695 12.8977 10.0234C12.8977 10.4602 12.8977 10.8969 12.8977 11.3337C12.8977 12.2072 12.8977 13.0807 12.8977 13.9542C12.8977 14.391 12.8977 14.8278 12.8977 15.2645C12.8977 15.7013 12.8977 16.1381 12.858 16.5748C12.858 17.4483 12.8183 18.2821 12.8183 19.1557C12.7786 20.863 12.739 22.5703 12.6993 24.238C12.6596 25.9056 12.6199 27.5732 12.5802 29.2011C12.5405 30.8291 12.5405 32.4173 12.5008 34.0452C12.4612 34.8393 12.4611 35.6334 12.4215 36.4275C12.4215 36.6261 12.4215 36.8246 12.4215 37.0231L12.3818 37.579C12.3818 37.9363 12.3421 38.3334 12.3421 38.6907C12.3421 39.4451 12.3421 40.1996 12.4215 40.9143C12.4215 41.2716 12.5008 41.629 12.5008 41.9863C12.5405 42.3437 12.5802 42.701 12.6596 43.0187L12.6993 43.2569C12.6993 43.2966 12.6993 43.3363 12.7389 43.376L12.7786 43.4554V43.4951L12.8183 43.5348L12.858 43.6539C13.0961 44.1701 13.493 44.5275 13.8105 44.726C14.2073 44.8054 14.4057 44.8848 14.4057 44.8848Z" fill="url(#paint0_linear)"/>
<path d="M62.0287 53.0244C61.9891 53.0244 61.9494 53.0244 61.9097 52.9847C61.5128 52.7068 60.9176 52.0318 61.9097 51.2774C61.9097 51.2774 62.0287 51.198 62.0684 51.198C62.1081 51.198 63.2193 51.198 64.8861 51.2377C64.9258 51.2377 65.0052 51.2377 65.0448 51.2377H65.2036C65.6798 51.2377 66.156 51.2377 66.6323 51.2377C67.5847 51.2377 68.5372 51.198 69.5294 51.198C70.0453 51.198 70.5215 51.198 71.0374 51.1583C71.5533 51.1583 72.0692 51.1583 72.5455 51.1583C73.0217 51.1583 73.4979 51.1583 73.8948 51.0789C74.2916 51.0392 74.6488 50.92 74.8869 50.7215C75.0854 50.5627 75.2441 50.3245 75.3235 49.9671C75.3631 49.7686 75.4028 49.6098 75.4028 49.3715C75.4028 49.1333 75.4425 48.8554 75.4425 48.6171C75.4822 48.1009 75.4822 47.5848 75.5219 47.1083C75.5616 46.5921 75.6013 46.076 75.6013 45.5598C75.6013 44.5275 75.6409 43.4951 75.6409 42.4231C75.6409 41.351 75.6409 40.3187 75.6409 39.2466C75.6806 38.1746 75.6806 37.0628 75.7203 35.9908C75.76 34.9187 75.7997 33.807 75.8394 32.7349C75.8791 31.6232 75.9187 30.5511 75.9187 29.4394C75.9187 28.3276 75.9584 27.2159 75.9584 26.1041C75.9584 24.9924 75.9187 23.8806 75.9187 22.7689C75.8791 21.6174 75.8791 20.5057 75.8394 19.3542C75.8394 18.7983 75.7997 18.2027 75.7997 17.6469C75.7997 17.091 75.7997 16.4954 75.7997 15.8998C75.7997 14.7484 75.7997 13.5969 75.7997 12.4058C75.8394 11.2146 75.9187 10.0234 75.9981 8.91167C76.0378 7.76021 76.0775 6.64846 75.9187 5.57641L75.76 4.7823C75.6806 4.54407 75.6409 4.30584 75.5219 4.10731C75.3235 3.71025 75.0853 3.39261 74.7282 3.19408C73.9741 2.71762 72.9026 2.5588 71.7517 2.51909C71.1961 2.51909 70.5612 2.47939 69.9659 2.43968C69.3706 2.39998 68.7753 2.39998 68.18 2.36027C66.9895 2.32057 65.7989 2.28086 64.6083 2.24115C63.4177 2.20145 62.2272 2.20145 61.0366 2.20145C58.6158 2.24115 56.2346 2.28086 53.8138 2.32056C53.2185 2.32056 52.5836 2.32057 51.9883 2.36027L50.1627 2.32056C48.9325 2.28086 47.7419 2.28086 46.5117 2.24115C41.6303 2.08233 36.8283 2.04263 31.9073 1.96322L28.2562 1.8441C27.026 1.80439 25.8354 1.76469 24.6051 1.76469C24.0099 1.76469 23.3749 1.72498 22.7796 1.72498H20.9541H19.1285H18.2157L17.303 1.76469C16.0727 1.8044 14.8821 1.80439 13.6519 1.8441C13.0566 1.8441 12.4216 1.88381 11.8263 1.88381L10.9136 1.92351H10.0008C9.44521 1.92351 8.96896 2.00292 8.49274 2.16175C8.25462 2.24116 8.0562 2.32057 7.85777 2.47939C7.7784 2.5588 7.65934 2.59851 7.57997 2.67792L7.42124 2.79703L7.30217 2.87644C7.18311 2.99556 7.06406 3.15438 6.98468 3.35291C6.945 3.43232 6.90532 3.55144 6.86563 3.67055C6.82595 3.78967 6.82594 3.90878 6.78626 4.0279C6.70688 4.50437 6.70688 5.06024 6.70688 5.65583C6.70688 5.97347 6.70688 6.25141 6.70688 6.60875C6.70688 6.76758 6.66719 6.9661 6.70688 7.08522V7.52198V8.3955C6.70688 8.67344 6.70688 8.95138 6.70688 9.26902C6.74657 9.8646 6.74657 10.4602 6.78626 11.0161C6.82594 11.6116 6.82595 12.2072 6.86563 12.8028C6.90532 13.994 6.90532 15.2248 6.86563 16.416C6.86563 17.6072 6.82596 18.7586 6.82596 19.9498C6.78627 22.2924 6.78627 24.635 6.74658 26.9379C6.74658 28.0894 6.70688 29.2409 6.70688 30.3923C6.70688 31.5438 6.70689 32.6952 6.74658 33.807C6.74658 36.0702 6.78626 38.3334 6.78626 40.5966C6.78626 41.7084 6.78627 42.8201 6.82596 43.9319C6.82596 44.4878 6.82596 45.0436 6.82596 45.5995C6.82596 46.1554 6.82595 46.7113 6.86563 47.2274C6.86563 47.7436 6.90533 48.2598 7.02438 48.6965L7.06406 48.8554L7.10374 48.9745C7.10374 49.0142 7.14344 49.0539 7.14344 49.0936L7.18311 49.2127C7.2228 49.2921 7.26248 49.3318 7.30217 49.4112C7.34185 49.4906 7.42123 49.5304 7.46092 49.5701C7.69903 49.7686 8.05621 49.8877 8.53244 49.9671C8.65149 50.0068 8.77054 50.0068 8.88959 50.0068C9.00865 50.0068 9.12772 50.0465 9.24677 50.0465C9.52457 50.0465 9.80237 50.0862 10.0405 50.0862C12.1835 50.1656 14.2869 50.2848 16.3902 50.3642C18.4539 50.4436 20.5175 50.4833 22.5415 50.5627C24.5655 50.6024 26.5894 50.6818 28.534 50.7215C32.4629 50.8406 36.2727 50.92 39.8841 51.0392C41.7097 51.0789 43.4955 51.1583 45.2417 51.198C46.9879 51.198 48.6944 51.198 50.3215 51.198C51.9883 51.198 53.5757 51.198 55.1631 51.198C55.9568 51.198 56.7109 51.198 57.5046 51.198C57.6236 51.198 57.703 51.198 57.8221 51.198C58.1396 51.198 58.4173 51.198 58.6555 51.198C59.1317 51.198 59.4095 51.198 59.4095 51.198C59.4095 51.198 60.1238 51.2377 61.0366 51.3568C61.9891 51.4362 63.1399 51.5553 64.1321 51.7142C67.4657 52.1112 66.1561 52.5083 64.0924 52.7465C64.2115 52.7862 62.9812 52.8656 61.7113 52.945C61.0763 52.9847 60.4413 53.0244 59.9651 53.0244C59.4889 53.0641 59.1714 53.0641 59.1714 53.0641C59.1714 53.0641 50.004 52.945 36.233 52.7862C32.6613 52.6671 28.8912 52.5877 25.0417 52.4686C23.0971 52.4288 21.1128 52.3494 19.1285 52.3097C18.1364 52.27 17.1045 52.2303 16.1124 52.2303C15.0806 52.1906 14.0884 52.1509 13.0566 52.1112C12.0248 52.0715 10.9929 52.0318 9.96111 51.9921C9.68331 51.9921 9.4452 51.9524 9.1674 51.9524L8.73086 51.9127H8.49274L8.25463 51.873C8.09589 51.8333 7.93714 51.8333 7.7784 51.7936C7.61966 51.7538 7.46091 51.7141 7.30217 51.6347C7.14342 51.5553 6.9847 51.4759 6.82596 51.3965C6.66721 51.3171 6.50847 51.198 6.34972 51.0789C6.23067 50.9597 6.07192 50.8009 5.95287 50.6818C5.83381 50.523 5.71476 50.3642 5.63539 50.2053C5.55601 50.0465 5.47663 49.8877 5.39726 49.7289L5.31788 49.4906C5.27819 49.4112 5.2782 49.3318 5.2782 49.2524C5.11946 48.6171 5.11946 48.0215 5.07978 47.4657C5.07978 46.9098 5.0401 46.3936 5.0401 45.8377C5.0401 45.2819 5.0401 44.7657 5.0401 44.2098C5.00041 39.8819 4.96071 35.4349 4.92102 30.9482C4.96071 26.4615 5.00041 21.8556 5.0401 17.2101C5.0401 16.6145 5.0401 16.0587 5.0401 15.4631C5.0401 14.8675 5.0401 14.3116 5.0401 13.7557C5.0401 13.1999 5.0004 12.6043 5.0004 12.0087L4.96072 11.1352L4.92102 10.2617C4.92102 9.66607 4.88135 9.07049 4.88135 8.47491V7.56168C4.88135 7.28374 4.88134 6.9264 4.92102 6.68816C4.96071 6.17199 4.92102 5.57641 4.92102 4.94113C4.92102 4.30584 5.0004 3.63085 5.2782 2.87644C5.43695 2.5191 5.63537 2.16174 5.91317 1.8441C5.99254 1.76469 6.07191 1.68528 6.11159 1.60587C6.19097 1.52645 6.27035 1.44704 6.34972 1.40734C6.46878 1.28822 6.62751 1.16911 6.78626 1.0897C7.38154 0.692644 8.09588 0.414706 8.77054 0.29559C9.4452 0.176474 10.1199 0.176472 10.7151 0.176472C11.3104 0.176472 11.9057 0.136764 12.501 0.136764C13.6916 0.097059 14.8821 0.0970602 16.0727 0.0573547C17.2633 0.0176493 18.4538 0.0176469 19.6841 0.0176469C20.8747 0.0176469 22.1049 -0.0220586 23.2955 0.0176469C24.4861 0.0573523 25.7163 0.0573572 26.9069 0.0970626C28.0975 0.136768 29.3277 0.176469 30.5183 0.216174L32.3042 0.255882L34.09 0.29559C36.5108 0.335295 38.892 0.374996 41.3128 0.414701C43.7336 0.454407 46.1148 0.573527 48.4959 0.573527C49.6865 0.613232 50.8771 0.613231 52.0676 0.652937C53.2582 0.652937 54.4488 0.613229 55.6394 0.613229C56.8299 0.573523 58.0205 0.573524 59.2111 0.533819C59.8064 0.533819 60.4016 0.494117 60.9969 0.494117C61.5922 0.494117 62.1875 0.494114 62.7828 0.533819C63.3781 0.533819 63.9734 0.533821 64.5686 0.573527C65.1639 0.613232 65.7592 0.613231 66.3545 0.652937C67.5451 0.692642 68.6959 0.732349 69.8865 0.772054C70.4818 0.81176 71.0374 0.811758 71.6327 0.851464C72.228 0.891169 72.863 0.930872 73.4979 1.01028C74.1329 1.1294 74.8075 1.32793 75.4425 1.68528C76.0775 2.04263 76.6728 2.59851 77.0299 3.2735C77.1887 3.59114 77.3474 3.94849 77.4268 4.26613C77.4665 4.42496 77.5062 4.58378 77.5458 4.7426L77.6252 5.21906L77.6649 5.4573L77.7046 5.69553L77.7443 6.17199C77.784 6.48964 77.784 6.80728 77.784 7.08522C77.8237 8.31609 77.7443 9.46755 77.6649 10.619C77.6252 11.1749 77.5855 11.7705 77.5855 12.3263C77.5855 12.6043 77.5855 12.8822 77.5855 13.1602V13.994C77.5855 15.1454 77.5855 16.2572 77.5855 17.4086C77.5855 18.5204 77.6252 19.6718 77.6649 20.7836C77.7046 21.8954 77.7443 23.0071 77.7443 24.1586C77.7443 24.7144 77.7443 25.2703 77.784 25.8262C77.784 26.3821 77.784 26.9379 77.784 27.4938C77.784 28.0497 77.784 28.6056 77.784 29.1615C77.784 29.7173 77.7443 30.2732 77.7443 30.8291C77.7046 31.9408 77.6649 33.0129 77.6252 34.0849C77.6252 34.6408 77.5855 35.157 77.5855 35.7128C77.5855 36.2687 77.5458 36.7849 77.5458 37.3011C77.4665 39.4055 77.5062 41.5496 77.4665 43.6142C77.4665 44.1304 77.4665 44.6466 77.4268 45.2025C77.4268 45.7186 77.4268 46.2348 77.3871 46.751C77.3474 47.7833 77.2681 48.8156 77.2284 49.848C77.1887 50.4436 77.0299 51.1186 76.6331 51.7142C76.4346 52.0318 76.1569 52.27 75.8791 52.4686C75.6013 52.6671 75.2838 52.8259 74.9663 52.9053C74.371 53.1038 73.7757 53.1436 73.2598 53.1436C72.7439 53.1436 72.228 53.1436 71.7517 53.1436C71.5136 53.1436 71.2755 53.1436 71.0374 53.1436C70.7993 53.1436 70.5612 53.1436 70.3231 53.1436C69.8468 53.1436 69.3309 53.1435 68.8547 53.1832C67.8625 53.1832 66.9101 53.223 65.9576 53.223C65.6005 53.223 65.2433 53.223 64.9258 53.223C63.1796 53.0641 62.0684 53.0244 62.0287 53.0244Z" fill="url(#paint1_linear)"/>
<path d="M0.0793762 53.5009C0.0793762 53.4612 0.0793569 53.4215 0.158728 53.3818C0.317471 53.1832 0.595281 52.945 0.912766 52.945C1.23025 52.945 1.54775 53.1038 1.86523 53.5803C1.86523 53.5803 1.90491 53.6994 1.90491 53.7391C1.86522 54.2156 1.82553 54.692 1.82553 55.1685C1.82553 55.2876 1.82553 55.4067 1.82553 55.5259V55.6847L1.86523 55.8435C1.86523 55.9626 1.86522 56.0817 1.90491 56.1611L1.94458 56.32V56.3994C1.94458 56.3994 1.94458 56.3994 1.94458 56.4391C1.98427 56.5185 1.98428 56.5979 2.02396 56.6376C2.06365 56.717 2.06365 56.7567 2.10334 56.8361C2.14302 56.9155 2.1827 56.9552 2.22239 56.995C2.53988 57.4317 3.05579 57.7891 3.69077 57.9479C3.84951 57.9876 4.00826 58.0273 4.167 58.0273C4.24637 58.0273 4.36543 58.067 4.4448 58.067L4.76228 58.1067L5.95286 58.2258C6.74657 58.3052 7.54028 58.3846 8.334 58.4243C9.12771 58.5038 9.92142 58.5435 10.7548 58.5832C13.9694 58.742 17.1839 58.742 20.4381 58.7817C23.6924 58.7817 26.9069 58.8214 30.1611 58.8611L39.8841 58.9802L59.3301 59.1787H64.1718H66.5926C67.3863 59.1787 68.2594 59.139 69.0531 59.1787L71.5136 59.2582C72.3074 59.2979 73.1407 59.2979 73.9345 59.3376H75.125H76.3553C77.149 59.3376 77.903 59.3376 78.5777 59.1787C78.7364 59.139 78.8952 59.0993 79.0539 59.0199C79.2127 58.9802 79.3317 58.9008 79.4904 58.8214C79.7286 58.7023 79.927 58.5038 80.0461 58.3052C80.1651 58.1067 80.2445 57.8685 80.2842 57.5508C80.3239 57.2332 80.3239 56.8758 80.2842 56.5185C80.2445 56.1611 80.2048 55.7244 80.1651 55.3273L79.8476 55.2876C79.6492 55.2479 79.4508 55.2479 79.292 55.2479C79.0936 55.2479 78.8952 55.2479 78.6967 55.2082C78.4983 55.2082 78.2999 55.2082 78.1014 55.2082C77.3077 55.2082 76.514 55.2082 75.6806 55.2082L73.2598 55.1685L68.4181 55.0891C65.1639 55.0097 61.9494 55.0097 58.6951 55.0097L48.9721 54.9303C46.4323 54.8906 43.8924 54.8906 41.3525 54.8509L33.7328 54.692L18.4935 54.3744L7.46091 54.1759C7.46091 54.1759 6.74657 54.0965 5.8338 54.0171C5.35757 53.9773 4.84165 53.8979 4.28605 53.8582C3.77014 53.7788 3.21453 53.7391 2.7383 53.6597C2.30176 53.62 1.98428 53.5406 1.70648 53.5009C1.42868 53.4215 1.23026 53.3421 1.07152 53.3024C0.754033 53.1832 0.714343 53.0641 0.793714 52.9847C0.912771 52.9053 1.15088 52.8656 1.50805 52.8259C1.66679 52.8259 1.90491 52.7862 2.10334 52.7465C2.34145 52.7068 2.57956 52.7068 2.81767 52.6671C2.77799 52.6671 3.05579 52.6274 3.49234 52.5877C3.92888 52.548 4.56385 52.5083 5.19882 52.5083C6.46876 52.4685 7.73871 52.3891 7.73871 52.3891L20.0016 52.6274L34.4869 52.9053L41.7494 53.0641L48.9721 53.1038L58.6951 53.1832C61.9494 53.2229 65.2036 53.2229 68.4181 53.2627L73.2598 53.3421L75.6806 53.3818C76.4743 53.3818 77.2681 53.3818 78.1014 53.3818C78.2999 53.3818 78.4983 53.3818 78.7364 53.3818C78.9348 53.3818 79.1729 53.3818 79.3714 53.4215C79.5698 53.4215 79.808 53.4612 80.0064 53.4612L80.3238 53.5009H80.4429C80.4826 53.5009 80.5223 53.5009 80.6017 53.5009L80.9191 53.5406L81.5144 53.62L81.8319 53.6597H81.9113C81.951 53.6597 81.9509 53.6597 81.9509 53.6994V53.8582C81.9509 54.2553 81.9907 54.692 82.0303 55.0891C82.07 55.4862 82.1097 55.8832 82.1494 56.32C82.1891 56.7567 82.1891 57.1935 82.1494 57.7097C82.1097 58.1861 81.951 58.742 81.6335 59.2185C81.316 59.6949 80.8795 60.092 80.4032 60.3302C80.1651 60.4493 79.9667 60.5684 79.7286 60.6081C79.4904 60.6875 79.292 60.767 79.0539 60.8067C78.1411 61.0052 77.2284 61.0449 76.4346 61.0449H75.2044H73.9741C73.1407 61.0449 72.347 61.0052 71.5136 60.9655L69.0928 60.8861C68.2991 60.8861 67.5054 60.9258 66.7117 60.8861H64.2511H59.3698L39.9238 60.6876L30.2008 60.5684C26.9466 60.5287 23.732 60.489 20.4778 60.489C17.2236 60.489 13.9694 60.489 10.7151 60.2905C9.88174 60.2508 9.08802 60.2111 8.25462 60.1317C7.42122 60.0523 6.6275 60.0126 5.7941 59.9331L4.56386 59.814L4.24637 59.7743C4.12732 59.7743 4.04793 59.7743 3.92887 59.7346C3.69076 59.6949 3.45265 59.6552 3.21453 59.5758C2.7383 59.4567 2.26209 59.2582 1.86523 58.9802C1.42869 58.7023 1.03182 58.3449 0.714338 57.9082C0.634966 57.7891 0.555595 57.6699 0.515909 57.5508C0.436538 57.4317 0.396842 57.3126 0.357157 57.1935C0.317471 57.0744 0.27779 56.9552 0.238105 56.8361V56.7964L0.198428 56.6773L0.119052 56.4391C0.0793666 56.2803 0.0793617 56.1214 0.039676 55.9626L0 55.7244V55.5259C0 55.367 0 55.2479 0 55.0891C0 54.6126 4.84326e-06 54.0568 0.0793762 53.5009Z" fill="url(#paint2_linear)"/>
<path d="M34.4869 56.1214C34.5266 56.0817 34.5266 56.0817 34.5663 56.042C34.606 56.0023 34.6457 56.0023 34.7251 56.0023C34.7648 56.0023 34.8441 56.0023 34.8838 56.0023C34.9632 56.0023 35.0426 56.042 35.1219 56.1214C35.1616 56.2009 35.2013 56.2803 35.2013 56.3597C35.2013 56.4391 35.2013 56.5582 35.2807 56.6376L35.3204 56.6773L35.36 56.717C35.3997 56.7567 35.4791 56.8361 35.5585 56.8759C35.6378 56.9156 35.7172 56.9553 35.8363 56.995C36.2331 57.1141 36.7093 57.1538 37.1459 57.1935C37.6221 57.2332 38.0587 57.2332 38.5349 57.2332C38.773 57.2332 39.0111 57.2332 39.2492 57.2332H39.9636H41.3923C42.3447 57.2332 43.2972 57.2332 44.2893 57.2729C44.7656 57.2729 45.2418 57.3126 45.6783 57.2729C45.9164 57.2729 46.1149 57.2332 46.3133 57.1935C46.5117 57.1538 46.6308 57.0744 46.7895 56.9553C46.8292 56.9156 46.8689 56.9156 46.8689 56.8759L46.8292 56.8361C46.7499 56.7964 46.6705 56.7567 46.5911 56.717C46.2339 56.5582 45.7577 56.4391 45.3608 56.3994C45.1624 56.3597 44.9243 56.3994 44.6862 56.3597H43.9718L42.5432 56.32L38.6539 56.2406C38.6539 56.2406 38.2968 56.2009 37.8206 56.1611C37.5824 56.1214 37.3046 56.1214 37.0665 56.0817C36.9475 56.0817 36.7887 56.042 36.6697 56.042C36.5506 56.042 36.4316 56.0023 36.3125 56.0023C36.1141 56.0023 35.9553 56.0023 35.7966 56.0023C35.6378 56.0023 35.5585 56.0023 35.4394 55.9626C35.2807 55.9229 35.241 55.8832 35.2807 55.8435C35.3203 55.8038 35.4394 55.7244 35.5982 55.6847C35.7569 55.645 35.9553 55.5259 36.2331 55.4862C36.2331 55.4862 36.2331 55.4862 36.3125 55.4464C36.3919 55.4464 36.4712 55.4067 36.5903 55.4067C36.7094 55.4067 36.8681 55.367 36.9872 55.367C37.1459 55.367 37.3046 55.367 37.4634 55.3273C38.0983 55.2876 38.7333 55.2876 38.7333 55.2876L42.7813 55.367L44.2099 55.4067H44.9243C45.0434 55.4067 45.1624 55.4067 45.2815 55.4067C45.4005 55.4067 45.5593 55.4464 45.6783 55.4464C45.9164 55.4862 46.1942 55.5259 46.4324 55.6053C46.6705 55.6847 46.9086 55.7641 47.1864 55.9229C47.2657 55.9626 47.3054 56.0023 47.3848 56.042L47.4245 56.0817C47.4245 56.0817 47.4642 56.1214 47.5039 56.1214C47.5436 56.1612 47.5833 56.2009 47.6229 56.2406C47.7817 56.4391 47.861 56.6376 47.7817 56.8759C47.7817 56.995 47.7023 57.1141 47.6626 57.1935C47.6229 57.2332 47.5832 57.2729 47.5436 57.3523C47.5039 57.392 47.4642 57.4317 47.4245 57.4714C47.3055 57.5906 47.1864 57.67 47.0673 57.7494C46.7895 57.9082 46.5117 57.9876 46.2736 58.0273C45.9958 58.067 45.7577 58.1067 45.5196 58.1067C45.0037 58.1464 44.5274 58.1067 44.0909 58.067H41.2732H39.8842H39.1699H38.4555C37.9793 58.067 37.5031 58.067 37.0268 58.0273C36.5506 57.9876 36.0744 57.9479 35.5585 57.7891C35.3997 57.7494 35.2807 57.7097 35.1219 57.6303C34.9632 57.5508 34.8441 57.4714 34.7251 57.3523C34.6854 57.3126 34.6457 57.3126 34.6457 57.2729C34.606 57.2332 34.5663 57.1935 34.5266 57.1538C34.487 57.1141 34.4473 57.0347 34.4473 56.995C34.4076 56.9553 34.4076 56.8759 34.3679 56.8361C34.2885 56.5979 34.3679 56.32 34.4869 56.1214Z" fill="url(#paint3_linear)"/>
<path d="M102.866 31.0276C102.826 30.9879 102.826 30.9482 102.866 30.8688C102.945 30.5511 103.064 30.1144 103.382 29.7967C103.699 29.4791 104.215 29.2805 105.088 29.7173C105.128 29.7173 105.247 29.8364 105.287 29.8761C106.041 31.4246 106.318 33.2114 106.199 34.879C106.08 36.5863 105.525 38.1746 104.85 39.604C104.136 41.0334 103.263 42.3833 102.31 43.5745C101.358 44.8054 100.286 45.9171 99.175 46.9892C98.0638 48.0612 96.9129 49.0539 95.6826 49.9671C95.008 50.4832 94.3333 50.9994 93.619 51.4759C93.619 51.4759 92.7062 52.0318 91.4759 52.667C90.206 53.3023 88.5789 54.0567 87.1899 54.4935C85.9993 54.8906 85.2056 55.0494 84.7294 55.0891C84.2531 55.1288 84.0944 55.0097 84.1738 54.8508C84.3325 54.5332 85.3643 53.8979 86.6343 53.1038C86.4755 53.1435 88.0233 52.27 89.4916 51.2376C90.9997 50.2053 92.4284 49.0538 92.4284 49.0538C92.984 48.6568 93.5396 48.2597 94.0952 47.823C95.2461 46.9495 96.3176 45.9965 97.3494 45.0436C98.3813 44.051 99.3734 43.0186 100.207 41.9069C101.08 40.7951 101.834 39.6437 102.429 38.4128C103.025 37.1819 103.421 35.9114 103.54 34.6408C103.62 33.4099 103.421 32.179 102.866 31.0276Z" fill="url(#paint4_linear)"/>
<path d="M95.2456 37.6981C95.2456 37.6584 95.2457 37.6584 95.325 37.6584C95.5235 37.579 95.8806 37.5393 96.3569 37.579C96.7934 37.6187 97.3093 37.7775 97.7855 38.254C97.7855 38.254 97.8649 38.3731 97.8649 38.4128C97.8649 38.4525 97.7856 38.651 97.6665 39.0481C97.5474 39.4054 97.349 39.9216 97.0315 40.4775C96.714 41.0334 96.3172 41.629 95.8409 42.2245C95.3647 42.8201 94.8091 43.376 94.2535 43.9319C93.1026 45.0039 91.8724 45.8774 90.9199 46.5127C89.9675 47.148 89.3325 47.5054 89.3325 47.5054C89.3325 47.5054 88.8959 47.7039 88.261 47.9421C87.626 48.1804 86.872 48.4186 86.1577 48.5774C83.9353 49.173 84.4115 48.2201 85.483 47.2671C85.4036 47.2671 86.0783 46.751 86.7132 46.2348C87.3879 45.7186 88.0229 45.1627 88.0229 45.1627C88.0229 45.1627 88.1816 45.0833 88.4197 44.9245C88.6578 44.7657 89.0547 44.5275 89.4515 44.2495C90.3246 43.6539 91.3962 42.8598 92.3883 41.9466C92.8645 41.5098 93.3408 41.0334 93.6979 40.5569C94.0948 40.0804 94.3726 39.6437 94.6107 39.2069C95.1266 38.2937 95.2456 37.7378 95.2456 37.6981Z" fill="url(#paint5_linear)"/>
<defs>
<linearGradient id="paint0_linear" x1="40.6512" y1="4.68408" x2="40.6512" y2="47.5848" gradientUnits="userSpaceOnUse">
<stop stop-color="#0852E3"/>
<stop offset="1" stop-color="#B65DFC"/>
</linearGradient>
<linearGradient id="paint1_linear" x1="41.3379" y1="0" x2="41.3379" y2="53.223" gradientUnits="userSpaceOnUse">
<stop stop-color="#0852E3"/>
<stop offset="1" stop-color="#B65DFC"/>
</linearGradient>
<linearGradient id="paint2_linear" x1="41.0896" y1="52.3891" x2="41.0896" y2="61.0449" gradientUnits="userSpaceOnUse">
<stop stop-color="#0852E3"/>
<stop offset="1" stop-color="#B65DFC"/>
</linearGradient>
<linearGradient id="paint3_linear" x1="41.0744" y1="55.2876" x2="41.0744" y2="58.1232" gradientUnits="userSpaceOnUse">
<stop stop-color="#0852E3"/>
<stop offset="1" stop-color="#B65DFC"/>
</linearGradient>
<linearGradient id="paint4_linear" x1="95.1901" y1="29.4649" x2="95.1901" y2="55.0968" gradientUnits="userSpaceOnUse">
<stop stop-color="#0852E3"/>
<stop offset="1" stop-color="#B65DFC"/>
</linearGradient>
<linearGradient id="paint5_linear" x1="91.2245" y1="37.5634" x2="91.2245" y2="48.7622" gradientUnits="userSpaceOnUse">
<stop stop-color="#0852E3"/>
<stop offset="1" stop-color="#B65DFC"/>
</linearGradient>
</defs>
</svg>
