<svg width="87" height="65" viewBox="0 0 87 65" fill="none" xmlns="http://www.w3.org/2000/svg">
<path d="M59.6874 6.83494C59.6874 6.87464 59.7271 6.87464 59.6874 6.95406C59.6477 7.15258 59.5683 7.43052 59.3699 7.54964C59.1715 7.66875 58.854 7.66875 58.4571 7.50993L58.3777 7.47022C58.3777 7.47022 58.3381 7.43052 58.2984 7.35111C58.2587 7.3114 58.2587 7.2717 58.219 7.19229C58.1793 7.15258 58.1396 7.07317 58.0999 6.99376C57.9015 6.71582 57.6237 6.35847 57.1872 5.96142L57.1078 5.88201L56.9887 5.8026C56.6316 5.48495 56.2347 5.20702 55.7982 4.92908C54.9648 4.3732 54.0123 3.89674 53.0599 3.49968C52.1074 3.10263 51.1153 2.70557 50.0834 2.42763C45.9561 1.27618 41.432 1.15706 36.9475 1.95117C32.463 2.74528 27.9785 4.41291 23.8512 6.87464C22.8194 7.47022 21.8272 8.14522 20.8351 8.85992C19.8429 9.57461 18.8905 10.329 17.9777 11.1231C17.0649 11.9172 16.1918 12.7908 15.3981 13.704C14.6044 14.6172 13.8901 15.6098 13.3742 16.6819C12.8583 17.7539 12.5408 18.9054 12.5805 20.0569C12.5805 20.2157 12.5804 20.3348 12.6201 20.4936C12.6201 20.6524 12.6598 20.7715 12.6598 20.9304C12.6598 21.0892 12.7392 21.2083 12.7392 21.3274C12.7789 21.4465 12.8186 21.6054 12.8582 21.7245C13.0567 22.2804 13.2948 22.7965 13.652 23.273C14.3266 24.2259 15.2394 25.0597 16.2315 25.8141C17.2237 26.5288 18.3349 27.1641 19.4858 27.6803C21.7875 28.7523 24.248 29.5862 26.7482 30.2612C27.3832 30.42 28.0182 30.5788 28.6532 30.6979L29.6056 30.9361C29.9231 31.0156 30.2406 31.0553 30.5581 31.095C31.193 31.2141 31.828 31.3332 32.5027 31.4126C33.1376 31.492 33.8123 31.5714 34.4473 31.6508C35.7569 31.8494 37.0665 31.8494 38.3762 31.9288C38.6936 31.9685 39.0508 31.9685 39.3683 31.9685H40.3604H41.3526H41.8288L42.305 31.9288C43.6147 31.8494 44.964 31.8097 46.2736 31.6905C46.9483 31.6111 47.5832 31.5714 48.2579 31.492L50.2422 31.2141C52.9011 30.817 55.5204 30.4597 58.0999 29.8244C59.3699 29.5068 60.6398 29.1494 61.8701 28.6729C63.0607 28.1965 64.2512 27.6406 65.2434 26.8862C65.7196 26.5288 66.1958 26.0921 66.553 25.6156C66.9102 25.1392 67.188 24.623 67.3864 24.0274L67.4658 23.8289C67.5055 23.7495 67.5054 23.67 67.5054 23.6303L67.6245 23.1936C67.6642 22.8759 67.7039 22.598 67.7039 22.2804C67.7436 21.6848 67.6642 21.0495 67.5451 20.4539L67.4261 19.9774C67.3864 19.8186 67.3467 19.6598 67.307 19.5407C67.2276 19.223 67.1086 18.9451 66.9895 18.6275C66.7514 18.0319 66.5133 17.4363 66.1958 16.8804C65.8783 16.3245 65.5609 15.7687 65.164 15.2525C64.9656 15.0143 64.8068 14.7363 64.6084 14.4981L63.9734 13.7834C62.2273 11.9172 60.0049 10.5673 57.584 9.69373C56.3935 9.25697 55.1235 8.89962 53.8536 8.62168C52.5836 8.34375 51.3137 8.10551 50.0041 7.94669C48.6944 7.78787 47.4245 7.54964 46.1149 7.50993L45.1624 7.43052C44.8449 7.39081 44.5274 7.35111 44.2099 7.35111C43.575 7.3114 42.9003 7.3114 42.2654 7.2717C41.6304 7.23199 40.9557 7.2717 40.3208 7.2717C39.6858 7.2717 39.0111 7.2717 38.3762 7.31141C37.7412 7.35111 37.1062 7.39081 36.4315 7.43052C36.1141 7.43052 35.7966 7.47022 35.4791 7.47022L34.5266 7.54964C33.8917 7.62905 33.2567 7.66875 32.6217 7.74816C31.9868 7.82758 31.3518 7.90699 30.7168 8.0261L29.7644 8.14522L28.8119 8.30404C28.1769 8.42316 27.542 8.54227 26.9467 8.62168C25.6767 8.85992 24.4465 9.09815 23.2559 9.37609C22.0256 9.65403 20.8351 10.0114 19.6842 10.3687C17.3427 11.1231 15.0806 12.1158 13.0964 13.426L12.3423 13.9422L11.628 14.4981C11.3899 14.6569 11.1915 14.8951 10.9533 15.054C10.7152 15.2525 10.5168 15.451 10.3184 15.6495L9.72308 16.2848C9.52465 16.5231 9.32622 16.7216 9.12779 16.9598C8.77062 17.3966 8.41345 17.8731 8.09596 18.3495C7.50068 19.3024 7.06414 20.3348 7.02446 21.3671C6.98477 22.3995 7.34194 23.3921 7.97691 24.2259C8.61188 25.0597 9.48496 25.7744 10.4374 26.37C11.3899 26.9656 12.382 27.4421 13.4138 27.8788C15.4775 28.7126 17.6602 29.3479 19.8032 29.7847C21.9463 30.2612 24.129 30.5788 26.2323 30.7773C27.3038 30.8964 28.3357 30.9361 29.3675 30.9759C30.3993 30.9759 31.4708 30.9759 32.5027 30.9361C34.5663 30.8964 36.5903 30.7773 38.5746 30.6185C40.5589 30.42 42.4638 30.1817 44.329 29.7847C45.2418 29.6259 46.1545 29.3876 47.0673 29.1494C47.9404 28.9112 48.8135 28.6332 49.6866 28.3553C50.52 28.0774 51.3534 27.72 52.1471 27.3627C52.9408 27.0053 53.6948 26.6083 54.4489 26.1715C55.2029 25.7744 55.8775 25.298 56.5522 24.8215C56.6316 24.7818 56.7506 24.6627 56.7109 24.7024L56.7506 24.6627C56.9491 24.5039 57.1078 24.3847 57.2665 24.2656C57.4253 24.1465 57.5047 24.0671 57.584 24.0274C57.6634 23.948 57.7031 23.948 57.7031 23.948C57.7031 23.948 57.8221 23.8686 57.9809 23.7495C58.0603 23.67 58.1793 23.5906 58.2984 23.5112C58.4174 23.4318 58.5365 23.3127 58.6952 23.1936C58.854 23.0745 58.973 22.9554 59.1318 22.8362C59.2905 22.7171 59.4493 22.598 59.608 22.4392C59.9255 22.2009 60.243 21.923 60.5208 21.6848C60.6398 21.5657 60.7589 21.4862 60.8383 21.4068C60.9176 21.3274 61.0367 21.248 61.1161 21.1686C61.2748 21.0098 61.3939 20.9304 61.5129 20.851C61.7113 20.6921 61.8304 20.6921 61.8304 20.8113C61.8304 20.8907 61.751 21.0892 61.632 21.3671C61.5129 21.6451 61.3145 21.9627 61.0764 22.2804C61.1161 22.2407 60.997 22.4392 60.7589 22.7171C60.5208 22.9951 60.2033 23.3524 59.8858 23.7495C59.5286 24.1068 59.2111 24.5039 58.9333 24.7421C58.6555 25.02 58.4571 25.1789 58.4571 25.1789C58.4571 25.1789 58.4174 25.2186 58.3381 25.2583C58.2587 25.3377 58.1396 25.4171 57.9809 25.5362C57.9015 25.5759 57.8221 25.6553 57.7428 25.7347C57.7031 25.7744 57.6634 25.8141 57.6237 25.8538C57.584 25.8538 57.584 25.8936 57.5443 25.8936C57.465 25.973 57.3856 26.0127 57.3062 26.0524C57.1475 26.1715 56.9887 26.2906 56.7903 26.4097C56.4728 26.648 56.1157 26.8465 55.7585 27.0847C52.9408 28.7921 49.6072 30.0626 46.0752 30.8964C42.5035 31.7303 38.6539 32.167 34.6854 32.3258C33.6932 32.3655 32.7011 32.4052 31.6693 32.4052C31.1533 32.4052 30.6374 32.4052 30.1215 32.4052C29.6056 32.4052 29.0897 32.4052 28.5341 32.4052C26.4308 32.3258 24.3274 32.0876 22.1844 31.7303C20.0414 31.3729 17.8983 30.8964 15.7553 30.2612C14.6838 29.9435 13.6123 29.5465 12.5408 29.1097C12.0249 28.8715 11.4693 28.6332 10.9533 28.3553C10.4374 28.0774 9.92151 27.7994 9.4056 27.4818C8.41346 26.8465 7.46099 26.0524 6.70696 25.02C6.34979 24.5039 5.99263 23.9083 5.7942 23.3127C5.59577 22.6774 5.47671 22.0024 5.51639 21.3274C5.59576 19.9774 6.11168 18.7466 6.74665 17.6745C7.06414 17.1584 7.42131 16.6422 7.81817 16.1657C8.21503 15.6893 8.61187 15.2525 9.04842 14.776L9.36591 14.4584C9.48497 14.3393 9.60402 14.2599 9.72308 14.1407C9.96119 13.9422 10.1993 13.704 10.4374 13.5452L11.1915 12.9893C11.4296 12.7908 11.7074 12.6319 11.9455 12.4334C12.1836 12.2746 12.4614 12.0761 12.7392 11.9172C13.017 11.7584 13.2551 11.5996 13.5329 11.4408C14.0885 11.1628 14.6441 10.8452 15.1997 10.607C15.7553 10.329 16.3506 10.0908 16.9062 9.85255C17.5015 9.65402 18.0571 9.41579 18.6524 9.21727C19.8429 8.82021 21.0335 8.46286 22.2638 8.14522C23.494 7.82758 24.7243 7.58934 25.9545 7.35111C26.5895 7.23199 27.1848 7.11288 27.8198 7.03347C28.4547 6.91435 29.05 6.79523 29.685 6.71582C30.9549 6.557 32.2249 6.35847 33.4948 6.23936C34.1298 6.15995 34.7648 6.12024 35.3997 6.04083C36.0347 6.00112 36.6697 5.96142 37.3443 5.92171L38.2968 5.88201C38.6143 5.88201 38.9317 5.88201 39.2492 5.88201C39.8842 5.88201 40.5589 5.88201 41.1938 5.8423C41.8288 5.8423 42.5035 5.88201 43.1384 5.88201C43.7734 5.92171 44.4481 5.92171 45.083 5.96142C45.718 6.00112 46.3927 6.08054 47.0276 6.12024C47.3451 6.12024 47.6626 6.19965 48.0198 6.23936L49.0119 6.35847C50.3215 6.5173 51.5915 6.71582 52.9011 6.95406C55.4807 7.47023 58.0999 8.18492 60.5208 9.4555C61.7113 10.0908 62.8622 10.8849 63.8941 11.7981C64.9259 12.7113 65.799 13.7834 66.553 14.9348C67.307 16.0863 67.9023 17.3172 68.3785 18.6275C68.577 19.3025 68.7754 19.9774 68.8944 20.6921C68.9738 21.0495 68.9738 21.4068 69.0135 21.7642C69.0135 21.923 69.0135 22.1215 69.0135 22.3201C69.0135 22.5186 69.0135 22.6774 68.9738 22.8759L68.8944 23.4318C68.8548 23.6303 68.8151 23.7892 68.7754 23.9877L68.696 24.2656L68.6167 24.5436C68.5373 24.7024 68.4976 24.9009 68.4182 25.0597L68.2595 25.4568C68.2198 25.5362 68.1801 25.6156 68.1404 25.695L67.9817 25.9333L67.6642 26.4097L67.307 26.8465C66.3149 27.9582 65.1243 28.7126 63.8941 29.3082C62.6638 29.9038 61.3542 30.3803 60.0445 30.7773C58.7349 31.1744 57.4253 31.4523 56.1157 31.6905C54.806 31.9288 53.4964 32.167 52.1868 32.3655L51.1946 32.5244L50.2025 32.6832L48.2182 32.9611C42.9003 33.5964 37.5427 33.5964 32.3042 32.8817C31.6693 32.7626 30.9946 32.6435 30.3596 32.5244L29.3675 32.3655L28.415 32.1273C27.7801 31.9685 27.1451 31.8097 26.4704 31.6508C25.8355 31.492 25.2005 31.2935 24.5655 31.095C22.0653 30.3406 19.5651 29.4273 17.2634 28.1171C16.1125 27.4818 15.0013 26.7274 14.0091 25.8141C13.017 24.9009 12.1439 23.7892 11.628 22.4789C11.3502 21.8436 11.1915 21.1289 11.1518 20.4142C11.1121 19.6995 11.1518 19.0245 11.3105 18.3495C11.5883 16.9995 12.1836 15.7687 12.8979 14.6569C14.3266 12.4334 16.2315 10.6864 18.1365 9.13786C18.6127 8.7408 19.1286 8.38345 19.6048 7.9864C20.081 7.62905 20.597 7.2717 21.1129 6.91435C22.1447 6.19965 23.1765 5.56436 24.248 4.96878C28.5341 2.62616 33.1376 1.03794 37.7809 0.36295C42.4241 -0.312043 47.107 -0.0738095 51.3534 1.31588C52.4249 1.67323 53.4567 2.07028 54.4489 2.54675C55.441 3.02322 56.3935 3.53939 57.3062 4.21438C57.4253 4.29379 57.5443 4.3732 57.6237 4.45261C57.7428 4.53202 57.8618 4.61143 57.9412 4.73055L58.0206 4.80996L58.0603 4.84967L58.1396 4.92908C58.6555 5.40554 59.0127 5.8423 59.2508 6.19965C59.2905 6.27906 59.3699 6.35847 59.4096 6.43788C59.4493 6.51729 59.4889 6.59671 59.5286 6.63641C59.6477 6.75553 59.6477 6.79523 59.6874 6.83494Z" fill="url(#paint0_linear)"/>
<path d="M26.8674 14.9745C26.8277 14.9745 26.8277 14.9745 26.7881 14.9348C26.7087 14.8951 26.6293 14.8157 26.5499 14.7363C26.5499 14.6966 26.5103 14.6966 26.5103 14.6569H26.4706C26.4706 14.6569 26.4309 14.6569 26.2721 14.5378C26.034 14.2598 26.3515 13.9025 26.3515 13.9819C26.4309 13.9422 26.3912 13.9819 26.3912 13.9422H26.4309H26.4706C26.5103 13.9819 26.5499 14.0613 26.5499 14.101C26.5896 14.2201 26.5896 14.3393 26.5499 14.4981L26.5103 14.5378V14.5775C26.5103 14.5775 26.5103 14.6172 26.5103 14.4981C26.5103 14.4584 26.5103 14.379 26.5103 14.3393C26.5103 14.2598 26.5103 14.2598 26.5103 14.101V13.9025C26.5103 13.9025 26.5103 13.9025 26.5103 13.8628L26.5499 13.8231C26.5896 13.7437 26.669 13.6643 26.7881 13.5849C26.7881 13.5849 26.8674 13.5451 26.9071 13.5451L29.2486 13.5054H30.9154H31.3519H31.471H31.5503C31.59 13.5054 31.59 13.5054 31.6694 13.5054L32.5028 13.4657L42.1464 13.1084C43.7735 13.0687 45.361 12.9893 46.9881 12.9099L50.401 12.751C50.401 12.751 52.5838 12.7907 54.0918 12.9496C56.6714 13.1481 55.6395 13.5054 54.0918 13.7437C54.2505 13.7834 50.282 14.1804 50.282 14.1804L46.7103 14.3393C45.1229 14.4187 43.5354 14.4981 41.9877 14.5378L32.5028 14.8951L31.6694 14.9348H31.59H31.5503V14.6966V14.4584V14.3393C31.5107 14.6172 31.6297 13.7437 31.4313 14.9348H31.471V14.8157L31.5107 14.5775C31.5107 14.5775 31.5107 14.6569 31.5107 14.6966C31.5107 14.7363 31.5107 14.6966 31.5107 14.6569V14.6172V14.7363V14.8951V14.9348C31.59 14.101 31.5107 14.6966 31.5503 14.5378V14.5775V14.776V14.8951C31.5503 14.9348 31.5503 14.8951 31.5503 14.8951H31.5107H31.4313H31.0344H29.3676L26.8674 14.9745Z" fill="url(#paint1_linear)"/>
<path d="M27.6609 18.5877C27.6212 18.5877 27.6212 18.5877 27.5815 18.548C27.5021 18.5083 27.4227 18.4289 27.3434 18.3495C27.3037 18.3098 27.264 18.2701 27.264 18.1907V18.0319C27.264 17.9922 27.264 17.9525 27.264 17.9128V17.873L27.3037 17.7142V17.6745C27.3037 17.7142 27.3037 17.7142 27.3037 17.7539C27.3037 17.873 27.3037 17.9922 27.2243 18.1113C27.2243 18.1113 27.1846 18.1113 27.1449 18.1113C27.1449 18.1113 27.1053 18.1113 27.0656 18.0716C27.0656 18.0319 27.0259 17.9922 27.0259 17.9525C27.0259 17.873 27.0656 17.7936 27.0656 17.7539C27.1449 17.6745 27.1846 17.6745 27.1846 17.6745C27.2243 17.6745 27.1846 17.6745 27.1846 17.6745L27.2243 17.6348C27.264 17.5951 27.264 17.5554 27.3037 17.5157C27.383 17.4363 27.4624 17.3569 27.5418 17.3172C27.5418 17.3172 27.6212 17.2775 27.6609 17.2775L28.7324 17.3172L29.2483 17.3569H29.5261H29.6451H29.7245H29.7642V17.5554V17.7539V17.873V17.9922V18.0319V18.0716V18.1113V18.151C29.7642 18.1907 29.7642 18.1907 29.7642 18.2304C29.7245 18.4289 29.7245 18.6274 29.7245 18.7863L29.8436 17.3966H30.0817C33.3756 17.6348 36.6695 17.6745 39.9634 17.7142C41.6302 17.7142 43.2574 17.7142 44.9242 17.6745L48.853 17.6348C48.853 17.6348 49.4086 17.6745 50.123 17.7142C50.8373 17.7539 51.7898 17.873 52.5438 17.9525C55.1234 18.2304 54.0916 18.548 52.5041 18.7466C52.5835 18.7466 51.631 18.826 50.6786 18.9054C49.7261 18.9848 48.6943 19.0642 48.6943 19.0642L44.686 19.1039L42.2255 19.1436H39.765C36.5108 19.1436 33.2169 19.0642 29.9229 18.826H29.6848L29.8039 17.3966H29.8436C29.8833 17.3966 29.9229 17.3966 29.9626 17.4363C30.0023 17.4363 30.0023 17.4363 30.042 17.476C30.042 17.476 30.0817 17.476 30.2007 17.5554C30.3992 17.3569 30.677 18.6672 30.1214 18.7466C29.8832 18.8657 29.8436 18.826 29.8039 18.826H29.7642H29.7245H29.6451H29.5261H29.2483L28.7324 18.7863L27.6609 18.5877Z" fill="url(#paint2_linear)"/>
<path d="M27.9783 21.7244C27.9386 21.7244 27.9386 21.7244 27.8989 21.6847C27.5814 21.4465 27.2242 20.9303 28.018 20.3745C28.018 20.3745 28.0973 20.3348 28.137 20.3348L28.6926 20.3745C28.891 20.3745 29.0498 20.4142 29.2482 20.4142H30.3991C31.1928 20.3745 31.9469 20.3745 32.7406 20.2951L33.3755 20.2553L34.0105 20.1759C34.0105 20.1759 34.5264 20.1759 35.2805 20.1362C35.9948 20.1362 36.9473 20.1362 37.7013 20.1759C40.3206 20.2553 39.2887 20.6524 37.741 20.97C37.8204 20.97 36.9076 21.1289 35.9154 21.2877C34.963 21.4465 33.9708 21.6053 33.9708 21.6053C33.6137 21.645 33.2168 21.6847 32.8199 21.6847C32.0262 21.7642 31.1928 21.7642 30.3991 21.8039H29.1688C28.9704 21.8039 28.772 21.8039 28.5736 21.7642L27.9783 21.7244Z" fill="url(#paint3_linear)"/>
<path d="M11.985 62.224C11.8659 62.4225 11.5484 62.7402 11.0325 62.9784H10.9928C10.9928 62.9784 10.9135 62.8593 10.7944 62.7005C10.715 62.6211 10.6754 62.5417 10.596 62.4622C10.5166 62.3828 10.4372 62.2637 10.3579 62.1843C10.2785 62.1049 10.1991 61.9858 10.1198 61.9064C10.0404 61.827 9.961 61.7475 9.88163 61.6681C9.72289 61.549 9.64352 61.4299 9.64352 61.4299C9.64352 61.4299 9.60384 61.3505 9.56415 61.2314C9.52447 61.1123 9.4451 60.9534 9.40541 60.8343C9.24667 60.3579 9.52446 60.2387 9.84195 60.3182C9.84195 60.2785 10.5166 60.5564 10.4769 60.5564C10.4769 60.5564 10.596 60.6358 10.715 60.7946C10.7944 60.874 10.8738 60.9534 10.9928 61.0329C11.0722 61.1123 11.1913 61.2314 11.2706 61.3505C11.35 61.4696 11.4691 61.549 11.5484 61.6681C11.6278 61.7873 11.7072 61.8667 11.7866 61.9461C11.8659 62.1049 11.985 62.1843 11.985 62.224Z" fill="url(#paint4_linear)"/>
<path d="M7.81817 58.2535C7.85785 58.2535 7.85785 58.2535 7.81817 58.2535C7.65942 58.4123 7.34194 58.7299 6.82602 58.8887H6.78633C6.78633 58.849 5.51638 56.6255 5.51638 56.6255C5.51638 56.6255 5.43701 56.1888 5.43701 55.8711C5.43701 55.3152 5.7545 55.355 6.0323 55.5138C6.0323 55.4741 6.5879 56.0299 6.5879 56.0299C6.5879 56.0299 7.81817 58.2138 7.81817 58.2535Z" fill="url(#paint5_linear)"/>
<path d="M3.92899 51.98C3.77024 52.0991 3.37339 52.3374 2.81778 52.4565H2.77809C2.77809 52.4565 2.73841 52.2977 2.65904 52.1388C2.57967 51.9403 2.46061 51.7021 2.38123 51.4241C2.34155 51.305 2.30187 51.1462 2.22249 51.0271C2.18281 50.908 2.14311 50.7889 2.10343 50.6697C2.02406 50.4712 1.98438 50.3124 1.98438 50.3124C1.98438 50.3124 1.98438 50.233 2.02406 50.0742C2.06375 49.9551 2.10343 49.7565 2.14312 49.5977C2.30186 49.1212 2.61935 49.2404 2.81778 49.4389C2.85747 49.3992 3.17495 49.9551 3.17495 49.9551C3.17495 49.9551 3.21465 50.0742 3.25433 50.2727C3.29402 50.3521 3.3337 50.4712 3.37338 50.5903C3.41307 50.7095 3.45275 50.8286 3.49244 50.9477C3.57181 51.1859 3.69087 51.4638 3.77024 51.6227C3.84962 51.8212 3.8893 51.98 3.92899 51.98Z" fill="url(#paint6_linear)"/>
<path d="M1.23026 44.0389C1.23026 44.0389 1.23026 44.0786 1.23026 44.0389C1.03183 44.1183 0.5556 44.1977 0.039688 44.0389H0C0 43.9992 0 41.6566 0 41.6566C0 41.6566 0.119052 41.2595 0.31748 41.0213C0.595279 40.5845 0.873083 40.7434 0.992139 41.0213C1.03182 40.9816 1.23026 41.6963 1.23026 41.6963V44.0389Z" fill="url(#paint7_linear)"/>
<path d="M2.77776 38.5199C2.65871 38.5596 2.49996 38.639 2.30153 38.6787C2.1031 38.7184 1.86499 38.7581 1.58719 38.7184H1.5475C1.5475 38.7184 1.50781 38.5199 1.50781 38.2419C1.50781 38.1228 1.50781 37.964 1.50781 37.8052C1.5475 37.6463 1.5475 37.4875 1.58719 37.3287C1.66656 37.0111 1.74593 36.6934 1.82531 36.4552C1.90468 36.2169 1.98405 36.0978 1.98405 36.0978C1.98405 36.0978 2.26185 35.7802 2.57933 35.6214C3.05556 35.3434 3.17462 35.6611 3.17462 35.9787C3.17462 35.9787 3.17462 36.1375 3.13493 36.2964C3.13493 36.3758 3.09525 36.4552 3.09525 36.5346C3.09525 36.614 3.09525 36.6537 3.09525 36.6537C3.09525 36.6537 3.05556 36.7728 2.97619 36.9714C2.93651 37.0508 2.89682 37.1699 2.89682 37.289C2.85713 37.4081 2.85714 37.5272 2.81745 37.6463C2.77777 37.7655 2.77776 37.8846 2.77776 38.0037C2.77776 38.1228 2.77776 38.2022 2.77776 38.3213C2.73808 38.4007 2.77776 38.5199 2.77776 38.5199Z" fill="url(#paint8_linear)"/>
<path d="M5.75449 33.1994C5.7148 33.1994 5.7148 33.1994 5.75449 33.1994C5.51637 33.1596 5.07983 33.0008 4.76234 32.5641L4.72266 32.5244C4.72266 32.5244 4.84172 32.3655 5.04015 32.1273C5.11952 32.0082 5.23857 31.8891 5.31794 31.7303C5.437 31.6111 5.55605 31.4523 5.67511 31.2935C5.79417 31.1347 5.91323 31.0156 6.03229 30.8567C6.15135 30.7376 6.2704 30.6185 6.34977 30.4994C6.5482 30.3009 6.66725 30.142 6.66725 30.142C6.66725 30.142 6.78631 30.0626 6.94506 29.9832C7.1038 29.9038 7.30222 29.8244 7.50065 29.745C8.09594 29.5068 8.13563 29.8641 7.97688 30.2214C8.01657 30.2214 7.89751 30.42 7.77846 30.6185C7.73877 30.6979 7.6594 30.817 7.61972 30.8964C7.58003 30.9758 7.54034 31.0156 7.54034 31.0156C7.54034 31.0156 7.42129 31.1347 7.22286 31.3332C7.14349 31.4126 7.02442 31.5317 6.90537 31.6508C6.78631 31.77 6.66726 31.9288 6.58789 32.0479C6.46883 32.167 6.34977 32.3258 6.27039 32.445C6.19102 32.5641 6.07197 32.6832 5.9926 32.8023C5.83386 33.0405 5.75449 33.1994 5.75449 33.1994Z" fill="url(#paint9_linear)"/>
<path d="M37.5029 36.0581C37.5029 36.0184 37.5029 36.0184 37.5029 36.0581C37.6617 35.8993 38.0585 35.6611 38.6141 35.5817H38.6538C38.6538 35.5817 38.7332 35.7405 38.8126 35.8993C38.8523 35.9787 38.8919 36.0978 38.9713 36.217C39.0507 36.3361 39.0904 36.4552 39.1698 36.5743C39.2888 36.8125 39.4476 37.0905 39.5666 37.2493C39.6857 37.4478 39.7254 37.5669 39.7254 37.5669C39.7254 37.5669 39.8047 37.964 39.765 38.2816C39.765 38.7978 39.4476 38.7978 39.1698 38.639C39.1698 38.639 39.011 38.5596 38.8919 38.4405C38.7729 38.3213 38.6141 38.2022 38.6141 38.2022C38.6141 38.2022 38.5348 38.0831 38.4157 37.8846C38.2966 37.6861 38.1776 37.4478 38.0188 37.1699C37.9395 37.0508 37.8601 36.8919 37.8204 36.7728C37.741 36.6537 37.7014 36.5346 37.6617 36.4155C37.5823 36.1772 37.5029 36.0581 37.5029 36.0581Z" fill="url(#paint10_linear)"/>
<path d="M42.8604 43.4036C42.9397 43.2051 43.2175 42.8478 43.6938 42.5301L43.7334 42.4904C43.7334 42.4904 43.8128 42.5698 43.9715 42.6889C44.0906 42.8081 44.289 42.9669 44.4478 43.086C44.6065 43.2448 44.8446 43.3639 44.9637 43.4433C45.1224 43.5228 45.2018 43.6022 45.2018 43.6022C45.2018 43.6022 45.4002 43.8404 45.5193 44.1183C45.7574 44.5154 45.5193 44.7139 45.2415 44.7536C45.2415 44.7536 45.0828 44.7536 44.924 44.7536C44.8446 44.7536 44.7653 44.7139 44.6859 44.7139C44.6065 44.7139 44.5668 44.7139 44.5668 44.7139C44.5668 44.7139 44.4478 44.6345 44.289 44.5551C44.1303 44.436 43.8922 44.3169 43.6938 44.158C43.5747 44.0786 43.4953 43.9992 43.3763 43.9198C43.2572 43.8404 43.1778 43.761 43.0985 43.6816C42.9397 43.4831 42.8604 43.4036 42.8604 43.4036Z" fill="url(#paint11_linear)"/>
<path d="M49.21 45.7065C49.091 45.508 48.9322 45.0713 49.0116 44.5154V44.4757C49.0116 44.4757 49.21 44.436 49.4481 44.3963C49.7259 44.3566 50.0831 44.3169 50.4006 44.2374C50.5593 44.1977 50.7578 44.1977 50.9165 44.158C51.0752 44.1183 51.234 44.0786 51.353 44.0786C51.5912 44.0389 51.7896 43.9992 51.7896 43.9992C51.7896 43.9992 51.9087 43.9992 52.0674 44.0389C52.2261 44.0389 52.4246 44.0786 52.5833 44.1183C53.1786 44.2374 53.0595 44.5551 52.7817 44.7933C52.8214 44.7933 52.0277 45.2698 52.0277 45.2301C52.0277 45.2301 51.869 45.2698 51.5912 45.3095C51.4721 45.3492 51.3134 45.3889 51.1546 45.3889C50.9959 45.4286 50.7975 45.4286 50.6387 45.4683C50.2815 45.5477 49.9244 45.5874 49.6863 45.6271C49.4085 45.6668 49.21 45.7065 49.21 45.7065Z" fill="url(#paint12_linear)"/>
<path d="M57.4647 44.1183C57.3457 44.0389 57.2266 43.9595 57.0679 43.8007C56.9091 43.6816 56.7504 43.4831 56.6313 43.2448V43.2051C56.6313 43.2051 56.671 43.1654 56.7504 43.086C56.8298 43.0066 56.9091 42.9669 57.0282 42.8875C57.1473 42.8081 57.2663 42.7286 57.3854 42.6889C57.5044 42.6095 57.6632 42.5301 57.7822 42.4507C58.3378 42.1728 58.8537 41.8551 58.8537 41.8551C58.8537 41.8551 58.9331 41.8551 59.0918 41.8154C59.2109 41.8154 59.4093 41.7757 59.5681 41.7757C60.084 41.736 60.1237 42.0537 59.9252 42.3316C59.9649 42.3316 59.8062 42.4904 59.6871 42.6095C59.6078 42.6889 59.5681 42.7684 59.4887 42.8081C59.449 42.8478 59.4093 42.8875 59.4093 42.8875C59.4093 42.8875 59.2903 42.9669 59.0918 43.086C58.8934 43.2051 58.6156 43.3242 58.3775 43.483C58.2585 43.5625 58.0997 43.6419 58.0203 43.6816C57.9013 43.761 57.7822 43.8007 57.7028 43.8801C57.5044 44.0786 57.4647 44.1183 57.4647 44.1183Z" fill="url(#paint13_linear)"/>
<path d="M64.1716 41.1007C64.1716 41.1007 64.1319 41.1007 64.1716 41.1007C64.0525 40.9022 63.8938 40.5051 63.9335 39.9493V39.9095C63.9335 39.9095 64.0922 39.8698 64.3303 39.8301C64.4494 39.7904 64.5684 39.7904 64.7272 39.7507C64.8859 39.711 65.0447 39.6713 65.1637 39.6316C65.7987 39.4728 66.3939 39.314 66.3939 39.314C66.3939 39.314 66.513 39.314 66.6717 39.3537C66.8305 39.3934 67.0289 39.4331 67.1877 39.4728C67.7432 39.6316 67.5845 39.9493 67.3067 40.1478C67.3067 40.1478 67.148 40.2669 66.9892 40.3463C66.9099 40.386 66.8305 40.4257 66.7511 40.4654C66.6718 40.5051 66.6321 40.5448 66.6321 40.5448C66.6321 40.5448 66.0368 40.7037 65.4018 40.8228C65.2431 40.8625 65.0843 40.9022 64.9256 40.9419C64.7669 40.9816 64.6478 40.9816 64.5287 41.0213C64.3303 41.061 64.1716 41.1007 64.1716 41.1007Z" fill="url(#paint14_linear)"/>
<path d="M71.593 40.0684C71.474 39.8699 71.2358 39.4728 71.2358 38.9169V38.8772C71.2358 38.8772 71.4343 38.7978 71.7121 38.7581C71.8708 38.7184 72.0296 38.7184 72.1883 38.6787C72.347 38.6787 72.5455 38.639 72.7439 38.639C72.9423 38.639 73.1011 38.639 73.2598 38.639C73.4185 38.639 73.5773 38.6787 73.6964 38.6787C73.9742 38.7184 74.1329 38.7184 74.1329 38.7184C74.1329 38.7184 74.252 38.7581 74.371 38.8375C74.5298 38.9169 74.6885 39.036 74.8075 39.1552C75.2838 39.5125 75.006 39.7507 74.6885 39.8301C74.6885 39.8301 74.4901 39.8698 74.3313 39.9096C74.1329 39.9493 73.9345 39.9493 73.9345 39.9493C73.9345 39.9493 73.7757 39.9493 73.5376 39.9096C73.4185 39.9096 73.2995 39.9096 73.1407 39.8699C72.982 39.8699 72.863 39.8699 72.7042 39.8699C72.5455 39.8699 72.4264 39.8698 72.2677 39.9096C72.1486 39.9493 71.9899 39.9493 71.9105 39.9493C71.7518 40.0287 71.6327 40.0684 71.593 40.0684Z" fill="url(#paint15_linear)"/>
<path d="M80.1256 42.1331C80.086 42.1331 80.086 42.1331 80.1256 42.1331C80.086 42.0139 80.0859 41.8551 80.0859 41.6566C80.0859 41.4581 80.1653 41.2198 80.2844 40.9816L80.3241 40.9419C80.3241 40.9419 80.4034 40.9419 80.4828 40.9816C80.6018 41.0213 80.7209 41.061 80.9193 41.1007C81.2368 41.2198 81.6734 41.4184 82.0305 41.6963C82.3877 41.9742 82.7052 42.2522 82.9433 42.4904C83.0624 42.6095 83.1417 42.7286 83.1814 42.7683C83.2211 42.8478 83.2608 42.8875 83.2608 42.8875C83.2608 42.8875 83.3401 43.0066 83.3798 43.2051C83.4592 43.4036 83.4989 43.6419 83.5386 43.8404C83.6179 44.5154 83.2608 44.436 82.9433 44.1977C82.9433 44.2374 82.7846 44.0786 82.6258 43.9198C82.4671 43.761 82.2686 43.6419 82.2686 43.6419C82.2686 43.6419 82.1496 43.483 81.9908 43.3242C81.7924 43.1257 81.5543 42.8875 81.2765 42.6889C80.9987 42.4904 80.7209 42.3316 80.4828 42.2522C80.3637 42.2125 80.2844 42.1728 80.205 42.1728C80.1653 42.1331 80.1256 42.1331 80.1256 42.1331Z" fill="url(#paint16_linear)"/>
<path d="M80.7209 45.508C80.6812 45.508 80.6812 45.508 80.6415 45.508C80.4828 45.4683 80.2843 45.3889 80.1653 45.2301C80.0462 45.0713 79.9669 44.8331 80.205 44.436C80.205 44.436 80.2447 44.3566 80.2843 44.3566C80.9987 44.0787 81.7527 43.9198 82.5464 43.9198C82.9036 43.9198 83.2608 43.9595 83.618 44.039L83.8958 44.1184L84.1736 44.1978H84.2133L84.1339 44.1184L84.0942 44.039V43.9992C84.0942 43.9992 84.0942 43.9992 84.0942 43.9198L83.9354 43.3243C83.9354 43.3243 83.8958 43.2051 83.8958 43.0066C83.8561 42.8081 83.8561 42.5301 83.8164 42.1728C83.7767 41.5375 83.737 40.7037 83.7767 40.0287C83.8164 37.7655 84.1736 38.639 84.4514 39.989C84.4514 39.9096 84.6101 40.7434 84.7688 41.5375C84.8482 41.9346 84.9673 42.3316 85.0466 42.6493C85.0863 42.8081 85.126 42.9272 85.1657 43.0066C85.2054 43.086 85.2054 43.1257 85.2054 43.1257L85.2451 43.364L85.2848 43.4831V43.5228C85.2848 43.5228 85.2848 43.5228 85.2848 43.5625V43.6022L85.6023 44.436L85.8404 45.0713L86.5944 46.9374L86.6341 47.0566V47.0963L86.5547 47.0566L86.3166 46.8977L85.761 46.5007L84.6498 45.7463C84.5704 45.6669 84.4911 45.6669 84.4117 45.6272L84.1736 45.508L83.9354 45.3889C83.8958 45.3492 83.8561 45.3492 83.8164 45.3492L83.737 45.3095L83.5386 45.2301L83.3402 45.1904C83.0624 45.111 82.7846 45.111 82.5068 45.111C81.9115 45.1507 81.2765 45.2698 80.7209 45.508Z" fill="url(#paint17_linear)"/>
<path d="M7.26244 62.7799C7.22276 62.7799 7.22276 62.7799 7.18308 62.7402C7.10371 62.6608 7.02434 62.6211 6.98465 62.502C6.90528 62.3828 6.90527 62.3034 6.90527 62.1843C6.94496 62.0652 6.98464 61.9858 7.06401 61.9064C7.14339 61.827 7.26245 61.7079 7.4212 61.6284C7.4212 61.6284 7.46087 61.5887 7.50056 61.5887C7.77836 61.6284 8.13553 61.6681 8.45302 61.6681C8.81019 61.7078 9.12768 61.7078 9.48485 61.7476C9.84202 61.7873 10.1992 61.827 10.5564 61.9064C10.7548 61.9461 10.9135 61.9858 11.112 62.0652L11.231 62.1049C11.231 62.1049 11.231 62.1049 11.2707 62.1049C11.2707 62.1049 11.2707 62.1049 11.3104 62.1049C11.3104 62.0652 11.3104 62.0255 11.3104 61.9858C11.2707 61.6681 11.2707 61.3108 11.231 60.9137C11.231 60.5564 11.1913 60.1593 11.1913 59.8417C11.1517 57.5785 11.5485 58.452 11.866 59.802C11.866 59.7623 11.9057 59.9608 11.9851 60.2388C12.0247 60.3976 12.0644 60.5564 12.1041 60.7549C12.1438 60.9534 12.1835 61.152 12.2628 61.3505C12.3025 61.5887 12.3819 61.7873 12.4216 62.0255C12.501 62.4225 12.62 62.7799 12.6994 63.0578C12.8581 63.6931 12.9772 64.1299 12.9772 64.1299L13.0963 64.7255L12.3819 64.1696L11.9851 63.8916C11.866 63.8122 11.7469 63.7328 11.6279 63.6534L11.3501 63.4946L11.231 63.4152L11.1517 63.3755L11.0723 63.3358C10.9929 63.2961 10.9135 63.2564 10.8342 63.2564L10.7151 63.2167C10.5564 63.177 10.4373 63.1372 10.2786 63.0975C9.96108 63.0181 9.64359 62.9784 9.32611 62.9387C9.00862 62.899 8.65145 62.899 8.33396 62.8593C8.01648 62.8593 7.6593 62.8593 7.26244 62.7799Z" fill="url(#paint18_linear)"/>
<defs>
<linearGradient id="paint0_linear" x1="37.2612" y1="0" x2="37.2612" y2="33.4281" gradientUnits="userSpaceOnUse">
<stop stop-color="#0852E3"/>
<stop offset="1" stop-color="#B65DFC"/>
</linearGradient>
<linearGradient id="paint1_linear" x1="40.9233" y1="12.751" x2="40.9233" y2="14.9745" gradientUnits="userSpaceOnUse">
<stop stop-color="#0852E3"/>
<stop offset="1" stop-color="#B65DFC"/>
</linearGradient>
<linearGradient id="paint2_linear" x1="40.5688" y1="17.2775" x2="40.5688" y2="19.1436" gradientUnits="userSpaceOnUse">
<stop stop-color="#0852E3"/>
<stop offset="1" stop-color="#B65DFC"/>
</linearGradient>
<linearGradient id="paint3_linear" x1="33.4212" y1="20.1362" x2="33.4212" y2="21.8039" gradientUnits="userSpaceOnUse">
<stop stop-color="#0852E3"/>
<stop offset="1" stop-color="#B65DFC"/>
</linearGradient>
<linearGradient id="paint4_linear" x1="10.6722" y1="60.2955" x2="10.6722" y2="62.9784" gradientUnits="userSpaceOnUse">
<stop stop-color="#0852E3"/>
<stop offset="1" stop-color="#B65DFC"/>
</linearGradient>
<linearGradient id="paint5_linear" x1="6.64247" y1="55.4105" x2="6.64247" y2="58.8887" gradientUnits="userSpaceOnUse">
<stop stop-color="#0852E3"/>
<stop offset="1" stop-color="#B65DFC"/>
</linearGradient>
<linearGradient id="paint6_linear" x1="2.95668" y1="49.265" x2="2.95668" y2="52.4565" gradientUnits="userSpaceOnUse">
<stop stop-color="#0852E3"/>
<stop offset="1" stop-color="#B65DFC"/>
</linearGradient>
<linearGradient id="paint7_linear" x1="0.615128" y1="40.7501" x2="0.615128" y2="44.1306" gradientUnits="userSpaceOnUse">
<stop stop-color="#0852E3"/>
<stop offset="1" stop-color="#B65DFC"/>
</linearGradient>
<linearGradient id="paint8_linear" x1="2.34122" y1="35.5148" x2="2.34122" y2="38.7348" gradientUnits="userSpaceOnUse">
<stop stop-color="#0852E3"/>
<stop offset="1" stop-color="#B65DFC"/>
</linearGradient>
<linearGradient id="paint9_linear" x1="6.38966" y1="29.6678" x2="6.38966" y2="33.1994" gradientUnits="userSpaceOnUse">
<stop stop-color="#0852E3"/>
<stop offset="1" stop-color="#B65DFC"/>
</linearGradient>
<linearGradient id="paint10_linear" x1="38.6395" y1="35.5817" x2="38.6395" y2="38.7321" gradientUnits="userSpaceOnUse">
<stop stop-color="#0852E3"/>
<stop offset="1" stop-color="#B65DFC"/>
</linearGradient>
<linearGradient id="paint11_linear" x1="44.2387" y1="42.4904" x2="44.2387" y2="44.7536" gradientUnits="userSpaceOnUse">
<stop stop-color="#0852E3"/>
<stop offset="1" stop-color="#B65DFC"/>
</linearGradient>
<linearGradient id="paint12_linear" x1="51.0004" y1="43.9992" x2="51.0004" y2="45.7065" gradientUnits="userSpaceOnUse">
<stop stop-color="#0852E3"/>
<stop offset="1" stop-color="#B65DFC"/>
</linearGradient>
<linearGradient id="paint13_linear" x1="58.3336" y1="41.7723" x2="58.3336" y2="44.1183" gradientUnits="userSpaceOnUse">
<stop stop-color="#0852E3"/>
<stop offset="1" stop-color="#B65DFC"/>
</linearGradient>
<linearGradient id="paint14_linear" x1="65.7436" y1="39.314" x2="65.7436" y2="41.1007" gradientUnits="userSpaceOnUse">
<stop stop-color="#0852E3"/>
<stop offset="1" stop-color="#B65DFC"/>
</linearGradient>
<linearGradient id="paint15_linear" x1="73.1495" y1="38.639" x2="73.1495" y2="40.0684" gradientUnits="userSpaceOnUse">
<stop stop-color="#0852E3"/>
<stop offset="1" stop-color="#B65DFC"/>
</linearGradient>
<linearGradient id="paint16_linear" x1="81.8179" y1="40.9419" x2="81.8179" y2="44.3697" gradientUnits="userSpaceOnUse">
<stop stop-color="#0852E3"/>
<stop offset="1" stop-color="#B65DFC"/>
</linearGradient>
<linearGradient id="paint17_linear" x1="83.3424" y1="38.6364" x2="83.3424" y2="47.0963" gradientUnits="userSpaceOnUse">
<stop stop-color="#0852E3"/>
<stop offset="1" stop-color="#B65DFC"/>
</linearGradient>
<linearGradient id="paint18_linear" x1="10.0008" y1="58.4493" x2="10.0008" y2="64.7255" gradientUnits="userSpaceOnUse">
<stop stop-color="#0852E3"/>
<stop offset="1" stop-color="#B65DFC"/>
</linearGradient>
</defs>
</svg>
