<svg width="100" height="99" viewBox="0 0 100 99" fill="none" xmlns="http://www.w3.org/2000/svg">
<path d="M79.5549 38.1311C76.2243 36.8775 72.6951 36.234 69.1366 36.2317C52.7648 36.2407 39.5002 49.5201 39.5093 65.8919C39.5113 69.4523 40.1547 72.9833 41.4087 76.3158L44.4883 75.1537C39.3686 61.5546 46.2427 46.3799 59.8418 41.2601C73.441 36.1403 88.6157 43.0145 93.7355 56.6136C98.8552 70.2127 91.9811 85.3875 78.3819 90.5072C72.4067 92.7569 65.8173 92.7569 59.8418 90.5072L58.6798 93.5868C73.9934 99.3514 91.0807 91.6102 96.8451 76.2966C102.61 60.9828 94.8687 43.8957 79.5549 38.1311Z" fill="#0852E3"/>
<path d="M76.5317 53.0245C69.4446 48.9371 60.3859 51.369 56.2986 58.4561C53.657 63.0364 53.657 68.6775 56.2986 73.2576L59.1477 71.6117C55.9706 66.0983 57.8645 59.0532 63.378 55.8763C68.8916 52.6994 75.9365 54.5931 79.1134 60.1066C82.2905 65.62 80.3966 72.6651 74.8833 75.842C73.1357 76.8491 71.1542 77.3797 69.137 77.3808C67.115 77.3814 65.1281 76.8499 63.3762 75.8402L61.7302 78.6893C68.8173 82.7766 77.8761 80.3447 81.9634 73.2576C86.0507 66.1705 83.6188 57.1118 76.5317 53.0245Z" fill="#0852E3"/>
<path d="M77.9421 44.6228C66.2027 39.7436 52.7309 45.3049 47.8517 57.0443C45.4963 62.7113 45.5015 69.0841 47.8659 74.7472L50.9043 73.4765C46.7137 63.4178 51.4705 51.8667 61.5292 47.6761C71.5879 43.4855 83.139 48.2425 87.3297 58.301C91.5203 68.3594 86.7632 79.9108 76.7048 84.1014C71.8525 86.123 66.3941 86.1247 61.5405 84.1061L60.2731 87.1347C72.0125 92.0139 85.4843 86.4527 90.3636 74.7132C95.2426 62.9741 89.6815 49.5021 77.9421 44.6228Z" fill="#0852E3"/>
<path d="M69.1366 59.2752C65.5004 59.2752 62.5527 62.2229 62.5527 65.859C62.5585 67.0308 62.8809 68.179 63.486 69.1822L53.7748 78.8934L46.4223 77.4137C45.787 77.2868 45.1362 77.5445 44.7599 78.0721L36.5301 89.5938C36.0023 90.3339 36.1744 91.3618 36.9144 91.8895C37.0486 91.9852 37.1965 92.0603 37.3531 92.1121L38.604 92.5285C34.3231 94.4741 29.6761 95.4824 24.9738 95.4863H4.9441C4.03512 95.4863 3.29814 94.7494 3.29814 93.8404C3.29814 92.9314 4.03512 92.1944 4.9441 92.1944H27.9875C30.7147 92.1944 32.9254 89.9837 32.9254 87.2565C32.9254 84.5294 30.7147 82.3187 27.9875 82.3187H4.9441C4.03512 82.3187 3.29814 81.5817 3.29814 80.6727C3.29814 79.7637 4.03512 79.0267 4.9441 79.0267H16.4658C21.3844 79.0214 25.5493 75.3976 26.2346 70.527C28.2563 69.8676 29.6267 67.9856 29.6335 65.859V64.2131C32.3607 64.2131 34.5714 62.0024 34.5714 59.2752V47.3239C47.0686 41.8696 52.7782 27.317 47.3239 14.8199C41.8696 2.3227 27.317 -3.38673 14.8199 2.06737C2.3227 7.52147 -3.38673 22.0742 2.06737 34.5714C4.55812 40.2781 9.11311 44.8331 14.8199 47.3239V59.2752C14.8199 62.0024 17.0306 64.2131 19.7577 64.2131V65.859C19.7631 67.8955 21.0181 69.7199 22.918 70.4529C22.2954 73.5229 19.5983 75.7309 16.4658 75.7348H4.9441C2.21695 75.7348 0.0062148 77.9455 0.0062148 80.6727C0.0062148 83.3998 2.21695 85.6106 4.9441 85.6106H27.9875C28.8965 85.6106 29.6335 86.3476 29.6335 87.2565C29.6335 88.1655 28.8965 88.9025 27.9875 88.9025H4.9441C2.21695 88.9025 0.0062148 91.1132 0.0062148 93.8404C0.0062148 96.5675 2.21695 98.7783 4.9441 98.7783H24.9738C30.8606 98.7739 36.6581 97.338 41.8663 94.5942L42.8851 97.6524C43.1092 98.3248 43.7384 98.7785 44.4472 98.7783C44.7903 98.7791 45.1251 98.6713 45.4035 98.4705L56.9252 90.2407C57.4521 89.8648 57.7097 89.2148 57.5836 88.5799L56.1104 81.2142L65.8216 71.503C66.8219 72.109 67.9671 72.4336 69.1366 72.4429C72.7727 72.4429 75.7204 69.4952 75.7204 65.859C75.7204 62.2229 72.7729 59.2752 69.1366 59.2752ZM26.3416 65.859C26.3416 66.768 25.6046 67.505 24.6956 67.505C23.7866 67.505 23.0497 66.768 23.0497 65.859V64.2131H26.3416V65.859ZM31.2795 55.9833H18.1118V54.3373H31.2795V55.9833ZM31.2795 51.0454H18.1118V48.481C20.2546 49.084 22.4695 49.3931 24.6956 49.3994C26.9218 49.3931 29.1366 49.084 31.2795 48.481V51.0454ZM23.5994 34.5858H25.7869L24.8273 46.1075C24.7829 46.1075 24.7401 46.1075 24.6956 46.1075C24.6512 46.1075 24.6084 46.1075 24.5639 46.1075L23.5994 34.5858ZM3.29814 24.71C3.28435 12.8926 12.8531 3.30143 24.6705 3.28744C36.4881 3.27365 46.0793 12.8422 46.0931 24.6598C46.1055 35.1526 38.5073 44.1064 28.1521 45.8014L29.087 34.5858H32.9254C36.5616 34.585 39.5087 31.6366 39.5078 28.0005C39.507 24.3644 36.5587 21.4173 32.9226 21.4181C29.3401 21.4189 26.4159 24.2837 26.3416 27.8653L26.0618 31.2939H23.3245L23.0497 28.0019C23.0497 24.3658 20.102 21.4181 16.4658 21.4181C12.8297 21.4181 9.88198 24.3658 9.88198 28.0019C9.88198 31.6381 12.8297 34.5858 16.4658 34.5858H20.3009L21.2358 45.8014C10.9041 44.1023 3.31645 35.1806 3.29814 24.71ZM29.3603 31.2939L29.6335 28.0019C29.6335 26.1838 31.1073 24.71 32.9254 24.71C34.7436 24.71 36.2174 26.1838 36.2174 28.0019C36.2174 29.8201 34.7436 31.2939 32.9254 31.2939H29.3603ZM20.026 31.2939H16.4658C14.6477 31.2939 13.1739 29.8201 13.1739 28.0019C13.1739 26.1838 14.6477 24.71 16.4658 24.71C18.3074 24.7329 19.7818 26.2445 19.7588 28.0859C19.7586 28.1034 19.7582 28.1211 19.7577 28.1386L20.026 31.2939ZM19.7577 60.9212C18.8488 60.9212 18.1118 60.1842 18.1118 59.2752H31.2795C31.2795 60.1842 30.5425 60.9212 29.6335 60.9212H19.7577ZM42.3568 90.3114L40.4968 89.6909L46.814 80.8488L50.9849 81.6833L42.3568 90.3114ZM45.3047 94.4988L44.6842 92.6405L53.3123 84.014L54.1452 88.1816L45.3047 94.4988ZM69.1366 69.151C68.852 69.1471 68.5691 69.1055 68.2955 69.0275L70.3003 67.0227L67.9729 64.6954L65.9681 66.7001C65.8901 66.4265 65.8486 66.1436 65.8446 65.859C65.8446 64.0409 67.3184 62.5671 69.1366 62.5671C70.9547 62.5671 72.4285 64.0409 72.4285 65.859C72.4285 67.6772 70.9547 69.151 69.1366 69.151Z" fill="#0852E3"/>
<path d="M60.8032 25.5709C60.8723 24.6854 60.9069 23.8657 60.9069 23.0641C60.9219 15.6631 58.655 8.43728 54.4152 2.37109L51.7158 4.25407C56.4745 10.9988 58.4678 19.3107 57.2857 27.4802C57.2123 28.0246 57.4156 28.5699 57.8273 28.9336C58.2402 29.2976 58.8081 29.4311 59.3399 29.2891C69.0406 26.7295 79.3589 28.0894 88.0652 33.0748L89.7112 30.224C80.9621 25.2082 70.6845 23.554 60.8032 25.5709Z" fill="#0852E3"/>
<path d="M96.3539 34.9973L94.1763 37.4662C95.3632 38.5132 96.4837 39.6337 97.5307 40.8207L99.9997 38.6398C98.8605 37.3518 97.6431 36.1354 96.3539 34.9973Z" fill="#0852E3"/>
</svg>
