<svg width="165" height="162" viewBox="0 0 165 162" fill="none" xmlns="http://www.w3.org/2000/svg">
<path opacity="0.0424572" fill-rule="evenodd" clip-rule="evenodd" d="M8.57004 161.474V122.183C17.1712 122.183 33.1815 122.183 33.1824 86.9781V73.3475H-3.05176e-05V-1.52588e-05H71.4695V73.3475V86.9781C71.4695 114.656 63.7088 135.21 48.4033 148.069C37.8155 156.964 24.4137 161.474 8.57004 161.474ZM126.71 73.3474V86.978C126.71 122.182 110.7 122.182 102.099 122.182V161.474C117.943 161.474 131.345 156.964 141.933 148.069C157.238 135.209 164.998 114.657 164.998 86.978V73.3474H165V-9.15527e-05H93.5278V73.3474H126.71Z" fill="#2E5AEF"/>
</svg>
