<svg width="40" height="60" viewBox="0 0 40 60" fill="none" xmlns="http://www.w3.org/2000/svg">
<path d="M7.3813 17.3116C7.3813 17.3513 7.3813 17.3513 7.3813 17.391C7.26225 17.7087 6.82571 18.1851 6.19075 17.6293C6.19075 17.6293 6.15106 17.5498 6.11137 17.5498L5.75422 15.4058L5.67484 14.969L5.63514 14.5322L5.51609 13.619L5.31767 11.8323L5.23829 10.6411C5.23829 10.6411 5.19863 8.65583 5.35737 7.26614C5.51611 4.88381 5.83358 5.83674 6.07169 7.26614C6.07169 7.18673 6.19074 8.06025 6.3098 8.93377C6.42885 9.80729 6.54792 10.7205 6.54792 10.7205L6.62727 11.7529L6.8257 13.5396L6.94477 14.4131L6.98445 14.8499L7.06383 15.2866L7.3813 17.3116Z" fill="url(#paint0_linear)"/>
<path d="M6.34993 6.03526C6.31024 6.03526 6.31024 6.03526 6.27055 5.99555C5.95306 5.83673 5.47684 5.43968 6.07212 4.80439C6.07212 4.80439 6.1515 4.76469 6.1515 4.72498L8.29451 4.44704L18.6922 3.09705L19.8828 2.93823C19.8828 2.93823 21.867 2.81912 23.256 2.81912C25.6372 2.77941 24.7244 3.21617 23.2957 3.53382C23.4545 3.53382 19.8828 4.20881 19.8828 4.20881L18.8509 4.32792L8.45327 5.67791L6.34993 6.03526Z" fill="url(#paint1_linear)"/>
<path d="M24.4463 3.5735C24.4463 3.53379 24.4463 3.53379 24.486 3.49409C24.6844 3.17644 25.121 2.81909 25.7162 3.49409C25.7162 3.49409 25.7559 3.5735 25.7559 3.6132V4.64554L25.8353 5.67789L25.875 6.19406L25.9543 6.71023L26.0734 7.70287C26.1925 8.37786 26.2718 9.05285 26.4306 9.72784L26.6687 10.919C26.6687 10.919 26.9068 12.9043 26.9862 14.294C27.0656 16.6763 26.629 15.7631 26.2718 14.3734C26.2718 14.4528 26.0734 13.619 25.8353 12.7455C25.5972 11.8719 25.3988 10.9984 25.3988 10.9984L25.2003 9.96608C25.0813 9.29109 24.9622 8.57639 24.8431 7.9014L24.7241 6.86905L24.6447 6.35288L24.605 5.83671L24.5257 4.72496L24.4463 3.5735Z" fill="url(#paint2_linear)"/>
<path d="M7.81794 19.4954C7.77825 19.4954 7.77827 19.4954 7.73859 19.4557C7.4211 19.2969 6.98454 18.8601 7.61951 18.2248C7.61951 18.2248 7.69889 18.1851 7.69889 18.1454L9.84192 17.9469C13.6914 17.5498 17.5409 16.9542 21.3111 16.0807C21.7079 16.0013 22.1048 15.9219 22.462 15.8028C22.462 15.8028 22.9382 15.7234 23.6129 15.6043C23.9303 15.5645 24.3272 15.4851 24.6844 15.4454C25.0415 15.366 25.4384 15.3263 25.7956 15.2866C28.137 14.9293 27.3036 15.4454 25.9543 16.0013C25.994 16.0013 25.7956 16.0807 25.5178 16.1998C25.359 16.2395 25.2003 16.3189 25.0019 16.3984C24.8034 16.4778 24.605 16.5175 24.3669 16.5969C23.4938 16.8748 22.6207 17.1528 22.6207 17.1528L21.5889 17.391C17.7394 18.2645 13.8899 18.8998 9.96098 19.2968L7.81794 19.4954Z" fill="url(#paint3_linear)"/>
<path d="M11.1121 6.47199C11.1518 6.47199 11.1915 6.472 11.2312 6.5117C11.4296 6.63082 11.5883 6.86905 11.5486 7.06757C11.5486 7.2661 11.3105 7.46463 11.0327 7.70286C11.0327 7.70286 10.993 7.74256 10.9534 7.74256C10.7549 7.70286 10.5168 7.74257 10.3184 7.86168C10.12 7.9808 9.92152 8.17933 9.80246 8.37785C9.64371 8.65579 9.56436 9.01314 9.64373 9.29108V9.33078L9.6834 9.37049C9.6834 9.41019 9.7231 9.4499 9.7231 9.4499C9.76279 9.52931 9.80247 9.56902 9.84216 9.64843C9.96122 9.80725 10.0803 9.92636 10.1993 10.0058C10.3977 10.1249 10.6359 10.2043 10.9137 10.1646H10.9534C10.993 10.1646 11.0327 10.1646 11.1121 10.1249C11.2709 10.0852 11.4693 10.0455 11.6677 9.88666C11.9058 9.76754 12.1042 9.56902 12.263 9.29108C12.3424 9.17196 12.3821 9.05285 12.4217 8.89403C12.4614 8.77491 12.4217 8.65579 12.4217 8.49697C12.3424 8.29844 12.2233 8.09992 12.1043 7.9808C12.0646 7.90139 11.9852 7.86168 11.9455 7.82197C11.9058 7.78227 11.8264 7.74257 11.7868 7.70286C11.628 7.54404 11.5883 7.46463 11.6677 7.42492C11.7471 7.38521 11.9455 7.38522 12.2233 7.50434C12.3027 7.50434 12.3821 7.58375 12.4217 7.58375C12.5011 7.62345 12.5805 7.66315 12.6599 7.74256C12.8186 7.86168 12.9774 8.0205 13.0964 8.25874C13.0567 8.21903 13.2551 8.45727 13.2551 8.89403C13.2551 9.09255 13.2155 9.37049 13.1361 9.60872C13.0567 9.84695 12.898 10.0852 12.7392 10.3234C12.4217 10.7602 11.9455 11.0778 11.509 11.2366C11.3899 11.2763 11.3105 11.3161 11.2312 11.3161C11.1518 11.3558 11.0724 11.3558 10.993 11.3558C10.9137 11.3558 10.874 11.3558 10.8343 11.3955C10.7946 11.3955 10.7946 11.3955 10.7946 11.3955C10.3184 11.3955 9.80247 11.2763 9.4453 10.9984C9.1675 10.7999 8.96905 10.5617 8.81031 10.3631C8.73094 10.244 8.65157 10.0852 8.5722 9.96607L8.49282 9.72784L8.45315 9.60872L8.41345 9.48961C8.29439 8.85432 8.41347 8.17933 8.73096 7.66316C8.96907 7.2661 9.28654 6.90875 9.6834 6.67052C10.0803 6.5117 10.5962 6.39258 11.1121 6.47199Z" fill="url(#paint4_linear)"/>
<path d="M20.676 5.12201C20.7157 5.12201 20.7157 5.12201 20.7951 5.16171C20.9538 5.24112 21.1522 5.43965 21.1919 5.63818C21.2316 5.8367 21.1125 6.07494 20.7951 6.35288C20.7951 6.35288 20.7554 6.39258 20.7157 6.39258C20.1601 6.39258 19.5648 6.63082 19.2473 6.94846C19.1283 7.06758 19.0886 7.2264 19.0489 7.34551C19.0092 7.50434 19.0489 7.66316 19.0489 7.86169C19.0886 8.06021 19.168 8.25874 19.287 8.37786C19.3664 8.53668 19.4855 8.61609 19.6442 8.69551C19.8426 8.77492 20.1204 8.81462 20.3982 8.77491C20.3982 8.77491 20.4776 8.77491 20.6363 8.73521C20.7951 8.6955 20.9935 8.61609 21.2316 8.49698C21.4697 8.37786 21.7078 8.17933 21.8269 7.9411C21.8666 7.90139 21.8666 7.82198 21.9062 7.78228C21.9062 7.74257 21.9459 7.66316 21.9459 7.62345C21.9459 7.54404 21.9459 7.50433 21.9459 7.42492C21.9459 7.38522 21.9063 7.30581 21.8666 7.2264C21.7872 7.02787 21.5888 6.86905 21.4697 6.74993C21.311 6.63082 21.2316 6.55141 21.1125 6.47199C20.9538 6.31317 20.9141 6.23376 20.9935 6.19406C21.0332 6.19406 21.1125 6.15435 21.1919 6.19406C21.2713 6.19406 21.3904 6.23376 21.5491 6.27347C21.8269 6.35288 22.184 6.5117 22.5015 6.86905C22.5015 6.82934 22.5412 6.86905 22.5809 6.98817C22.6206 7.02787 22.6603 7.10728 22.7 7.18669C22.7396 7.26611 22.7793 7.34552 22.7793 7.46463C22.819 7.70286 22.819 7.9808 22.7397 8.25874C22.6603 8.53668 22.5015 8.77491 22.3428 9.01314C21.9856 9.4499 21.5491 9.76755 21.1522 9.92637C21.0729 9.96608 20.9538 10.0058 20.8744 10.0455C20.7951 10.0852 20.7157 10.0852 20.676 10.1249C20.5966 10.1249 20.5569 10.1646 20.5173 10.1646C20.4776 10.1646 20.4776 10.1646 20.4776 10.1646C20.041 10.2043 19.5251 10.1646 19.0886 9.96608C18.7314 9.80726 18.4536 9.52932 18.2552 9.21167C18.0568 8.89403 17.9377 8.61609 17.8583 8.25874C17.779 7.90139 17.7393 7.54404 17.8186 7.18669C17.898 6.82934 18.0568 6.472 18.2949 6.19406C18.6124 5.797 19.0489 5.55877 19.4458 5.39995C19.8426 5.20142 20.2395 5.12201 20.676 5.12201Z" fill="url(#paint5_linear)"/>
<path d="M10.8343 4.32792C10.7946 4.40733 10.7152 4.40732 10.6755 4.48674C10.6358 4.52644 10.5565 4.60585 10.5168 4.72497C10.3977 4.88379 10.239 5.12202 9.88182 5.12202C9.88182 5.12202 9.80244 5.12202 9.80244 5.08232C9.60401 4.76467 9.56433 4.52644 9.48496 4.32792C9.44527 4.08968 9.36591 3.89115 9.36591 3.69263C9.32622 3.4941 9.28653 3.25586 9.28653 3.05734L9.16748 1.98529L9.68339 1.74706L9.92152 1.62794C10.0009 1.58824 10.1199 1.54853 10.1596 1.54853C10.2787 1.50883 10.3977 1.46912 10.5168 1.42942C10.5565 1.42942 10.6755 1.38971 10.7549 1.38971C10.7946 1.38971 10.8343 1.38971 10.9137 1.38971C10.9533 1.38971 11.0327 1.38971 11.0724 1.38971L11.5089 1.42942L11.5883 1.86617L11.747 2.7397C11.747 2.7397 11.747 2.93822 11.747 3.17645C11.7074 3.41469 11.7074 3.73233 11.628 4.01027C11.4692 4.88379 11.1518 4.60585 10.9137 4.08968C10.9137 4.12939 10.7946 3.81174 10.6755 3.53381C10.6358 3.37499 10.5565 3.25587 10.5168 3.13675C10.4771 3.01764 10.4374 2.93823 10.4374 2.93823L10.2787 2.22353L10.8343 2.42205C10.8343 2.50146 10.7946 2.54117 10.7946 2.62058C10.7946 2.66029 10.7946 2.69999 10.7946 2.69999C10.7946 2.69999 10.7946 2.69999 10.7549 2.69999C10.7152 2.69999 10.6358 2.7397 10.5565 2.7397H10.5168V2.85881C10.5565 3.05734 10.5565 3.25587 10.5961 3.41469C10.6358 3.61322 10.6755 3.77204 10.7152 3.93086C10.7152 4.12939 10.7946 4.28821 10.8343 4.32792Z" fill="url(#paint6_linear)"/>
<path d="M19.3271 3.33526C19.3271 3.33526 19.3271 3.33526 19.2874 3.37496C19.1287 3.53379 18.7318 3.85143 18.1365 3.77202C18.1365 3.77202 18.0968 3.77202 18.0571 3.73232C18.0571 3.73232 17.9777 3.41467 17.819 2.93821C17.7396 2.69997 17.6603 2.42204 17.6206 2.1441C17.5809 1.98528 17.5412 1.86616 17.5015 1.70734C17.4618 1.54851 17.4221 1.4294 17.3825 1.27057C17.3428 1.11175 17.3031 0.952933 17.3031 0.833817C17.2634 0.674995 17.2634 0.555876 17.2237 0.397055C17.184 0.357349 17.2634 0.357353 17.3031 0.357353L17.4221 0.317645L17.6206 0.277937C17.8984 0.198526 18.1762 0.158823 18.454 0.119118C18.5334 0.119118 18.6127 0.0794097 18.6524 0.0794097H18.7715C18.8112 0.0794097 18.8508 0.0794097 18.9302 0.0794097C19.0096 0.0794097 19.0493 0.0794097 19.1286 0.0794097C19.4065 0.0397042 19.6446 0.0397055 19.843 0H19.8827V0.0397079L19.9224 0.119118C19.9224 0.158823 19.9621 0.238231 19.9621 0.277937C20.0018 0.397053 20.0018 0.476469 20.0415 0.55588C20.0811 0.754407 20.1208 0.913228 20.1605 1.03234C20.2002 1.15146 20.2002 1.23087 20.2002 1.23087C20.2002 1.23087 20.2399 1.4294 20.2399 1.70734C20.2399 1.98527 20.2796 2.34262 20.2399 2.62056C20.2399 3.6132 19.843 3.29555 19.5255 2.77938C19.5255 2.81909 19.3668 2.50144 19.208 2.1838C19.0493 1.82645 18.8905 1.50881 18.8905 1.50881C18.8905 1.50881 18.8905 1.4691 18.8509 1.38969C18.8112 1.38969 18.7318 1.38969 18.6921 1.38969V1.4294C18.7318 1.58822 18.7715 1.70733 18.8112 1.86616C18.8905 2.14409 18.9302 2.38233 19.0096 2.58085C19.2477 3.05732 19.3271 3.33526 19.3271 3.33526Z" fill="url(#paint7_linear)"/>
<path d="M11.3899 14.7307C11.3503 14.7307 11.3503 14.7307 11.3106 14.691C10.9931 14.5322 10.5169 14.1351 11.1122 13.4998C11.1122 13.4998 11.1915 13.4601 11.1915 13.4204L13.3345 13.1425L17.2237 12.5866L18.4143 12.4278C18.4143 12.4278 20.3986 12.269 21.7876 12.3087C24.1687 12.269 23.256 12.666 21.8273 13.0234C21.986 13.0234 18.4143 13.7381 18.4143 13.7381L17.3825 13.8969L13.4933 14.4528L11.3899 14.7307Z" fill="url(#paint8_linear)"/>
<path d="M11.4296 14.0955C11.2312 14.1352 10.755 14.2543 10.1993 14.294H10.1597V14.3734C12.6996 13.8175 10.874 14.1749 11.4296 14.0955C11.4296 14.0955 11.4296 14.1352 11.4296 14.1749C11.4296 14.2543 11.4693 14.3734 11.4693 14.4925C11.509 14.7307 11.5487 14.969 11.5487 14.969C11.5487 14.969 11.4296 15.1278 11.2709 15.2866C11.0328 15.5248 10.7153 15.4851 10.5565 15.366C10.5168 15.366 10.2787 15.1278 10.2787 15.1278C10.2787 15.1278 10.239 14.8896 10.1993 14.6513C10.1993 14.5322 10.1597 14.4131 10.1597 14.3337C10.1597 14.294 10.1597 14.2543 10.1597 14.2146C12.6996 13.8572 10.8343 14.1749 11.4296 14.0955Z" fill="url(#paint9_linear)"/>
<path d="M22.3433 12.5469C22.5417 12.4675 23.0179 12.3484 23.5735 12.3484H23.6132C23.6132 12.3484 23.6529 12.666 23.7323 12.9837C23.772 13.1425 23.8116 13.3013 23.8116 13.4204C23.8513 13.5395 23.8513 13.619 23.8513 13.619C23.8513 13.619 23.772 13.8572 23.6132 14.0557C23.4148 14.3734 23.0973 14.3337 22.8988 14.2145C22.8592 14.2542 22.5814 13.8969 22.5814 13.8969C22.5814 13.8969 22.5814 13.8175 22.5417 13.6984C22.502 13.5793 22.4623 13.4204 22.4623 13.2616C22.4226 12.9043 22.3433 12.5469 22.3433 12.5469Z" fill="url(#paint10_linear)"/>
<path d="M11.3499 16.041C11.3102 16.041 11.3102 16.041 11.2705 16.0013C10.9531 15.8425 10.4768 15.4454 11.0721 14.8101C11.0721 14.8101 11.1515 14.7704 11.1515 14.7307L13.2945 14.4528L17.3821 13.8969L18.5727 13.7381C18.5727 13.7381 20.557 13.5793 21.946 13.619C24.3271 13.5793 23.4144 13.9763 21.9857 14.3337C22.1444 14.3337 18.5727 15.0484 18.5727 15.0484L17.5409 15.2072L13.4533 15.7631L11.3499 16.041Z" fill="url(#paint11_linear)"/>
<path d="M0.198242 21.4012C0.198242 21.3615 0.198245 21.3615 0.23793 21.3218C0.396674 21.0042 0.793532 20.5277 1.42851 21.1233C1.42851 21.1233 1.4682 21.2027 1.50788 21.2027L1.78569 23.3468L2.02379 25.213L2.18255 26.4041C2.18255 26.4041 2.34128 28.3894 2.3016 29.7791C2.34128 32.1614 1.94443 31.2482 1.58726 29.8188C1.58726 29.9776 0.872894 26.4041 0.872894 26.4041L0.714165 25.3718L0.43636 23.5056L0.198242 21.4012Z" fill="url(#paint12_linear)"/>
<path d="M0.555602 20.8453C0.515916 20.8056 0.515921 20.7659 0.436549 20.7262C0.396863 20.6865 0.396858 20.6865 0.357172 20.6468L0.317495 20.6071L0.277807 20.5674C0.317493 20.6071 0.317486 20.6071 0.357172 20.6468C0.436544 20.6865 0.51593 20.7262 0.595302 20.8056C0.674674 20.8453 0.793713 20.9247 0.873085 21.0439C0.952457 21.1233 1.07152 21.2424 1.07152 21.4012C1.07152 21.4012 1.07152 21.4806 1.03184 21.5203C0.992153 21.5203 0.992148 21.56 0.952462 21.56C0.912776 21.56 0.912771 21.5997 0.873085 21.5997C0.833399 21.5997 0.754042 21.6394 0.714356 21.6394C0.67467 21.6394 0.515921 21.6394 0.436549 21.5997C0.317491 21.56 0.238114 21.5203 0.158742 21.4012C0.119056 21.3615 0.0793769 21.2821 0.0793769 21.2821C0.0793769 21.2424 0.0396884 21.2424 0.0396884 21.2027C0.0396884 21.163 0 21.1233 0 21.0439V20.9644V20.8453C0.039686 20.6865 0.158747 20.5277 0.238119 20.4483C0.277805 20.4086 0.317486 20.4086 0.357172 20.3689C0.436544 20.3292 0.476225 20.3292 0.476225 20.2894C0.555597 20.2497 0.595293 20.2498 0.634979 20.2498C0.714351 20.21 0.793713 20.21 0.873085 20.21C1.03183 20.1703 1.1509 20.1703 1.30965 20.1306C1.58745 20.0909 1.86524 20.0512 2.14304 20.0115C2.69865 19.9321 3.25427 19.8924 3.77018 19.813C3.77018 19.813 4.32577 19.8924 4.72263 20.0512C5.04012 20.1703 5.15919 20.2895 5.15919 20.4086C5.15919 20.5277 5.00044 20.6865 4.80201 20.7659C4.8417 20.8056 3.88924 21.1233 3.88924 21.1233C3.37332 21.163 2.81771 21.2424 2.3018 21.3218C2.02399 21.3615 1.78588 21.4012 1.50808 21.4409C1.38902 21.4409 1.26995 21.4806 1.15089 21.5203C1.11121 21.5203 1.03185 21.56 0.992163 21.56H0.952462L0.912786 21.4806L0.873085 21.3615C0.833399 21.2821 0.833419 21.2424 0.793733 21.2027C0.754046 21.163 0.754042 21.1233 0.714356 21.0836C0.714356 21.0439 0.674655 21.0439 0.674655 21.0439H0.714356H0.674655C0.595283 20.9247 0.595288 20.885 0.555602 20.8453Z" fill="url(#paint13_linear)"/>
<path d="M3.84961 20.885C3.84961 20.8453 3.84962 20.8453 3.88931 20.8056C4.04805 20.488 4.4449 20.0115 5.07987 20.6071C5.07987 20.6071 5.11956 20.6865 5.15924 20.6865L5.43702 22.8306L5.67515 24.5777L5.83388 25.7688C5.83388 25.7688 5.95295 27.7541 5.95295 29.1438C5.99264 31.5261 5.59576 30.6526 5.2386 29.2232C5.2386 29.382 4.52426 25.7688 4.52426 25.7688L4.40521 24.7365L4.16711 22.9894L3.84961 20.885Z" fill="url(#paint14_linear)"/>
<path d="M2.26227 31.6056C2.14322 31.407 1.98447 30.9306 2.06384 30.3747V30.335C2.10353 30.335 2.89726 30.2556 3.69098 30.1762C4.08783 30.1365 4.48469 30.0967 4.80217 30.057C5.07997 30.0173 5.27841 30.0173 5.27841 30.0173C5.27841 30.0173 5.79432 30.0967 6.19117 30.2556C6.82615 30.4938 6.62771 30.7717 6.23085 30.9703C6.27054 31.01 5.35778 31.2879 5.35778 31.2879C5.35778 31.2879 5.15935 31.2879 4.88155 31.3276C4.60375 31.3673 4.20689 31.3673 3.81003 31.4467C3.056 31.5261 2.26227 31.6056 2.26227 31.6056Z" fill="url(#paint15_linear)"/>
<path d="M30.0025 17.3116C29.8834 17.113 29.7247 16.6366 29.8041 16.0807V16.041C29.8438 16.041 32.7011 15.6439 32.7011 15.6439C32.7011 15.6439 33.1773 15.7233 33.5345 15.8822C34.1298 16.0807 33.9313 16.3983 33.6139 16.5969C33.6535 16.6366 32.8202 16.9542 32.8202 16.9542C32.8202 16.9542 30.0422 17.3116 30.0025 17.3116Z" fill="url(#paint16_linear)"/>
<path d="M29.2085 17.0734C29.2085 17.0337 29.2085 17.0337 29.2085 16.9939C29.3672 16.6763 29.7641 16.2395 30.3991 16.8351C30.3991 16.8351 30.4388 16.9145 30.4785 16.9145L30.7959 19.0189L31.1531 21.2027L31.3515 22.3939C31.3515 22.3939 31.3912 22.8704 31.4309 23.5453C31.4706 23.863 31.4706 24.26 31.5103 24.6571C31.5103 25.0542 31.5103 25.4512 31.5103 25.7689C31.55 28.1512 31.1134 27.238 30.7959 25.8086C30.7959 25.8483 30.7563 25.6497 30.6769 25.3321C30.5975 25.0145 30.5181 24.5777 30.4388 24.1409C30.2403 23.2674 30.0419 22.3939 30.0419 22.3939L29.8832 21.3615L29.526 19.138L29.2085 17.0734Z" fill="url(#paint17_linear)"/>
<path d="M31.6295 27.9526C31.5104 27.7541 31.3517 27.2776 31.431 26.7217V26.682C31.4707 26.682 34.3281 26.285 34.3281 26.285C34.3281 26.285 34.8043 26.3644 35.1615 26.5232C35.7568 26.7217 35.5584 27.0394 35.2409 27.2379C35.2806 27.2776 34.4472 27.5953 34.4472 27.5953C34.4472 27.5953 31.6691 27.9526 31.6295 27.9526Z" fill="url(#paint18_linear)"/>
<path d="M33.2168 16.6763C33.2168 16.6366 33.2168 16.6366 33.2565 16.5969C33.4152 16.2793 33.8121 15.8028 34.4471 16.3984C34.4471 16.3984 34.4868 16.4778 34.5265 16.4778L34.8042 18.6219L35.0424 20.3689L35.2011 21.5601C35.2011 21.5601 35.3599 23.5453 35.3202 24.935C35.3599 27.3174 34.963 26.4041 34.6058 24.9747C34.6058 25.1336 33.8915 21.5601 33.8915 21.5601L33.7327 20.5277L33.4946 18.7807L33.2168 16.6763Z" fill="url(#paint19_linear)"/>
<path d="M2.34137 32.7173C2.30169 32.7173 2.30169 32.7173 2.34137 32.7173C2.22232 32.5187 2.06358 32.0423 2.14295 31.4864V31.4467C2.18263 31.4467 4.7622 31.0894 4.7622 31.0894C4.7622 31.0894 5.19873 31.1688 5.51621 31.3276C6.03213 31.5261 5.87339 31.8438 5.59559 32.0423C5.63528 32.082 4.88126 32.3996 4.88126 32.3996L2.34137 32.7173Z" fill="url(#paint20_linear)"/>
<path d="M31.5899 28.7071C31.4709 28.5085 31.3121 28.0321 31.3915 27.4762V27.4365C31.4312 27.4365 34.3282 27.0394 34.3282 27.0394C34.3282 27.0394 34.8044 27.1188 35.1616 27.238C35.7569 27.4365 35.5585 27.7541 35.241 27.9527C35.2807 27.9924 34.4473 28.31 34.4473 28.31C34.4473 28.31 31.6296 28.7071 31.5899 28.7071Z" fill="url(#paint21_linear)"/>
<path d="M1.70654 32.5982C1.70654 32.5585 1.70653 32.5585 1.74622 32.5188C1.90496 32.2011 2.30182 31.7247 2.93679 32.3202C2.93679 32.3202 2.97649 32.3997 3.01617 32.3997L3.29398 34.5438L3.41303 35.4967L3.57178 36.6878C3.57178 36.6878 3.73052 38.6731 3.69084 40.0628C3.73052 42.4451 3.33367 41.5319 2.97649 40.1025C2.97649 40.2613 2.26213 36.6878 2.26213 36.6878L2.1034 35.6555L1.98435 34.7026L1.70654 32.5982Z" fill="url(#paint22_linear)"/>
<path d="M3.49225 42.4451C3.3732 42.2466 3.21445 41.8098 3.29383 41.2143V41.1746C3.33351 41.1746 6.429 40.7378 6.429 40.7378C6.429 40.7378 6.94494 40.8172 7.3418 40.9363C7.97677 41.1348 7.77832 41.4525 7.42115 41.651C7.46084 41.6907 6.58775 42.0084 6.58775 42.0084C6.58775 42.0084 3.53194 42.4451 3.49225 42.4451Z" fill="url(#paint23_linear)"/>
<path d="M5.00049 32.1217C5.00049 32.082 5.00048 32.082 5.04016 32.0423C5.19891 31.7246 5.59576 31.2482 6.23072 31.8437C6.23072 31.8437 6.27041 31.9232 6.3101 31.9232L6.5879 34.0673L6.66728 34.7423L6.826 35.9334C6.826 35.9334 6.98476 37.9187 6.94508 39.3084C6.98476 41.6907 6.58789 40.7775 6.23072 39.3481C6.23072 39.5069 5.51639 35.9334 5.51639 35.9334L5.35767 34.9011L5.27829 34.2261L5.00049 32.1217Z" fill="url(#paint24_linear)"/>
<path d="M30.9946 28.3894C30.9946 28.3497 30.9946 28.3497 31.0343 28.31C31.074 28.2703 31.074 28.2306 31.1137 28.1909C31.1534 28.1512 31.193 28.1115 31.2327 28.0718C31.3121 27.9924 31.3915 27.9527 31.5105 27.913C31.7089 27.8733 31.9868 27.9924 32.2645 28.2703L32.3042 28.3497C32.3439 28.985 32.463 29.6997 32.582 30.4541L32.8598 32.5982L33.0185 33.7894C33.0185 33.7894 33.1376 35.7746 33.1376 37.1643C33.1773 39.5467 32.7407 38.6334 32.4233 37.204C32.4233 37.3629 31.7486 33.7894 31.7486 33.7894L31.6296 32.757L31.3518 30.6129C31.1931 29.8982 31.074 29.1835 30.9946 28.3894Z" fill="url(#paint25_linear)"/>
<path d="M33.0584 38.7525C33.0187 38.7525 33.0187 38.7525 33.0584 38.7525C32.9393 38.554 32.7409 38.1172 32.7806 37.5217V37.482C32.7806 37.482 32.979 37.4422 33.2965 37.4025C33.614 37.3628 33.9711 37.2834 34.368 37.2437C34.7648 37.204 35.122 37.1643 35.4395 37.1246C35.7173 37.0849 35.9157 37.0849 35.9157 37.0849C35.9157 37.0849 36.4316 37.1643 36.7888 37.3231C37.4238 37.5614 37.1857 37.8393 36.8285 38.0378C36.8682 38.0378 36.6301 38.1172 36.4317 38.1967C36.1935 38.2761 35.9951 38.3555 35.9951 38.3555C35.9951 38.3555 35.7967 38.3952 35.5189 38.3952C35.2411 38.4349 34.8839 38.4746 34.487 38.5143C34.1299 38.554 33.733 38.5937 33.4552 38.6731C33.2568 38.7128 33.0584 38.7525 33.0584 38.7525Z" fill="url(#paint26_linear)"/>
<path d="M34.606 28.2306C34.606 28.1909 34.606 28.1909 34.6457 28.1512C34.8044 27.8335 35.2013 27.3571 35.8362 27.9526C35.8362 27.9526 35.8759 28.032 35.9156 28.032L36.1934 30.1761L36.3125 31.0099L36.4712 32.2011C36.4712 32.2011 36.6299 34.1864 36.5902 35.5761C36.6299 37.9584 36.2331 37.0452 35.8759 35.6158C35.8759 35.7746 35.1616 32.2011 35.1616 32.2011L35.0028 31.1688L34.8838 30.335L34.606 28.2306Z" fill="url(#paint27_linear)"/>
<path d="M5.00049 21.4012C5.00049 21.3615 5.00048 21.3615 5.04016 21.3218C5.19891 21.0042 5.59576 20.5277 6.23073 21.1233C6.23073 21.1233 6.27042 21.2027 6.31011 21.2027L6.58791 23.3468L8.01658 33.7099L8.17533 34.9011C8.17533 34.9011 8.33407 36.8864 8.29438 38.2761C8.33407 40.6584 7.93722 39.7452 7.58005 38.3158C7.58005 38.4746 6.86571 34.9011 6.86571 34.9011L6.70696 33.8688L5.27829 23.5056L5.00049 21.4012Z" fill="url(#paint28_linear)"/>
<path d="M5.75471 21.6395C5.71503 21.6395 5.71502 21.6395 5.67534 21.6395C5.35785 21.4807 4.88162 21.0836 5.47691 20.4483C5.47691 20.4483 5.55628 20.4086 5.55628 20.3689L7.6993 20.0513L9.84234 19.7336L11.9854 19.416L14.1681 19.1778L15.2396 19.0983C15.5968 19.0586 15.9539 19.0586 16.3111 18.9792C17.0255 18.8998 17.7398 18.8204 18.4144 18.7013L19.486 18.5425L20.5575 18.3836C21.2718 18.2645 21.9862 18.1454 22.6608 18.0263L23.9705 17.7881C23.9705 17.7881 25.9547 17.5498 27.3437 17.5101C29.7249 17.391 28.8121 17.8278 27.4231 18.2248C27.5819 18.2248 24.0498 19.0983 24.0498 19.0983L22.6608 19.3366C21.9465 19.4557 21.2718 19.5748 20.5575 19.6939C19.1685 19.9322 17.7398 20.1307 16.3508 20.2895C15.6364 20.3689 14.9221 20.4086 14.2078 20.488L12.1441 20.7263L10.0804 21.0042L7.9771 21.3219L5.75471 21.6395Z" fill="url(#paint29_linear)"/>
<path d="M28.415 18.2248C28.415 18.1851 28.415 18.1851 28.4547 18.1454C28.6135 17.8277 29.0103 17.3513 29.6453 17.9468C29.6453 17.9468 29.685 18.0263 29.7247 18.0263L30.0025 20.1703L31.5502 31.2879L31.709 32.479C31.709 32.479 31.8677 34.4643 31.828 35.854C31.8677 38.2363 31.4708 37.3231 31.1137 35.8937C31.1137 36.0525 30.3993 32.479 30.3993 32.479L30.2406 31.4467L28.6928 20.3292L28.415 18.2248Z" fill="url(#paint30_linear)"/>
<path d="M8.77067 40.1025C8.73098 40.1025 8.73098 40.1025 8.69129 40.0628C8.53255 39.9834 8.37382 39.8246 8.33414 39.5863C8.29445 39.3878 8.37381 39.1099 8.69129 38.8319L8.77067 38.7922C9.44533 38.7922 10.12 38.7128 10.8343 38.6334C11.509 38.554 12.2233 38.4349 12.9377 38.3157C13.2948 38.276 13.652 38.2363 14.0092 38.1966L15.0807 38.0775L17.184 37.879C17.8984 37.7996 18.6127 37.7599 19.2874 37.6407L26.9467 36.6878C26.9467 36.6878 27.0657 36.6878 27.2642 36.6878C27.4626 36.6878 27.7801 36.6878 28.0976 36.6878C28.7722 36.6878 29.6056 36.6878 30.32 36.6878C32.7011 36.7275 31.7883 37.1246 30.3597 37.4025C30.439 37.4025 29.5659 37.5613 28.6929 37.7202C28.2563 37.7996 27.8198 37.879 27.4626 37.9187C27.1451 37.9584 26.907 38.0378 26.907 38.0378L19.2874 38.9907C17.8984 39.1496 16.5094 39.2687 15.1204 39.4275L14.0886 39.5466C13.7711 39.5863 13.4139 39.626 13.0567 39.6657C12.3821 39.7451 11.6677 39.8643 10.9534 39.9834C10.2787 40.0628 9.5247 40.1025 8.77067 40.1025Z" fill="url(#paint31_linear)"/>
<path d="M6.15141 49.6318C6.15141 49.6715 6.15139 49.6715 6.1117 49.7112C6.03233 49.8701 5.8736 50.0686 5.67517 50.1083C5.47674 50.148 5.19893 50.0686 4.92113 49.7906L4.88146 49.7112L4.84176 49.1951C4.80207 49.1554 4.72272 49.1554 4.68303 49.1156C4.44492 49.0362 4.24649 48.8774 4.08774 48.7583C3.69089 48.4407 3.37339 48.0833 3.13528 47.6862C3.01622 47.4877 2.89716 47.2495 2.85747 47.0113C2.7781 46.773 2.73842 46.5348 2.73842 46.2966C2.69874 45.8201 2.73842 45.3039 2.93685 44.8275C3.13528 44.351 3.41309 43.9142 3.77026 43.5966C4.12744 43.2789 4.56397 43.0407 5.00051 42.8819C5.43705 42.7231 5.87361 42.6437 6.34983 42.6039C6.82606 42.6039 7.34196 42.6834 7.81818 42.9216C8.29441 43.1598 8.6516 43.5172 8.9294 43.9142C9.485 44.748 9.60404 45.7804 9.40561 46.6936C9.28655 47.1701 9.08814 47.6068 8.77065 48.0039C8.69128 48.123 8.61192 48.2024 8.53255 48.2818L8.6119 48.4804L8.77065 48.3215C9.24688 47.8054 9.56436 47.1701 9.68342 46.5348C9.7231 46.2171 9.7231 45.8995 9.68342 45.6216C9.64373 45.3039 9.56435 44.9863 9.40561 44.7083C9.12781 44.1128 8.73096 43.5569 8.21504 43.1995C7.97693 43.001 7.65945 42.8422 7.38165 42.7231C7.06417 42.6039 6.78637 42.5642 6.46889 42.5245C6.1514 42.4848 5.83391 42.5245 5.51642 42.5642C5.19893 42.6436 4.88145 42.7231 4.60365 42.8819C4.32585 43.0407 4.08773 43.1995 3.84962 43.4378C3.6115 43.676 3.45277 43.9142 3.29403 44.2319C3.13529 44.5098 3.01624 44.8275 2.97655 45.1451C2.89718 45.4627 2.85748 45.8201 2.8178 46.1774V46.2966V46.3363V46.4157V46.5745C2.8178 46.6539 2.8178 46.7333 2.8178 46.8524C2.8178 47.0113 2.85749 47.2098 2.89717 47.3686C2.89717 47.3686 2.89716 47.4877 2.93685 47.6466C2.97654 47.726 2.97654 47.8451 3.01623 47.9245C3.05591 48.0436 3.09561 48.1627 3.17498 48.2818C3.29404 48.5201 3.49245 48.798 3.73056 48.9965C3.96868 49.2348 4.28618 49.3936 4.56398 49.5524C5.07989 49.7906 5.43704 49.9098 5.63547 49.9892C5.8339 50.0686 5.91327 50.148 5.8339 50.2274C5.71484 50.3465 5.07989 50.4259 4.28617 50.2274C4.32586 50.2671 4.12744 50.1877 3.77026 50.0686C3.45278 49.9495 2.97654 49.6715 2.61937 49.3142C2.22251 48.9568 1.94471 48.4804 1.82566 48.0833C1.74628 47.8848 1.70659 47.726 1.6669 47.6068C1.62722 47.4877 1.62723 47.448 1.62723 47.448C1.62723 47.3289 1.58755 47.2098 1.58755 47.0907L1.54785 46.7333C1.54785 46.6142 1.54785 46.4951 1.54785 46.4157V46.3363V46.2966V46.2569V46.1774C1.54785 45.9789 1.58755 45.7804 1.58755 45.5819C1.62724 45.1848 1.70659 44.7877 1.86533 44.3907C1.98439 43.9936 2.14315 43.5966 2.38127 43.2392C2.61938 42.8819 2.89717 42.5245 3.21466 42.2466C3.53214 41.9687 3.92899 41.7304 4.32585 41.5716C4.72271 41.4128 5.11958 41.2937 5.55612 41.254C5.99266 41.2143 6.3895 41.2143 6.82604 41.254C7.26258 41.2937 7.65946 41.4128 8.05631 41.6113C8.45317 41.7701 8.81035 42.0084 9.12783 42.2863C9.44532 42.5642 9.76278 42.8819 10.0009 43.1995C10.12 43.3584 10.239 43.5569 10.3581 43.7157C10.4374 43.9142 10.5565 44.0731 10.6359 44.2716C10.7946 44.6686 10.9137 45.0657 10.993 45.5024C11.0724 45.9392 11.0327 46.376 10.993 46.8127C10.8343 47.7657 10.3581 48.5598 9.80247 49.2348C9.76278 49.2745 9.7231 49.3142 9.68342 49.3539L9.52469 49.5127C9.40563 49.6715 9.24687 49.7906 9.08813 49.9098C8.92939 50.0289 8.81034 50.148 8.6516 50.3068L8.41347 50.5053L8.29442 50.5848L8.25474 50.6245C8.25474 50.6245 8.21504 50.6642 8.21504 50.6245V50.5848L7.69913 49.5524L7.58008 49.2745C7.54039 49.1951 7.50071 49.076 7.46103 49.0362L7.30228 48.6789L7.06417 48.123L6.98479 48.0039L6.94512 47.9245V47.8848L7.18322 47.6862C7.26259 47.6465 7.34196 47.5671 7.42133 47.4877L7.65946 47.3289C7.69914 47.2892 7.7785 47.2098 7.81818 47.1701C8.01661 46.9318 8.13567 46.6539 8.21504 46.376C8.37378 45.7804 8.25475 45.1054 7.93726 44.5892C7.77852 44.351 7.58008 44.1525 7.30228 44.0333C7.06416 43.9142 6.78637 43.8348 6.46889 43.8745C6.1514 43.8745 5.79422 43.9539 5.51642 44.0731C5.19893 44.1922 4.92114 44.351 4.68303 44.5495C4.2068 44.9466 4.00837 45.5024 4.08774 46.1377C4.12743 46.2966 4.12744 46.4554 4.16712 46.5745C4.20681 46.6936 4.28618 46.8524 4.36555 46.9716C4.52429 47.2495 4.72272 47.4877 4.96083 47.6862C5.07989 47.7657 5.19894 47.8451 5.27832 47.8848C5.318 47.8848 5.31801 47.9245 5.35769 47.9245C5.43706 47.9642 5.51641 47.9642 5.63547 47.9642L6.19108 48.0436L6.15141 49.6318Z" fill="url(#paint32_linear)"/>
<path d="M12.0644 32.7967C12.0644 32.8364 12.0644 32.8364 12.0644 32.8761C12.0248 33.0349 11.866 33.2335 11.7073 33.3526C11.5089 33.4717 11.2707 33.4717 10.9136 33.1937L10.8342 33.1143L10.7152 32.5585C10.6755 32.3599 10.6755 32.2011 10.6358 32.0026L10.5564 31.4467L10.477 30.8908C10.4373 30.4144 10.358 29.9776 10.3183 29.5012C10.3183 29.382 10.2786 29.2629 10.2786 29.1835L10.2389 28.8659L10.1199 28.1909C10.0405 27.7144 9.9611 27.1982 10.0008 26.6424C10.0405 26.3644 10.0802 26.0468 10.2389 25.7291C10.358 25.5703 10.4373 25.4115 10.5961 25.2924C10.6754 25.213 10.7548 25.1733 10.8342 25.1336L10.9533 25.0541C10.9929 25.0541 11.0326 25.0144 11.0723 25.0144C11.3898 24.8953 11.6279 24.8556 11.8263 24.8159C11.9454 24.7762 11.9851 24.7762 12.1041 24.7365L12.4613 24.6571C12.6994 24.5777 12.9375 24.538 13.1756 24.4983C13.4138 24.4586 13.6519 24.4189 13.89 24.3792C14.8425 24.26 15.7552 24.2203 16.6283 24.1012L22.1446 23.4659L25.2401 23.1086H25.3989H25.4782H25.5179C25.5179 23.1086 25.5179 23.1086 25.5576 23.1086V23.1483L25.6766 23.4659C25.756 23.6645 25.8354 23.9027 25.9148 24.1012C25.9941 24.3394 26.0735 24.5777 26.1132 24.8159C26.2323 25.2924 26.3116 25.7688 26.3513 26.2453C26.4704 27.1982 26.4704 28.1512 26.51 29.0644C26.51 29.5409 26.5497 29.9776 26.5894 30.4144C26.5894 30.5335 26.5894 30.6526 26.6291 30.732L26.6688 30.9703C26.6688 31.0894 26.7085 31.2085 26.7085 31.3276L26.7879 32.0026L26.8275 32.1614V32.2408C26.7878 32.2408 26.7878 32.2408 26.7482 32.2408H26.391H25.6766C25.637 32.2408 25.5576 32.2408 25.5179 32.2408H25.3592H25.2004C25.002 32.2408 24.7639 32.2805 24.5654 32.2805C24.1289 32.3202 23.6924 32.3996 23.2558 32.4791H23.1764L23.0574 32.5188L22.7399 32.5982L22.1049 32.7173L20.7159 33.0746L20.0413 33.2335H20.0016V33.1937L20.0413 33.1541L20.081 33.0349L20.2 32.7967C20.3588 32.4791 20.5175 32.2011 20.7159 31.8835C20.9144 31.5658 21.2318 31.1688 21.47 30.8114L21.7874 30.3747L21.9859 30.0967C22.224 29.7394 22.5018 29.382 22.6605 28.985C22.7399 28.7865 22.8193 28.6276 22.8986 28.4688C22.9383 28.31 22.978 28.1512 22.9383 28.1115C22.9383 28.0718 22.9383 28.1115 22.9383 28.1115L22.8986 28.0718C22.859 28.0718 22.859 28.0718 22.8193 28.0718C22.7796 28.0718 22.7399 28.0718 22.6605 28.1115C22.4224 28.1909 22.0652 28.4688 21.7874 28.7468C21.5096 29.0644 21.2319 29.382 20.9541 29.7394C20.6763 30.0967 20.4381 30.4541 20.2 30.8511L20.0016 31.1291L19.9222 31.2879C19.8825 31.3276 19.8428 31.407 19.8032 31.4467C19.6841 31.6055 19.565 31.8041 19.4063 32.0026L19.2476 32.2408L19.0888 32.4791L18.8904 32.7173C18.811 32.7967 18.7316 32.8761 18.6126 32.9555C18.3745 33.1541 18.176 33.1938 17.9379 33.2732L17.6204 33.3526C17.5411 33.3923 17.422 33.3923 17.3426 33.3923C17.1839 33.432 17.0649 33.432 16.9061 33.432C16.6283 33.4717 16.3505 33.4717 16.0727 33.5114C16.0727 33.5114 15.9536 33.5114 15.7552 33.5114C15.6362 33.5114 15.5568 33.5114 15.3981 33.5114C15.2393 33.5114 15.1203 33.5114 14.9218 33.5114C14.2472 33.5511 13.4138 33.5511 12.6994 33.5511C10.3183 33.5908 11.231 33.154 12.6597 32.8364C12.5804 32.8364 13.4535 32.6776 14.3265 32.4791C14.7631 32.3996 15.1996 32.3202 15.5568 32.2408C15.914 32.2011 16.1124 32.1614 16.1124 32.1614C16.3505 32.1614 16.5886 32.1217 16.7871 32.1217H16.9458L17.2236 32.082C17.4617 32.0026 17.6601 31.9629 17.7395 31.8438C17.8982 31.7247 18.057 31.4864 18.2157 31.2482C18.3348 31.0497 18.4538 30.8511 18.6126 30.6526C18.6523 30.6129 18.6523 30.5732 18.692 30.5335L18.7713 30.3747L18.9698 30.0967C19.2079 29.6997 19.4857 29.3026 19.7635 28.9056C20.0413 28.5085 20.3588 28.1512 20.7159 27.7541C20.8747 27.5556 21.0731 27.3968 21.3112 27.2379C21.5096 27.0791 21.7874 26.9203 22.1049 26.8012C22.2637 26.7615 22.4621 26.7218 22.6605 26.6821C22.859 26.6821 23.0574 26.7218 23.2558 26.8012C23.4542 26.8806 23.613 26.9997 23.7717 27.1585C23.8511 27.2379 23.9305 27.3571 23.9702 27.4365C24.0098 27.4762 24.0098 27.5556 24.0495 27.5953C24.0495 27.635 24.0892 27.7144 24.0892 27.7541C24.1686 28.1909 24.0892 28.5085 24.0099 28.7865C23.9305 29.0644 23.8114 29.3026 23.6924 29.5409C23.4542 29.9776 23.1764 30.4144 22.8986 30.7717L22.6209 31.1688L22.8193 31.1291C23.2955 31.0497 23.7717 30.9703 24.248 30.8908C24.4861 30.8511 24.7242 30.8511 24.9623 30.8114H25.1607V30.732C25.1607 30.6129 25.1211 30.4938 25.1211 30.3747C25.0814 29.8982 25.0814 29.4217 25.0417 28.985C25.002 28.0718 24.9623 27.1585 24.8829 26.285C24.8432 25.8483 24.7639 25.4115 24.6448 25.0144C24.6051 24.8159 24.5258 24.5777 24.4861 24.4189L22.0652 24.6968L16.5886 25.3321C15.6362 25.4512 14.6837 25.5306 13.8106 25.61C13.5725 25.6497 13.3741 25.6894 13.1756 25.6894C12.9772 25.7291 12.7391 25.7689 12.5407 25.8086L12.2232 25.888C12.1438 25.9277 11.9454 25.9674 11.8263 25.9674C11.5882 26.0071 11.3501 26.0468 11.2707 26.0865C11.1517 26.1262 11.1517 26.1659 11.112 26.2056C11.0723 26.285 11.0326 26.4438 11.0326 26.6027C10.9929 26.96 11.0723 27.3968 11.112 27.8335L11.2311 28.5085L11.3104 28.8659C11.3501 29.0247 11.3501 29.1041 11.3501 29.2232C11.3898 29.6997 11.4295 30.1364 11.5089 30.6129L11.5882 31.1291L11.6676 31.6452C11.7073 31.8041 11.7073 32.0026 11.747 32.1614L12.0644 32.7967Z" fill="url(#paint33_linear)"/>
<path d="M12.1436 40.6187C12.1436 40.6187 12.1435 40.6187 12.1832 40.579C12.342 40.4201 12.7785 40.1422 13.3738 40.3804L13.4135 40.4201C13.4135 40.4996 14.3263 45.9392 14.3263 45.9392C14.3263 45.9392 14.3263 46.8524 14.2469 47.4877C14.1675 48.5995 13.8104 48.2024 13.5326 47.5671C13.5326 47.6465 13.0166 46.0583 13.0166 46.0583C13.0166 46.0583 12.1832 40.6981 12.1436 40.6187Z" fill="url(#paint34_linear)"/>
<path d="M12.8183 40.9363C12.8183 40.9363 12.7786 40.9363 12.8183 40.9363C12.6596 40.7378 12.4611 40.301 12.6199 39.7054C12.6199 39.7054 12.6199 39.6657 12.6596 39.6657C12.7389 39.6657 17.0647 39.0701 17.0647 39.0701C17.0647 39.0701 17.779 39.1098 18.2949 39.2289C19.168 39.3878 18.8902 39.7054 18.3743 39.9436C18.414 39.9833 17.144 40.3407 17.144 40.3407C17.144 40.3407 12.858 40.9363 12.8183 40.9363Z" fill="url(#paint35_linear)"/>
<path d="M18.1362 39.7054C18.1362 39.7054 18.1362 39.6657 18.1759 39.6657C18.3347 39.5069 18.8109 39.3481 19.4062 39.626L19.4459 39.6657C19.4459 39.6657 19.4459 40.0231 19.4856 40.579C19.5252 40.8569 19.5252 41.1348 19.5649 41.4922C19.6046 41.8098 19.684 42.1672 19.7237 42.5245C19.803 42.8819 19.8427 43.2392 19.9221 43.5569C20.0015 43.8745 20.0412 44.1922 20.0808 44.4701C20.1999 44.9863 20.2396 45.3436 20.2396 45.3436C20.2396 45.3436 20.2793 46.2965 20.1999 46.9715C20.1205 48.123 19.7634 47.7259 19.4856 47.0906C19.4856 47.1304 19.3665 46.7333 19.2078 46.3362C19.0887 45.9392 18.9299 45.5421 18.9299 45.5421C18.9299 45.5421 18.8506 45.1848 18.7712 44.6686C18.7315 44.3907 18.6522 44.1127 18.6125 43.7554C18.5728 43.4377 18.4934 43.0804 18.414 42.723C18.3744 42.3657 18.295 42.0084 18.2553 41.651C18.2156 41.2937 18.1759 40.976 18.1759 40.6981C18.1362 40.1025 18.1362 39.7054 18.1362 39.7054Z" fill="url(#paint36_linear)"/>
<path d="M14.0092 49.0363C14.0092 49.0363 13.9695 49.0363 14.0092 49.0363C13.8505 48.8377 13.6521 48.401 13.8108 47.8054C13.8108 47.8054 13.8108 47.7657 13.8505 47.7657C13.8902 47.7657 18.2159 47.1701 18.2159 47.1701C18.2159 47.1701 18.9303 47.2098 19.4462 47.3289C20.3193 47.4877 20.0415 47.8054 19.5256 48.0436C19.5652 48.0833 18.335 48.4407 18.335 48.4407C18.335 48.4407 14.0489 49.0363 14.0092 49.0363Z" fill="url(#paint37_linear)"/>
<path d="M23.3748 46.5745C23.3748 46.5745 23.3748 46.6142 23.3351 46.6142C23.1764 46.773 22.7399 47.051 22.1446 46.773L22.1049 46.7333C22.1049 46.6539 21.2715 40.8172 21.2715 40.8172C21.2715 40.8172 21.2715 39.8643 21.3905 39.1496C21.5096 37.9981 21.8668 38.3952 22.1049 39.0702C22.1049 38.9907 22.5811 40.6981 22.5811 40.6981C22.5811 40.6981 23.3351 46.4951 23.3748 46.5745Z" fill="url(#paint38_linear)"/>
<path d="M21.7876 39.2687C21.7876 39.2687 21.7479 39.2687 21.7876 39.2687C21.6288 39.0702 21.4304 38.6334 21.5891 38.0378C21.5891 38.0378 21.5891 37.9981 21.6288 37.9981C21.6685 37.9981 25.7958 37.4423 25.7958 37.4423C25.7958 37.4423 26.4705 37.482 26.9864 37.6011C27.8198 37.7599 27.542 38.0776 27.0658 38.3158C27.1054 38.3555 25.9149 38.7128 25.9149 38.7128C25.9149 38.7128 21.8272 39.2687 21.7876 39.2687Z" fill="url(#paint39_linear)"/>
<path d="M26.5498 38.276C26.5498 38.276 26.5498 38.276 26.5895 38.2363C26.7482 38.0775 27.1451 37.7201 27.7404 37.879C27.7404 37.879 27.7801 37.9187 27.8197 37.9187C27.8197 37.9187 27.9388 38.3157 28.0579 38.8716C28.0975 39.1495 28.1769 39.4672 28.2166 39.7848C28.2563 40.1025 28.3357 40.4598 28.3754 40.8172C28.415 41.1745 28.4547 41.5319 28.4944 41.8495C28.5341 42.1672 28.5738 42.4848 28.6135 42.723C28.6928 43.2392 28.7722 43.5568 28.7722 43.5568C28.7722 43.5568 28.7722 43.7951 28.7722 44.073C28.7722 44.3907 28.7722 44.748 28.8119 45.1054C28.8913 46.2171 28.4944 45.9392 28.1372 45.3039C28.1372 45.3039 28.0975 45.2245 28.0182 45.1054C27.9388 44.9465 27.8594 44.748 27.7801 44.5495C27.7007 44.351 27.6213 44.1524 27.5816 43.9936C27.542 43.8348 27.5023 43.7157 27.5023 43.7157C27.5023 43.7157 27.5023 43.6363 27.4626 43.4774C27.4229 43.3186 27.3832 43.1201 27.3435 42.8422C27.3038 42.5642 27.2641 42.2863 27.2245 41.9289C27.1848 41.6113 27.1451 41.2539 27.1054 40.8966C27.0657 40.5392 26.9863 40.2216 26.9467 39.9039C26.907 39.5863 26.8276 39.3084 26.7879 39.0304C26.6689 38.5937 26.5498 38.276 26.5498 38.276Z" fill="url(#paint40_linear)"/>
<path d="M22.8588 47.6068C22.7001 47.4083 22.5017 46.9715 22.6604 46.3759C22.6604 46.3759 22.6604 46.3362 22.7001 46.3362C22.7398 46.3362 27.0258 45.7407 27.0258 45.7407C27.0258 45.7407 27.7402 45.7804 28.2561 45.8995C29.1292 46.0583 28.8117 46.3759 28.3354 46.6142C28.3751 46.6539 27.1449 47.0112 27.1449 47.0112C27.1449 47.0112 22.9382 47.5671 22.8588 47.6068Z" fill="url(#paint41_linear)"/>
<path d="M14.247 49.87C14.247 49.9097 14.247 49.9097 14.247 49.87C14.0883 49.6715 13.8899 49.2347 14.0486 48.6391C14.0486 48.6391 14.0486 48.5994 14.0883 48.5994C14.128 48.5994 15.1598 48.4803 16.1916 48.3215C16.7075 48.2421 17.2234 48.2024 17.6203 48.1627C18.0171 48.123 18.2553 48.0833 18.2553 48.0833C18.2553 48.0833 18.9299 48.1627 19.4061 48.2818C20.2395 48.4803 19.9617 48.798 19.4855 48.9965C19.5252 49.0362 18.3346 49.3538 18.3346 49.3538C18.3346 49.3538 18.0965 49.3936 17.6997 49.4333C17.3028 49.473 16.8266 49.5127 16.3107 49.5921C15.2788 49.7509 14.2867 49.87 14.247 49.87Z" fill="url(#paint42_linear)"/>
<path d="M13.5328 49.473C13.5328 49.473 13.5328 49.4333 13.5725 49.4333C13.6916 49.3539 13.8503 49.3142 14.0885 49.3936C14.2075 49.4333 14.3266 49.473 14.4059 49.5127C14.525 49.5524 14.644 49.6318 14.7631 49.6318H14.6837H14.7234C14.7631 49.6318 14.7631 49.6318 14.8028 49.6318C14.8028 49.6318 14.8028 49.6318 14.8028 49.7112C14.8028 49.7906 14.8028 49.9097 14.8028 50.0289C14.8028 50.3068 14.8425 50.7038 14.8822 51.1009C14.9615 51.895 15.0806 52.6891 15.0806 52.6891C15.0806 52.6891 15.0012 53.2053 14.8822 53.6023C14.6837 54.2376 14.3662 54.0391 14.1678 53.6818C14.1281 53.7215 13.8106 52.8082 13.8106 52.8082C13.8106 52.8082 13.6916 52.0141 13.6122 51.22C13.5725 50.823 13.5328 50.4259 13.4932 50.1083C13.4932 49.9494 13.4932 49.8303 13.4932 49.7112C13.5328 49.5921 13.5328 49.473 13.5328 49.473Z" fill="url(#paint43_linear)"/>
<path d="M14.6835 54.2377C14.6438 54.2377 14.6438 54.2377 14.6835 54.2377C14.5248 54.0391 14.2866 53.6024 14.4851 53.0068L14.5248 52.9671C14.6041 52.9671 19.2077 52.3318 19.2077 52.3318C19.2077 52.3318 19.9617 52.3715 20.5173 52.4906C21.4697 52.6494 21.1523 52.9671 20.5967 53.2053C20.676 53.245 19.287 53.6421 19.287 53.6421C19.287 53.6421 14.7232 54.2377 14.6835 54.2377Z" fill="url(#paint44_linear)"/>
<path d="M21.1129 52.5303C21.1129 52.57 21.1129 52.57 21.1129 52.5303C20.9144 52.6495 20.4779 52.848 19.8826 52.7289C19.8826 52.7289 19.8429 52.7289 19.8429 52.6892C19.8429 52.6495 19.3667 49.2348 19.3667 49.2348C19.3667 49.2348 19.4064 48.6789 19.5651 48.2422C19.7636 47.5275 20.081 47.7657 20.2795 48.1627C20.3192 48.123 20.6763 49.1157 20.6763 49.1157C20.6763 49.1157 21.0732 52.4906 21.1129 52.5303Z" fill="url(#paint45_linear)"/>
<path d="M23.97 51.8156C23.7716 51.9347 23.2954 52.0538 22.7398 51.8553C22.7398 51.8553 22.7001 51.8553 22.7001 51.8156C22.7001 51.8156 22.7001 51.6171 22.6604 51.2994C22.6604 51.1406 22.6207 50.9818 22.6207 50.7833C22.581 50.5847 22.581 50.3862 22.5414 50.1877C22.462 49.7906 22.4223 49.3539 22.3826 49.0759C22.3429 48.7583 22.3032 48.5598 22.3032 48.5598C22.3032 48.5598 22.3032 48.4009 22.3429 48.2024C22.3826 48.0039 22.4223 47.7657 22.5414 47.5671C22.7795 46.8921 23.0969 47.1701 23.2557 47.5274C23.2557 47.4877 23.3351 47.726 23.4144 47.9642C23.4541 48.0833 23.4938 48.2024 23.5335 48.2818C23.5732 48.3612 23.5732 48.4407 23.5732 48.4407C23.5732 48.4407 23.6129 48.6392 23.6526 48.9171C23.6922 49.2348 23.7716 49.6318 23.8113 50.0289C23.851 50.2274 23.851 50.4656 23.8907 50.6642C23.9303 50.8627 23.9304 51.0612 23.9304 51.22C23.97 51.5774 23.97 51.8156 23.97 51.8156Z" fill="url(#paint46_linear)"/>
<path d="M23.216 49.0759C23.1763 49.0759 23.1763 49.0759 23.216 49.0759C23.0572 48.9171 22.7397 48.52 22.7397 47.9245C22.7397 47.9245 22.7397 47.8848 22.7397 47.8451C22.7397 47.8451 22.8191 47.8054 22.9382 47.7656C23.0572 47.7259 23.216 47.6465 23.4144 47.6068C23.6128 47.5671 23.8113 47.4877 24.0494 47.4877C24.2875 47.448 24.5256 47.4083 24.7637 47.3686C25.2399 47.3289 25.7162 47.2892 26.0733 47.2495C26.4305 47.2098 26.6686 47.2098 26.6686 47.2098C26.6686 47.2098 26.8274 47.2495 27.0258 47.2495C27.2242 47.2892 27.502 47.3289 27.7005 47.4083C28.4545 47.5671 28.2164 47.8848 27.7799 48.123C27.8195 48.123 27.5417 48.2421 27.2639 48.3215C27.1449 48.3612 26.9861 48.4009 26.8671 48.4406C26.748 48.4803 26.7083 48.4803 26.7083 48.4803C26.7083 48.4803 26.4702 48.4803 26.113 48.52C25.9543 48.52 25.7559 48.5598 25.5178 48.5598C25.3193 48.5995 25.0812 48.5995 24.8431 48.6392C24.605 48.6789 24.4066 48.7186 24.2081 48.7186C24.0097 48.7583 23.8113 48.798 23.6525 48.8377C23.5731 48.8377 23.4938 48.8774 23.4541 48.8774C23.3747 48.9171 23.335 48.9171 23.2953 48.9171C23.2556 49.0759 23.216 49.0759 23.216 49.0759Z" fill="url(#paint47_linear)"/>
<path d="M27.7803 47.7656C27.9787 47.6465 28.4549 47.5274 29.0105 47.6068H29.0502C29.0502 47.6068 29.0502 47.7657 29.0899 48.0039C29.1296 48.123 29.1296 48.2818 29.1693 48.4009C29.209 48.5598 29.2486 48.7186 29.2883 48.8774C29.3677 49.195 29.4868 49.5524 29.5661 49.7906C29.6455 50.0289 29.6852 50.2274 29.6852 50.2274C29.6852 50.2274 29.6852 50.7039 29.6058 51.1009C29.4867 51.6965 29.1296 51.5377 28.8915 51.2994C28.8915 51.3391 28.7724 51.1406 28.6533 50.9818C28.5343 50.7833 28.4152 50.6244 28.4152 50.6244C28.4152 50.6244 28.3756 50.4656 28.2962 50.2274C28.2168 49.9892 28.0977 49.6318 28.0184 49.2745C27.9787 49.1156 27.939 48.9171 27.8993 48.7583C27.8596 48.5995 27.8199 48.4406 27.8199 48.2818C27.8199 48.0039 27.7803 47.8054 27.7803 47.7656Z" fill="url(#paint48_linear)"/>
<path d="M23.6132 53.0464C23.4545 52.8479 23.2561 52.4112 23.4148 51.8156C23.4148 51.8156 23.4148 51.7759 23.4545 51.7759C23.4942 51.7759 27.7803 51.1803 27.7803 51.1803C27.7803 51.1803 28.4946 51.22 29.0105 51.3391C29.8836 51.4979 29.5661 51.8156 29.0899 52.0538C29.1296 52.0935 27.8993 52.4509 27.8993 52.4509C27.8993 52.4509 23.6926 53.0464 23.6132 53.0464Z" fill="url(#paint49_linear)"/>
<path d="M35.519 45.6216C35.519 45.6613 35.519 45.6613 35.4793 45.701C35.3205 46.0186 34.9237 46.4951 34.2887 45.8995C34.2887 45.8995 34.249 45.8201 34.2093 45.8201L34.13 45.3039V45.1848L34.0109 45.1451C33.9712 45.1451 33.8919 45.1054 33.8522 45.1054C33.7331 45.0657 33.6141 45.026 33.5347 44.9863C33.0585 44.7878 32.6219 44.4304 32.3838 43.9539C32.1457 43.4775 32.0663 43.001 32.106 42.5245C32.1457 41.6113 32.5425 40.7378 33.0981 40.0628C33.3759 39.7055 33.7331 39.4275 34.1696 39.1893C34.5665 38.9511 35.0427 38.832 35.519 38.832C35.638 38.832 35.7571 38.832 35.8761 38.832C35.9952 38.832 36.1143 38.8717 36.2333 38.8717C36.3524 38.9114 36.4714 38.9511 36.5905 38.9908C36.7095 39.0305 36.8286 39.0702 36.908 39.1496C37.3445 39.3481 37.7017 39.6658 37.9795 40.0231C38.2573 40.3805 38.4954 40.7775 38.6145 41.254C38.7335 41.7304 38.7732 42.2466 38.6145 42.7231C38.5351 43.001 38.3366 43.279 38.1382 43.4775C37.9398 43.676 37.7414 43.7951 37.662 43.8745C37.5429 43.9539 37.5826 43.9539 37.5429 44.0334C37.5429 44.0731 37.5032 44.1525 37.5429 44.2716C37.5429 44.3113 37.5826 44.3907 37.5826 44.4701L37.6223 44.5892L37.662 44.6686L37.7017 44.6289C38.1779 44.1922 38.4954 43.6363 38.6145 43.001C38.8923 41.7701 38.416 40.3408 37.4636 39.4672C36.9873 39.0305 36.4317 38.7128 35.7968 38.6334C35.1618 38.5143 34.5268 38.6334 33.9315 38.8717C33.6537 38.9908 33.3362 39.1496 33.0981 39.3481C32.86 39.5466 32.6616 39.7849 32.4632 40.0231C32.106 40.5393 31.9473 41.1746 31.9473 41.8099V42.0084C31.9473 42.0481 31.9473 42.0481 31.9473 42.0878V42.2069C31.9473 42.2863 31.9869 42.4054 31.9869 42.4848C31.9869 42.5643 32.0266 42.6834 32.0266 42.7628C32.0663 42.8422 32.0663 42.9216 32.106 43.0407C32.106 43.0407 32.106 43.0804 32.106 43.1201C32.106 43.1598 32.1457 43.2392 32.1457 43.3186C32.1854 43.4775 32.3044 43.7157 32.4235 43.9936C32.5425 44.2716 32.741 44.5495 32.9394 44.8275C33.1378 45.1054 33.4156 45.3436 33.6537 45.5421C34.0903 45.8598 34.4474 46.0583 34.6062 46.1774C34.8046 46.2966 34.8443 46.376 34.7649 46.4157C34.6856 46.4554 34.4871 46.4951 34.2093 46.4554C33.9315 46.4157 33.5744 46.3363 33.2172 46.1377C33.2569 46.1774 33.0585 46.0583 32.741 45.8995C32.4235 45.701 32.0663 45.3833 31.7488 45.026C31.4313 44.6686 31.1535 44.2319 30.9948 43.8745C30.9154 43.7157 30.836 43.5569 30.7964 43.4378C30.7567 43.3187 30.717 43.279 30.717 43.279L30.6376 42.9216L30.5583 42.5642C30.5583 42.4451 30.5186 42.326 30.5186 42.2069C30.5186 42.1672 30.5186 42.1672 30.5186 42.1275V41.8496C30.5186 41.651 30.5186 41.4128 30.5583 41.2143C30.5979 40.7775 30.717 40.3407 30.8757 39.9437C31.0345 39.5466 31.3123 39.1496 31.5901 38.832C32.1854 38.157 32.9394 37.7202 33.7728 37.482C34.1696 37.3629 34.6062 37.2834 35.0427 37.2834C35.4793 37.2834 35.9158 37.3232 36.3524 37.4423C36.7889 37.5614 37.1858 37.7599 37.5429 37.9584C37.9001 38.1967 38.2176 38.4746 38.5351 38.7922C39.0907 39.4275 39.5272 40.1819 39.7256 41.0157C39.8447 41.4128 39.8844 41.8496 39.8844 42.2863C39.8844 42.4848 39.8447 42.7231 39.8447 42.9216C39.805 43.1201 39.7653 43.3584 39.686 43.5569C39.5669 43.9936 39.3685 44.3907 39.1304 44.748C39.0113 44.9466 38.8526 45.1054 38.7335 45.2642L38.4954 45.5024L38.4557 45.5421C38.4557 45.5421 38.4557 45.5422 38.416 45.5819L38.3763 45.6216L38.1779 45.7804C38.0192 45.8995 37.9001 46.0186 37.7414 46.098L37.3048 46.376H37.3445L37.3048 46.4157C37.3048 46.4157 37.3048 46.4157 37.2651 46.4157V46.376L37.1064 46.1377C37.027 45.9789 36.908 45.8201 36.8286 45.6613C36.6302 45.3833 36.4714 44.9466 36.4317 44.7878C36.3524 44.5495 36.3127 44.3113 36.273 44.0334C36.273 43.8745 36.273 43.7157 36.3524 43.5569C36.392 43.3981 36.4714 43.2789 36.5508 43.1598C36.6302 43.001 36.7492 42.8819 36.8683 42.8025C36.9873 42.7231 37.0667 42.6437 37.1461 42.604C37.3048 42.4848 37.3842 42.4451 37.4239 42.3657C37.4636 42.2863 37.5033 42.2863 37.5033 42.1275C37.6223 41.651 37.3842 41.0555 36.9873 40.6187C36.7889 40.4202 36.5508 40.2216 36.3127 40.1422C36.2333 40.1025 36.1936 40.1025 36.1143 40.0628C36.0349 40.0628 35.9952 40.0231 35.9158 40.0231C35.8761 40.0231 35.8365 40.0231 35.8365 40.0231H35.7174C35.638 40.0231 35.5587 40.0231 35.519 40.0231C34.9634 40.0628 34.4475 40.3805 34.0506 40.8569C33.6537 41.3334 33.4156 41.929 33.3759 42.5245C33.3759 42.8025 33.4156 43.0804 33.5347 43.279C33.6537 43.4775 33.8125 43.6363 34.0506 43.7157C34.0903 43.7554 34.1696 43.7554 34.2093 43.7951C34.249 43.7951 34.249 43.8348 34.2887 43.8348L34.4078 43.8745C34.4871 43.9142 34.6062 43.8745 34.6856 43.9142L34.9634 43.9539L35.2412 43.9936H35.3205C35.3205 43.9936 35.3205 44.0334 35.3205 44.0731V44.1922L35.519 45.6216Z" fill="url(#paint50_linear)"/>
<path d="M13.8503 57.7317C13.89 57.7317 13.89 57.7317 13.9297 57.7317C14.0884 57.7714 14.3266 57.9302 14.4059 58.1288C14.4853 58.3273 14.4456 58.6052 14.2075 58.9229C14.2075 58.9229 14.1678 59.0023 14.1281 59.0023C13.771 59.0817 13.4138 59.1611 12.9772 59.2405C12.8582 59.2405 12.7391 59.2405 12.6201 59.2405C12.501 59.2405 12.3423 59.2008 12.2232 59.2008C11.9454 59.1214 11.7073 59.0023 11.5089 58.8435C11.0327 58.4861 10.7945 57.9699 10.6358 57.4935C10.477 56.9773 10.477 56.4611 10.5961 55.945C10.6358 55.8259 10.6755 55.667 10.7152 55.5479C10.7549 55.4685 10.7945 55.4288 10.7945 55.3494C10.8342 55.27 10.8739 55.2303 10.9136 55.1509L11.0326 54.9523C11.0723 54.9126 11.112 54.8332 11.1914 54.7935C11.3104 54.6744 11.3898 54.6347 11.5089 54.5156C11.9454 54.1979 12.382 54.0391 12.8185 53.92C13.6916 53.6818 14.525 53.6421 15.279 53.4832L16.5093 53.245L17.1046 53.1259L17.7395 53.0465L19.0095 52.8877C19.2079 52.848 19.446 52.848 19.6841 52.848C19.9222 52.848 20.1604 52.848 20.4382 52.8877C20.716 52.9274 20.9938 53.0465 21.2319 53.2053C21.47 53.3641 21.7081 53.6024 21.8272 53.8406C21.9859 54.0788 22.0653 54.3171 22.1446 54.5156L22.2637 54.8729C22.3034 54.992 22.3431 55.1112 22.3431 55.27C22.3828 55.5479 22.3827 55.8259 22.3034 56.1435C22.224 56.4611 22.0653 56.7391 21.8668 56.9376C21.47 57.3744 20.9938 57.6126 20.5969 57.7714L20.4382 57.8111L20.3588 57.8508L20.2 57.8905C20.081 57.9302 20.0016 57.9699 19.8826 57.9699L19.2079 58.1288C19.2079 58.1288 19.0889 58.1288 18.8507 58.1685C18.7317 58.1685 18.6126 58.2082 18.4539 58.2082C18.2951 58.2082 18.1364 58.2082 17.9776 58.2479C17.303 58.2876 16.4696 58.2479 15.7552 58.2479C15.4774 58.2479 15.2393 58.2876 15.0409 58.2876C14.8425 58.2876 14.6837 58.2876 14.5647 58.2876C14.3265 58.2876 14.2472 58.2082 14.2869 58.1685C14.3266 58.0891 14.4853 58.0096 14.7234 57.8905C14.8425 57.8111 15.0012 57.7714 15.1599 57.7317C15.3187 57.692 15.4775 57.6126 15.6759 57.5729C15.6362 57.5729 15.8346 57.5332 16.1521 57.4538C16.4696 57.3744 16.9061 57.3347 17.3427 57.2552C17.5808 57.2155 17.7792 57.1758 17.9776 57.1361C18.0967 57.1361 18.1761 57.0964 18.2555 57.0964C18.3348 57.0567 18.4142 57.0567 18.4936 57.017C18.6523 56.9773 18.7714 56.9376 18.8904 56.9376C18.9698 56.8979 19.0095 56.8979 19.0095 56.8979C19.2079 56.8582 19.3666 56.8185 19.5651 56.7391C19.6444 56.6994 19.7635 56.6994 19.8429 56.6597L19.9222 56.62H19.9619L20.0413 56.5803C20.1207 56.5406 20.2 56.5008 20.2794 56.4611C20.5969 56.3023 20.835 56.1435 20.9144 55.9847C20.9937 55.8259 21.0334 55.5876 20.9541 55.3097C20.9144 55.1509 20.835 54.992 20.7953 54.8332C20.716 54.6744 20.6763 54.5553 20.5969 54.4759C20.5175 54.3965 20.4382 54.3171 20.3588 54.2774C20.2397 54.2376 20.1207 54.1979 19.9619 54.1979C19.8032 54.1979 19.6445 54.1979 19.446 54.1979C19.3667 54.1979 19.2476 54.1979 19.1682 54.1979L18.8904 54.2376L17.7395 54.3965C17.3427 54.4362 16.9458 54.5156 16.5489 54.595L15.3584 54.7935C14.525 54.9523 13.7313 55.0318 13.0169 55.2303C12.6598 55.3494 12.382 55.4685 12.1438 55.6273C12.0248 55.7067 11.9454 55.7862 11.9057 55.9053C11.8661 56.0244 11.7867 56.1435 11.7867 56.2626C11.6676 56.8185 11.866 57.5332 12.2629 57.8111C12.3423 57.8905 12.4217 57.8905 12.501 57.9302C12.5407 57.9302 12.5804 57.9302 12.6201 57.9302C12.6994 57.9302 12.7391 57.9302 12.8185 57.9302C13.136 57.8905 13.4932 57.8111 13.8503 57.7317Z" fill="url(#paint51_linear)"/>
<path d="M25.3594 56.0641C25.3991 56.0641 25.3991 56.0641 25.4387 56.1038C25.5975 56.1832 25.7562 56.342 25.8356 56.5802C25.8753 56.7788 25.8356 57.0567 25.4784 57.3346C25.4784 57.3346 25.3991 57.3743 25.3594 57.3743C25.0022 57.3743 24.6054 57.3743 24.2085 57.3346C23.8116 57.2949 23.3751 57.2552 22.9386 57.0567C22.7004 56.9376 22.4623 56.7788 22.2639 56.5405C22.0655 56.3023 21.9464 55.9846 21.9067 55.7067C21.867 55.4288 21.867 55.1508 21.9067 54.9126C21.9067 54.7935 21.9464 54.6744 21.9861 54.5553C22.0258 54.4361 22.0258 54.3567 22.1051 54.1979C22.2242 53.92 22.383 53.6817 22.5417 53.4832C22.7004 53.2847 22.8989 53.1259 23.0973 53.0067C23.4941 52.7685 23.891 52.57 24.2879 52.4112C25.0816 52.1332 25.8753 51.9347 26.6293 51.8156C27.423 51.6965 28.1771 51.5773 28.9708 51.4979C29.3676 51.4582 29.7248 51.4185 30.1216 51.3788C30.5185 51.3391 30.9551 51.2597 31.471 51.2994C31.9869 51.3788 32.5028 51.617 32.86 52.0141C33.0584 52.2126 33.1774 52.4112 33.2965 52.6097C33.4156 52.8479 33.4949 53.0861 33.5743 53.3641C33.614 53.642 33.614 53.92 33.5743 54.1979C33.5346 54.4758 33.4156 54.7141 33.2568 54.9523C33.0981 55.1905 32.9393 55.3891 32.7012 55.5082C32.5028 55.667 32.2647 55.7861 32.1059 55.8655L31.9869 55.9449C31.9472 55.9449 31.9472 55.9847 31.9075 55.9847L31.7488 56.0641C31.6297 56.1038 31.5106 56.1435 31.4313 56.1832L30.9947 56.3023L30.6773 56.3817C30.6773 56.3817 30.6376 56.3817 30.5979 56.3817C30.5185 56.3817 30.4391 56.4214 30.3201 56.4214C30.082 56.4611 29.8042 56.5008 29.447 56.5008C28.7723 56.5405 27.8993 56.5008 27.2246 56.5405C26.669 56.5802 26.2721 56.6199 26.034 56.6199C25.7959 56.6199 25.7165 56.5802 25.7562 56.5008C25.7959 56.4214 25.9547 56.3023 26.1928 56.1832C26.4309 56.0641 26.7484 55.9449 27.1452 55.8258C27.1055 55.8258 27.304 55.7861 27.6215 55.7067C27.9389 55.6273 28.3755 55.5479 28.812 55.4685C29.2486 55.3891 29.6851 55.3096 29.9629 55.2302C30.2804 55.1508 30.4788 55.0714 30.4788 55.0714C30.6773 55.0317 30.836 54.9523 30.9947 54.9126L31.2328 54.7935C31.2725 54.7538 31.471 54.6744 31.6297 54.595C32.1059 54.317 32.3044 53.8803 32.1456 53.4435C32.1059 53.3244 32.0662 53.2053 31.9869 53.0861C31.9472 53.0464 31.9075 52.967 31.8678 52.9273C31.8281 52.8876 31.7885 52.8479 31.7488 52.8082C31.5503 52.6494 31.3519 52.57 31.0741 52.57C30.7963 52.57 30.4391 52.6097 30.0423 52.6494C29.6454 52.6891 29.2883 52.7288 28.8914 52.7685C28.1374 52.8479 27.3833 52.967 26.669 53.0861C25.9547 53.2053 25.2403 53.4038 24.5657 53.642C24.2482 53.7611 23.9307 53.92 23.6926 54.0788C23.4545 54.2376 23.256 54.4361 23.2164 54.6347C23.2164 54.6347 23.2164 54.6347 23.2164 54.6744V54.7141L23.1767 54.8332C23.1767 54.9126 23.137 54.992 23.137 55.0317C23.137 55.1905 23.137 55.3097 23.137 55.3891C23.1767 55.4685 23.1767 55.5479 23.2164 55.6273C23.256 55.667 23.3354 55.7464 23.4545 55.7861C23.6529 55.8655 23.9704 55.9449 24.2879 55.9847C24.6847 56.0641 25.0022 56.0641 25.3594 56.0641Z" fill="url(#paint52_linear)"/>
<defs>
<linearGradient id="paint0_linear" x1="6.30759" y1="5.81506" x2="6.30759" y2="17.8851" gradientUnits="userSpaceOnUse">
<stop stop-color="#0852E3"/>
<stop offset="1" stop-color="#B65DFC"/>
</linearGradient>
<linearGradient id="paint1_linear" x1="15.2555" y1="2.81659" x2="15.2555" y2="6.03526" gradientUnits="userSpaceOnUse">
<stop stop-color="#0852E3"/>
<stop offset="1" stop-color="#B65DFC"/>
</linearGradient>
<linearGradient id="paint2_linear" x1="25.721" y1="3.11047" x2="25.721" y2="15.765" gradientUnits="userSpaceOnUse">
<stop stop-color="#0852E3"/>
<stop offset="1" stop-color="#B65DFC"/>
</linearGradient>
<linearGradient id="paint3_linear" x1="17.2824" y1="15.1685" x2="17.2824" y2="19.4954" gradientUnits="userSpaceOnUse">
<stop stop-color="#0852E3"/>
<stop offset="1" stop-color="#B65DFC"/>
</linearGradient>
<linearGradient id="paint4_linear" x1="10.8117" y1="6.44672" x2="10.8117" y2="11.3955" gradientUnits="userSpaceOnUse">
<stop stop-color="#0852E3"/>
<stop offset="1" stop-color="#B65DFC"/>
</linearGradient>
<linearGradient id="paint5_linear" x1="20.2904" y1="5.12201" x2="20.2904" y2="10.1784" gradientUnits="userSpaceOnUse">
<stop stop-color="#0852E3"/>
<stop offset="1" stop-color="#B65DFC"/>
</linearGradient>
<linearGradient id="paint6_linear" x1="10.4573" y1="1.38971" x2="10.4573" y2="5.12202" gradientUnits="userSpaceOnUse">
<stop stop-color="#0852E3"/>
<stop offset="1" stop-color="#B65DFC"/>
</linearGradient>
<linearGradient id="paint7_linear" x1="18.7352" y1="0" x2="18.7352" y2="3.78455" gradientUnits="userSpaceOnUse">
<stop stop-color="#0852E3"/>
<stop offset="1" stop-color="#B65DFC"/>
</linearGradient>
<linearGradient id="paint8_linear" x1="17.0413" y1="12.3023" x2="17.0413" y2="14.7307" gradientUnits="userSpaceOnUse">
<stop stop-color="#0852E3"/>
<stop offset="1" stop-color="#B65DFC"/>
</linearGradient>
<linearGradient id="paint9_linear" x1="10.8556" y1="14.0408" x2="10.8556" y2="15.4607" gradientUnits="userSpaceOnUse">
<stop stop-color="#0852E3"/>
<stop offset="1" stop-color="#B65DFC"/>
</linearGradient>
<linearGradient id="paint10_linear" x1="23.0973" y1="12.3484" x2="23.0973" y2="14.3021" gradientUnits="userSpaceOnUse">
<stop stop-color="#0852E3"/>
<stop offset="1" stop-color="#B65DFC"/>
</linearGradient>
<linearGradient id="paint11_linear" x1="17.1004" y1="13.6126" x2="17.1004" y2="16.041" gradientUnits="userSpaceOnUse">
<stop stop-color="#0852E3"/>
<stop offset="1" stop-color="#B65DFC"/>
</linearGradient>
<linearGradient id="paint12_linear" x1="1.25311" y1="20.8391" x2="1.25311" y2="31.2466" gradientUnits="userSpaceOnUse">
<stop stop-color="#0852E3"/>
<stop offset="1" stop-color="#B65DFC"/>
</linearGradient>
<linearGradient id="paint13_linear" x1="2.5796" y1="19.813" x2="2.5796" y2="21.6394" gradientUnits="userSpaceOnUse">
<stop stop-color="#0852E3"/>
<stop offset="1" stop-color="#B65DFC"/>
</linearGradient>
<linearGradient id="paint14_linear" x1="4.90266" y1="20.3229" x2="4.90266" y2="30.628" gradientUnits="userSpaceOnUse">
<stop stop-color="#0852E3"/>
<stop offset="1" stop-color="#B65DFC"/>
</linearGradient>
<linearGradient id="paint15_linear" x1="4.32134" y1="30.0173" x2="4.32134" y2="31.6056" gradientUnits="userSpaceOnUse">
<stop stop-color="#0852E3"/>
<stop offset="1" stop-color="#B65DFC"/>
</linearGradient>
<linearGradient id="paint16_linear" x1="31.8503" y1="15.6439" x2="31.8503" y2="17.3116" gradientUnits="userSpaceOnUse">
<stop stop-color="#0852E3"/>
<stop offset="1" stop-color="#B65DFC"/>
</linearGradient>
<linearGradient id="paint17_linear" x1="30.3606" y1="16.5396" x2="30.3606" y2="27.2364" gradientUnits="userSpaceOnUse">
<stop stop-color="#0852E3"/>
<stop offset="1" stop-color="#B65DFC"/>
</linearGradient>
<linearGradient id="paint18_linear" x1="33.4773" y1="26.285" x2="33.4773" y2="27.9526" gradientUnits="userSpaceOnUse">
<stop stop-color="#0852E3"/>
<stop offset="1" stop-color="#B65DFC"/>
</linearGradient>
<linearGradient id="paint19_linear" x1="34.2717" y1="16.1142" x2="34.2717" y2="26.4026" gradientUnits="userSpaceOnUse">
<stop stop-color="#0852E3"/>
<stop offset="1" stop-color="#B65DFC"/>
</linearGradient>
<linearGradient id="paint20_linear" x1="3.98793" y1="31.0894" x2="3.98793" y2="32.7173" gradientUnits="userSpaceOnUse">
<stop stop-color="#0852E3"/>
<stop offset="1" stop-color="#B65DFC"/>
</linearGradient>
<linearGradient id="paint21_linear" x1="33.4576" y1="27.0394" x2="33.4576" y2="28.7071" gradientUnits="userSpaceOnUse">
<stop stop-color="#0852E3"/>
<stop offset="1" stop-color="#B65DFC"/>
</linearGradient>
<linearGradient id="paint22_linear" x1="2.70187" y1="32.0361" x2="2.70187" y2="41.5303" gradientUnits="userSpaceOnUse">
<stop stop-color="#0852E3"/>
<stop offset="1" stop-color="#B65DFC"/>
</linearGradient>
<linearGradient id="paint23_linear" x1="5.51366" y1="40.7378" x2="5.51366" y2="42.4451" gradientUnits="userSpaceOnUse">
<stop stop-color="#0852E3"/>
<stop offset="1" stop-color="#B65DFC"/>
</linearGradient>
<linearGradient id="paint24_linear" x1="5.97597" y1="31.5596" x2="5.97597" y2="40.7759" gradientUnits="userSpaceOnUse">
<stop stop-color="#0852E3"/>
<stop offset="1" stop-color="#B65DFC"/>
</linearGradient>
<linearGradient id="paint25_linear" x1="32.0674" y1="27.9055" x2="32.0674" y2="38.6319" gradientUnits="userSpaceOnUse">
<stop stop-color="#0852E3"/>
<stop offset="1" stop-color="#B65DFC"/>
</linearGradient>
<linearGradient id="paint26_linear" x1="34.9799" y1="37.0849" x2="34.9799" y2="38.7525" gradientUnits="userSpaceOnUse">
<stop stop-color="#0852E3"/>
<stop offset="1" stop-color="#B65DFC"/>
</linearGradient>
<linearGradient id="paint27_linear" x1="35.6013" y1="27.6685" x2="35.6013" y2="37.0436" gradientUnits="userSpaceOnUse">
<stop stop-color="#0852E3"/>
<stop offset="1" stop-color="#B65DFC"/>
</linearGradient>
<linearGradient id="paint28_linear" x1="6.65062" y1="20.8391" x2="6.65062" y2="39.7436" gradientUnits="userSpaceOnUse">
<stop stop-color="#0852E3"/>
<stop offset="1" stop-color="#B65DFC"/>
</linearGradient>
<linearGradient id="paint29_linear" x1="17.0035" y1="17.4902" x2="17.0035" y2="21.6395" gradientUnits="userSpaceOnUse">
<stop stop-color="#0852E3"/>
<stop offset="1" stop-color="#B65DFC"/>
</linearGradient>
<linearGradient id="paint30_linear" x1="30.1247" y1="17.6627" x2="30.1247" y2="37.3215" gradientUnits="userSpaceOnUse">
<stop stop-color="#0852E3"/>
<stop offset="1" stop-color="#B65DFC"/>
</linearGradient>
<linearGradient id="paint31_linear" x1="20.0557" y1="36.6878" x2="20.0557" y2="40.1025" gradientUnits="userSpaceOnUse">
<stop stop-color="#0852E3"/>
<stop offset="1" stop-color="#B65DFC"/>
</linearGradient>
<linearGradient id="paint32_linear" x1="6.29336" y1="41.2242" x2="6.29336" y2="50.6421" gradientUnits="userSpaceOnUse">
<stop stop-color="#0852E3"/>
<stop offset="1" stop-color="#B65DFC"/>
</linearGradient>
<linearGradient id="paint33_linear" x1="18.4089" y1="23.1086" x2="18.4089" y2="33.5536" gradientUnits="userSpaceOnUse">
<stop stop-color="#0852E3"/>
<stop offset="1" stop-color="#B65DFC"/>
</linearGradient>
<linearGradient id="paint34_linear" x1="13.2349" y1="40.2878" x2="13.2349" y2="48.1879" gradientUnits="userSpaceOnUse">
<stop stop-color="#0852E3"/>
<stop offset="1" stop-color="#B65DFC"/>
</linearGradient>
<linearGradient id="paint35_linear" x1="15.7098" y1="39.0701" x2="15.7098" y2="40.9363" gradientUnits="userSpaceOnUse">
<stop stop-color="#0852E3"/>
<stop offset="1" stop-color="#B65DFC"/>
</linearGradient>
<linearGradient id="paint36_linear" x1="19.1929" y1="39.4742" x2="19.1929" y2="47.7051" gradientUnits="userSpaceOnUse">
<stop stop-color="#0852E3"/>
<stop offset="1" stop-color="#B65DFC"/>
</linearGradient>
<linearGradient id="paint37_linear" x1="16.8809" y1="47.1701" x2="16.8809" y2="49.0363" gradientUnits="userSpaceOnUse">
<stop stop-color="#0852E3"/>
<stop offset="1" stop-color="#B65DFC"/>
</linearGradient>
<linearGradient id="paint38_linear" x1="22.3232" y1="38.4199" x2="22.3232" y2="46.8914" gradientUnits="userSpaceOnUse">
<stop stop-color="#0852E3"/>
<stop offset="1" stop-color="#B65DFC"/>
</linearGradient>
<linearGradient id="paint39_linear" x1="24.5254" y1="37.4423" x2="24.5254" y2="39.2687" gradientUnits="userSpaceOnUse">
<stop stop-color="#0852E3"/>
<stop offset="1" stop-color="#B65DFC"/>
</linearGradient>
<linearGradient id="paint40_linear" x1="27.686" y1="37.8392" x2="27.686" y2="45.8601" gradientUnits="userSpaceOnUse">
<stop stop-color="#0852E3"/>
<stop offset="1" stop-color="#B65DFC"/>
</linearGradient>
<linearGradient id="paint41_linear" x1="25.7038" y1="45.7407" x2="25.7038" y2="47.6068" gradientUnits="userSpaceOnUse">
<stop stop-color="#0852E3"/>
<stop offset="1" stop-color="#B65DFC"/>
</linearGradient>
<linearGradient id="paint42_linear" x1="16.965" y1="48.0833" x2="16.965" y2="49.8998" gradientUnits="userSpaceOnUse">
<stop stop-color="#0852E3"/>
<stop offset="1" stop-color="#B65DFC"/>
</linearGradient>
<linearGradient id="paint43_linear" x1="14.2869" y1="49.3503" x2="14.2869" y2="54.0156" gradientUnits="userSpaceOnUse">
<stop stop-color="#0852E3"/>
<stop offset="1" stop-color="#B65DFC"/>
</linearGradient>
<linearGradient id="paint44_linear" x1="17.7678" y1="52.3318" x2="17.7678" y2="54.2377" gradientUnits="userSpaceOnUse">
<stop stop-color="#0852E3"/>
<stop offset="1" stop-color="#B65DFC"/>
</linearGradient>
<linearGradient id="paint45_linear" x1="20.2398" y1="47.7834" x2="20.2398" y2="52.7656" gradientUnits="userSpaceOnUse">
<stop stop-color="#0852E3"/>
<stop offset="1" stop-color="#B65DFC"/>
</linearGradient>
<linearGradient id="paint46_linear" x1="23.1366" y1="47.1552" x2="23.1366" y2="51.9615" gradientUnits="userSpaceOnUse">
<stop stop-color="#0852E3"/>
<stop offset="1" stop-color="#B65DFC"/>
</linearGradient>
<linearGradient id="paint47_linear" x1="25.4642" y1="47.2098" x2="25.4642" y2="49.0759" gradientUnits="userSpaceOnUse">
<stop stop-color="#0852E3"/>
<stop offset="1" stop-color="#B65DFC"/>
</linearGradient>
<linearGradient id="paint48_linear" x1="28.7327" y1="47.5811" x2="28.7327" y2="51.513" gradientUnits="userSpaceOnUse">
<stop stop-color="#0852E3"/>
<stop offset="1" stop-color="#B65DFC"/>
</linearGradient>
<linearGradient id="paint49_linear" x1="26.4582" y1="51.1803" x2="26.4582" y2="53.0464" gradientUnits="userSpaceOnUse">
<stop stop-color="#0852E3"/>
<stop offset="1" stop-color="#B65DFC"/>
</linearGradient>
<linearGradient id="paint50_linear" x1="35.2015" y1="37.2834" x2="35.2015" y2="46.4718" gradientUnits="userSpaceOnUse">
<stop stop-color="#0852E3"/>
<stop offset="1" stop-color="#B65DFC"/>
</linearGradient>
<linearGradient id="paint51_linear" x1="16.4402" y1="52.848" x2="16.4402" y2="59.2405" gradientUnits="userSpaceOnUse">
<stop stop-color="#0852E3"/>
<stop offset="1" stop-color="#B65DFC"/>
</linearGradient>
<linearGradient id="paint52_linear" x1="27.7405" y1="51.2886" x2="27.7405" y2="57.3743" gradientUnits="userSpaceOnUse">
<stop stop-color="#0852E3"/>
<stop offset="1" stop-color="#B65DFC"/>
</linearGradient>
</defs>
</svg>
