<svg width="58" height="51" viewBox="0 0 58 51" fill="none" xmlns="http://www.w3.org/2000/svg">
<path d="M53.0201 25.1234C53.0598 25.1631 53.0598 25.1631 53.0995 25.2425C53.0995 25.322 53.1392 25.4014 53.1392 25.4808C53.1392 25.5205 53.1392 25.5602 53.1392 25.5999C53.1392 25.6396 53.1392 25.6793 53.1392 25.719C53.1392 25.7587 53.1392 25.7984 53.0995 25.8381C53.0995 25.8778 53.0598 25.9175 53.0598 25.9572C53.0201 26.0366 52.9804 26.1161 52.9011 26.1558C52.8217 26.1955 52.7423 26.1955 52.7026 26.1955C52.6233 26.1955 52.5439 26.1955 52.4645 26.1955C52.3852 26.1955 52.3058 26.2352 52.1867 26.2352C52.1074 26.2749 51.9883 26.2749 51.8692 26.2749C51.8692 26.2749 51.7898 26.2749 51.7502 26.2352C51.6311 26.0764 51.4724 25.9572 51.3136 25.7984C51.1549 25.6396 50.9565 25.4808 50.7977 25.3219C50.4406 25.0043 50.0437 24.7264 49.6865 24.369L49.4484 24.1705L49.2103 23.9322L48.7737 23.4955L47.9007 22.6617C47.3054 22.1058 46.7498 21.5896 46.1545 21.0735C45.5592 20.597 44.9242 20.1205 44.2893 19.6838C43.6543 19.247 42.9796 18.85 42.305 18.5323C42.0669 18.4132 41.8287 18.2941 41.6303 18.2147C41.3922 18.1353 41.1541 18.0161 40.916 17.9367C40.916 17.9367 40.7572 17.897 40.5191 17.7779C40.4001 17.7382 40.2413 17.6985 40.0826 17.6191C40.0032 17.5794 39.9238 17.5794 39.8048 17.5397C39.7254 17.5 39.6064 17.5 39.527 17.4603C39.1301 17.3411 38.6539 17.2617 38.1777 17.1823C37.7014 17.1029 37.2252 17.1029 36.749 17.1029C36.3521 17.1029 36.0346 17.1029 35.7568 17.1029C35.479 17.0632 35.2806 17.0632 35.1219 17.0235C34.8044 16.9441 34.725 16.8647 34.844 16.7456C34.8837 16.7059 34.9631 16.6662 35.0822 16.6265C35.1218 16.5867 35.2012 16.5867 35.2806 16.547C35.36 16.5073 35.4394 16.5073 35.5187 16.4676C35.8362 16.3882 36.2728 16.2294 36.749 16.1103C36.7093 16.1103 36.9474 16.0309 37.4236 15.9515C37.6617 15.9118 37.9395 15.872 38.2173 15.872C38.2967 15.872 38.3761 15.872 38.4554 15.872C38.5348 15.872 38.6142 15.872 38.6936 15.872C38.8523 15.872 39.0111 15.872 39.1698 15.872C39.4873 15.872 39.8048 15.9118 40.1223 15.9515C40.4398 15.9912 40.7175 16.0706 40.9557 16.1103C41.1938 16.15 41.3922 16.2294 41.5509 16.2691C41.7097 16.3088 41.7891 16.3088 41.7891 16.3088C42.2653 16.4676 42.7018 16.6661 43.1384 16.8647C43.8924 17.222 44.6464 17.6588 45.3211 18.1353C46.0354 18.6117 46.6704 19.0882 47.3451 19.6441C47.98 20.1602 48.5753 20.7161 49.1706 21.272L50.0437 22.1058L50.4802 22.5426L50.6787 22.7411L50.8771 22.9396C51.2343 23.2572 51.5915 23.5352 51.9883 23.8528C52.1867 24.0117 52.3851 24.1705 52.5439 24.369C52.6629 24.7264 52.8217 24.9249 53.0201 25.1234Z" fill="url(#paint0_linear)"/>
<path d="M20.7158 33.7792C20.7158 33.7395 20.7158 33.7395 20.7555 33.6601C20.8349 33.4616 20.9936 33.2233 21.2318 33.0645C21.4699 32.9057 21.827 32.866 22.3429 33.3028C22.3429 33.3028 22.4223 33.3822 22.4223 33.4219C22.6208 34.4542 22.7001 35.4071 22.8985 36.2807L22.9382 36.5586L23.0176 36.7968C23.0573 36.9556 23.1366 37.1145 23.1763 37.313C23.2557 37.4718 23.2954 37.6703 23.3747 37.8292C23.4541 37.988 23.5335 38.1865 23.6129 38.3453C23.9304 39.0203 24.3272 39.6556 24.7241 40.2512C25.1606 40.8468 25.6368 41.4026 26.1528 41.9982C26.6687 42.5541 27.2243 43.11 27.7799 43.6262C28.1768 43.9835 28.5736 44.3011 28.9705 44.6585C28.9705 44.6585 29.4467 45.0953 30.1213 45.6908C30.796 46.2864 31.6294 46.9614 32.3834 47.5173C32.7009 47.7555 32.9787 47.9143 33.1772 48.0732C33.3756 48.232 33.574 48.3511 33.693 48.4305C33.9312 48.629 33.9709 48.7482 33.8518 48.7879C33.7327 48.8276 33.4947 48.8275 33.1375 48.7481C32.9787 48.7084 32.7803 48.6687 32.5422 48.5893C32.3438 48.5099 32.1056 48.4305 31.8675 48.3511C31.9469 48.4305 30.8357 47.9143 29.8039 47.2791C29.288 46.9614 28.7324 46.604 28.3752 46.3658C27.9783 46.0879 27.7402 45.9291 27.7402 45.9291C27.383 45.6114 27.0259 45.3335 26.6687 44.9761C26.0734 44.4202 25.4781 43.8644 24.9225 43.2688C24.3669 42.6732 23.851 42.0776 23.3351 41.3629C22.8588 40.688 22.4223 39.9335 22.0651 39.1791C21.9858 38.9806 21.9064 38.7821 21.7873 38.6233C21.7079 38.4247 21.6286 38.2262 21.5492 38.0277C21.4698 37.8292 21.3905 37.6306 21.3508 37.3924L21.2714 37.0748L21.192 36.7571C20.9539 35.6454 20.8746 34.6527 20.7158 33.7792Z" fill="url(#paint1_linear)"/>
<path d="M34.6056 47.8746C34.6056 47.9143 34.6056 47.954 34.6056 48.0334C34.566 48.1922 34.5263 48.351 34.4072 48.4702C34.3278 48.629 34.1691 48.7084 34.0104 48.7481C33.8516 48.7481 33.7326 48.7084 33.5341 48.629C33.3754 48.5496 33.177 48.5099 32.9785 48.3907C32.9785 48.3907 32.8991 48.351 32.8991 48.3113C32.8594 48.1525 32.7801 47.954 32.7007 47.7157C32.6213 47.5172 32.5023 47.279 32.4229 47.0011C32.3832 46.9216 32.3833 46.8422 32.3436 46.8025C32.3039 46.7231 32.3038 46.6437 32.3038 46.5643L32.2245 46.1672C32.1848 45.929 32.1054 45.6511 32.1054 45.4128L31.9864 44.4599L31.907 43.5467C31.8673 42.9511 31.8673 42.3555 31.8276 41.7202V41.2438V40.7673C31.8276 40.4497 31.8276 40.132 31.8673 39.8144L31.907 39.3379C31.907 39.2585 31.9467 38.8614 31.9864 38.5835L32.1848 36.8365V36.7174V36.6777V36.6379C32.1848 36.6379 32.1848 36.6379 32.2245 36.6379L32.4229 36.7174L32.8198 36.9159L33.6135 37.2732C33.8913 37.3924 34.1294 37.5512 34.4072 37.6703L34.8437 37.9085L35.2009 38.107C35.32 38.1865 35.439 38.2262 35.5581 38.2659L35.9153 38.4247L35.9946 38.3453C36.0343 38.3056 36.1137 38.2262 36.1534 38.1865C36.3915 37.9879 36.6296 37.7894 36.8677 37.5909L38.2964 36.4791C38.4949 36.3203 38.6933 36.1615 38.8917 35.963C39.0901 35.8041 39.2488 35.6056 39.4473 35.4468C39.4473 35.4468 39.5664 35.3277 39.7648 35.1689C39.9632 35.01 40.2013 34.7321 40.5188 34.4144C40.6776 34.2556 40.8363 34.0968 40.995 33.8983C41.1538 33.6998 41.3125 33.5012 41.4713 33.3424C41.63 33.1439 41.7888 32.9453 41.9475 32.7468C42.1062 32.5483 42.265 32.3498 42.384 32.191C42.5031 32.0321 42.6222 31.8733 42.7015 31.7542C42.7809 31.6351 42.8999 31.516 42.9793 31.3968C43.1381 31.1983 43.2571 31.0395 43.3762 30.9204C43.6143 30.6821 43.6937 30.6822 43.7334 30.8013C43.773 30.9204 43.7333 31.1586 43.6143 31.516C43.5349 31.8733 43.3762 32.3101 43.1381 32.7468C43.1778 32.7071 43.0587 32.9453 42.8603 33.3424C42.6619 33.7394 42.3443 34.2556 42.0268 34.8115C41.8681 35.0894 41.6697 35.3277 41.511 35.5659C41.4316 35.685 41.3522 35.8041 41.2729 35.9232C41.2332 35.963 41.1935 36.0424 41.1538 36.0821C41.1141 36.1218 41.0744 36.2012 41.0347 36.2409C40.876 36.4394 40.7569 36.5982 40.6378 36.7174C40.5585 36.8365 40.4791 36.8762 40.4791 36.8762C40.122 37.2335 39.7648 37.5512 39.3679 37.8291L37.9392 38.9409C37.7011 39.1394 37.5027 39.2982 37.2646 39.4967C37.2249 39.5364 37.1455 39.5761 37.1059 39.6556L36.8677 39.8938L36.5502 40.2114L36.3915 40.3703L36.3518 40.4099H36.3121L36.1931 40.3703C35.9153 40.2908 35.5978 40.2114 35.32 40.132L35.0422 40.0129C34.9628 39.9732 34.8834 39.9335 34.8041 39.9335C34.6453 39.8541 34.4866 39.7747 34.3675 39.735L33.931 39.4967L33.5738 39.2982L33.5341 39.8938C33.4945 40.1717 33.5341 40.4894 33.4944 40.7673V41.2041V41.6408C33.5341 42.1967 33.5341 42.832 33.5738 43.4276L33.6135 44.3011L33.6928 45.1746C33.7325 45.4128 33.7722 45.6114 33.8119 45.8496L33.8913 46.1672C33.8913 46.2466 33.931 46.2467 33.931 46.2864L33.9707 46.4055C34.05 46.604 34.1294 46.8025 34.2088 47.0408C34.4469 47.3584 34.5263 47.5966 34.6056 47.8746Z" fill="url(#paint2_linear)"/>
<path d="M35.2409 16.1896C35.2806 16.2294 35.2806 16.2294 35.2806 16.3088C35.3599 16.7852 35.2012 17.5793 34.0106 17.3808C33.9709 17.3808 33.8916 17.3411 33.8519 17.3411C33.2566 16.5867 32.6216 15.872 31.9867 15.1573C29.288 12.1794 26.2719 9.55885 22.8986 7.53387C21.1921 6.50153 19.4063 5.66772 17.5411 4.95302C15.6758 4.23832 13.7709 3.64275 11.866 3.32511L11.1517 3.20599C10.9136 3.16629 10.6754 3.12658 10.4373 3.12658L8.96896 3.00747L7.50056 2.96775C7.3815 2.96775 7.22276 2.96775 7.1037 2.96775C6.94496 2.96775 6.82591 2.96775 6.66717 2.96775C6.38937 2.96775 6.11157 2.92804 5.87346 2.88833C5.35754 2.84863 4.84163 2.76923 4.28603 2.65011C4.00823 2.6104 3.77011 2.57069 3.49231 2.49128C3.37326 2.45157 3.13516 2.41188 3.0161 2.33247C2.93673 2.29277 2.85736 2.25306 2.81768 2.25306L2.61925 2.17364L2.26207 2.01483C2.30175 2.05454 2.10332 1.8163 2.65892 2.45158C2.77798 2.5707 2.85737 2.68982 2.97643 2.92805L3.0161 3.00747L3.05578 3.04716L3.09546 3.12658L3.17486 3.28539C3.21454 3.32509 3.21452 3.4045 3.25421 3.48391L3.33356 3.68244C3.37325 3.84126 3.41295 3.96038 3.45264 4.07949C3.77012 5.15154 3.88918 6.1839 4.04792 7.17654C4.12729 7.69271 4.20666 8.16915 4.28603 8.64562C4.3654 9.12208 4.48447 9.55884 4.64321 10.0353C4.96069 10.9882 5.2385 11.9809 5.59567 12.8941C5.95285 13.9661 6.38938 14.9985 6.82592 16.0308L7.50056 17.5396L7.65931 17.9367L7.85774 18.2941L8.2546 19.0087C9.3658 20.9543 10.6358 22.7808 12.1041 24.4484C12.4613 24.8851 12.8581 25.2822 13.2153 25.6792C13.6122 26.0763 14.009 26.4734 14.4059 26.8704L15.5965 27.9425C15.9139 28.1807 16.1918 28.4586 16.5092 28.6968C16.5092 28.6968 16.6283 28.816 16.8267 28.9748C17.0251 29.1733 17.3427 29.4115 17.6601 29.6895C18.3348 30.2454 19.2475 30.9601 19.9619 31.5556C20.5969 32.0718 20.954 32.4292 21.1525 32.6674C21.3509 32.9056 21.3509 33.0247 21.2319 33.0644C20.9937 33.1041 20.2397 32.7865 19.3666 32.3498C19.446 32.4292 18.4141 31.8733 17.3426 31.2777C16.8267 30.9601 16.2711 30.6424 15.8743 30.4042C15.4774 30.1263 15.1996 29.9674 15.1996 29.9674C14.8821 29.6895 14.5646 29.4513 14.2471 29.1733L13.7709 28.7366L13.1756 28.1807L12.5803 27.5851L11.9851 26.9895L11.4295 26.3542L10.8738 25.7189L10.358 25.0837C8.92927 23.3763 7.65933 21.5102 6.58782 19.5646L6.19096 18.8102C6.0719 18.572 5.95284 18.294 5.83378 18.0558C5.59566 17.5396 5.35757 17.0235 5.15914 16.547C4.76228 15.5147 4.32574 14.4823 3.96857 13.45C3.6114 12.4971 3.29391 11.5044 2.97643 10.5515C2.81769 10.0353 2.65894 9.47945 2.57957 8.96328C2.46051 8.44711 2.3811 7.93093 2.34142 7.41476C2.18268 6.42212 2.06366 5.42948 1.78586 4.55596C1.74617 4.43685 1.70646 4.31774 1.70646 4.23833L1.66678 4.07949C1.66678 4.03979 1.62711 4.0001 1.58743 3.92069L1.50803 3.76186L1.46835 3.68244V3.64274C1.38898 3.68245 2.02393 3.36481 1.74613 3.52363H1.70646C1.66677 3.56334 1.58739 3.56334 1.5477 3.60305L1.50803 3.64274C1.50803 3.64274 1.50804 3.64275 1.46835 3.60305C1.42867 3.56334 1.42869 3.52362 1.389 3.48391C1.30963 3.4045 1.23022 3.3251 1.15085 3.24569L0.992143 3.08686L0.714314 2.80894C0.555571 2.61041 0.396838 2.45158 0.277781 2.25306C0.158723 2.05453 0.0793617 1.85599 0.039676 1.69717C-9.68948e-06 1.49864 0 1.33983 0 1.181C0.0396857 1.02218 0.0793714 0.823661 0.198429 0.664839C0.238114 0.585428 0.317486 0.506017 0.396857 0.466312C0.476228 0.426607 0.55559 0.347186 0.634962 0.307481C0.793704 0.22807 0.952418 0.108963 1.15085 0.0692578C1.50802 -0.0498584 1.98428 -0.0101482 2.42082 0.148673C2.53988 0.188379 2.65894 0.228079 2.778 0.267785C2.81769 0.30749 2.89702 0.307495 2.9367 0.347201L3.09546 0.426616L3.45264 0.585423L3.61139 0.664839L3.73042 0.744255C3.80979 0.78396 3.84951 0.783965 3.96857 0.82367C4.167 0.863376 4.40509 0.903067 4.64321 0.982477C5.11944 1.06189 5.59566 1.1413 6.07188 1.181C6.31 1.181 6.54813 1.22072 6.78625 1.22072C6.9053 1.22072 7.02437 1.22072 7.14343 1.22072C7.26248 1.22072 7.34182 1.22072 7.50056 1.22072L9.08799 1.26042C9.6039 1.30013 10.1198 1.33983 10.6754 1.37953C10.9532 1.37953 11.1913 1.45895 11.4691 1.45895L12.2628 1.57806L12.6597 1.61778L13.0566 1.69717L13.8106 1.856C14.3265 1.97512 14.8424 2.13394 15.3187 2.25306C15.5568 2.33247 15.8346 2.41187 16.0727 2.49128L16.8267 2.72953L17.5807 2.96775C17.8189 3.04716 18.057 3.16628 18.2951 3.24569C20.2397 4.00009 22.1049 4.91333 23.8908 5.98537C27.4625 8.12947 30.6373 10.9088 33.4153 13.9662C33.9709 14.7206 34.6059 15.4352 35.2409 16.1896Z" fill="url(#paint3_linear)"/>
<path d="M52.7424 25.1631C52.782 25.1631 52.8218 25.1631 52.8614 25.2425C52.9011 25.2822 52.9408 25.3219 52.9805 25.4013L53.0202 25.4411L53.4964 25.8381V25.8778V25.9175C53.4964 25.9572 53.4964 25.9572 53.4964 25.9969C53.4964 26.0366 53.4964 26.0763 53.4964 26.0763C53.4964 26.1557 53.4964 26.1954 53.4567 26.2749C53.4567 26.3146 53.417 26.3543 53.417 26.3543C53.417 26.394 53.3774 26.394 53.3774 26.4337C53.3377 26.5131 53.2583 26.5528 53.2186 26.5925C53.1789 26.6322 53.1392 26.6322 53.1392 26.6322C53.1392 26.6322 53.0995 26.6322 53.0995 26.6719C53.0599 26.6719 53.0202 26.6719 52.9805 26.7116C52.9408 26.7116 52.9408 26.7116 52.9011 26.7116H52.8614C52.8218 26.7116 52.8218 26.6719 52.7821 26.6719L52.7424 26.6322C52.7027 26.5528 52.7027 26.5131 52.663 26.4337C52.6233 26.3543 52.6233 26.2749 52.6233 26.1954C52.6233 26.116 52.6233 26.0366 52.7027 25.9572C52.7027 25.9175 52.7424 25.8778 52.7424 25.8381V25.7984C52.7424 25.7587 52.7424 25.8381 52.7424 25.8381V25.8778C52.7424 25.9175 52.7424 25.9175 52.7424 25.9572C52.7424 25.9969 52.7424 25.9969 52.7424 26.0366V26.0763C52.7424 26.116 52.7424 26.116 52.7821 26.1557H52.7424C52.7027 26.1557 52.663 26.1557 52.6233 26.1954C52.5836 26.1954 52.5836 26.1955 52.5439 26.2352C52.8217 27.2675 52.6233 26.5131 52.663 26.7513C52.6233 26.791 52.5439 26.8307 52.5043 26.8704C52.5043 26.8704 52.3852 26.9101 52.3455 26.9101C51.4724 26.7116 50.5597 26.6322 49.6469 26.6719H49.4485C48.9326 26.6719 48.4166 26.7513 47.9007 26.791C47.9007 26.791 47.742 26.791 47.4642 26.8307C47.1864 26.8307 46.8292 26.8704 46.353 26.9101C45.4799 26.9896 44.329 27.1087 43.3766 27.1881C42.5828 27.2675 42.0272 27.2278 41.7494 27.1881C41.432 27.1484 41.3526 27.069 41.4319 26.9896C41.5907 26.791 42.3448 26.5131 43.2575 26.2352C43.1385 26.2352 44.2894 25.9175 45.4402 25.5999C46.0355 25.441 46.6308 25.2822 47.107 25.2028C47.3451 25.1631 47.5436 25.1234 47.6626 25.0837C47.7817 25.044 47.8611 25.044 47.8611 25.044C48.3373 25.0043 48.8135 24.9646 49.3294 24.9249H49.5675C50.6787 24.8454 51.7502 24.9249 52.7424 25.1631Z" fill="url(#paint4_linear)"/>
<path d="M41.1538 27.8234C41.1538 27.8234 41.1538 27.8234 41.1935 27.7837C41.3522 27.5851 41.7888 27.069 42.4635 26.7513L42.5428 26.7116C42.5428 26.7116 42.5825 26.7513 42.6222 26.8307C42.6619 26.9102 42.781 27.0293 42.8603 27.1484C42.9397 27.2675 43.0587 27.4263 43.1381 27.5851C43.2175 27.744 43.3365 27.9028 43.4159 28.1013C43.6143 28.4586 43.7731 28.7763 43.9318 29.0145C44.0509 29.2528 44.1303 29.4513 44.1303 29.4513C44.1303 29.4513 44.17 29.9675 44.0906 30.4042C44.0112 31.0792 43.535 31.0395 43.2175 30.8013C43.2175 30.841 43.0588 30.6822 42.8603 30.5233C42.7016 30.3645 42.5428 30.2057 42.5428 30.2057C42.5428 30.2057 42.2254 29.5704 41.8682 28.9748C41.7888 28.816 41.7094 28.6969 41.5903 28.5381C41.511 28.419 41.4316 28.2998 41.3522 28.1807C41.2729 27.9425 41.1538 27.8234 41.1538 27.8234Z" fill="url(#paint5_linear)"/>
<path d="M13.4934 10.8294C13.4537 10.8294 13.4536 10.8691 13.414 10.8691C13.2155 10.8691 12.9377 10.8691 12.6599 10.7897C12.5409 10.75 12.3822 10.6309 12.3028 10.4721C12.2234 10.3133 12.144 10.075 12.2234 9.71768C12.2234 9.67798 12.2631 9.59858 12.3028 9.55888C12.779 9.12212 13.4537 8.80447 14.0886 8.76477C14.7633 8.68536 15.3982 8.80445 15.9538 9.04269C16.6285 9.32062 17.1841 9.75739 17.6206 10.3133C18.0571 10.8691 18.3747 11.5839 18.454 12.3383C18.454 12.5368 18.454 12.7353 18.454 12.8941L18.4143 13.1721L18.3746 13.4103C18.335 13.5691 18.2953 13.7279 18.2556 13.9265C18.2159 14.0853 18.1366 14.2441 18.0572 14.4426C17.7794 15.1176 17.2238 15.7529 16.5094 16.0706C16.192 16.2294 15.8348 16.3485 15.4776 16.3882C15.1205 16.4279 14.7633 16.4279 14.4458 16.3882C14.4458 16.3882 14.2474 16.3485 13.8902 16.2691C13.5727 16.15 13.1362 15.9911 12.6599 15.6735C12.2234 15.3559 11.7868 14.9191 11.4694 14.3632C11.1916 13.8073 11.0725 13.0927 11.2313 12.5368C11.3503 12.0603 11.5884 11.7427 11.7472 11.5441C11.9456 11.3456 12.1043 11.1868 12.2631 11.1074C12.5409 10.9486 12.6599 10.9486 12.6599 11.0677C12.6599 11.1471 12.6203 11.2265 12.5806 11.3059C12.5409 11.3456 12.5409 11.425 12.5012 11.4647C12.4615 11.5441 12.4615 11.5838 12.4218 11.6633C12.3028 11.9412 12.1837 12.3382 12.1837 12.6956C12.1837 12.6559 12.1837 12.8544 12.2631 13.1324C12.2631 13.1721 12.3028 13.2118 12.3028 13.2515C12.3028 13.2912 12.3425 13.3309 12.3425 13.3706C12.3822 13.45 12.4219 13.5294 12.5012 13.6088C12.6203 13.7676 12.779 13.9265 12.9774 14.0853C13.3346 14.3632 13.8108 14.522 14.168 14.6014C14.3267 14.6412 14.4855 14.6412 14.6045 14.6412C14.7236 14.6412 14.7633 14.6412 14.7633 14.6412C15.1204 14.6412 15.4379 14.6015 15.6761 14.4823C15.9935 14.3235 16.2316 14.0456 16.43 13.6882C16.4697 13.6485 16.4698 13.6088 16.5094 13.5294L16.5491 13.3706C16.5888 13.2912 16.6285 13.1721 16.6285 13.0529L16.6682 12.8941V12.7353C16.6682 12.6559 16.6682 12.5368 16.6682 12.4574C16.6285 12.1 16.4697 11.703 16.1919 11.3853C15.9141 11.0677 15.557 10.7897 15.1998 10.6309C14.8823 10.5118 14.5252 10.4324 14.2077 10.4721C13.9696 10.5118 13.7315 10.6309 13.4934 10.8294Z" fill="url(#paint6_linear)"/>
<path d="M46.9485 34.2954C46.9088 34.2954 46.9089 34.2954 46.8692 34.2557C46.7104 34.1762 46.4723 34.0174 46.2739 33.7792C46.1945 33.6601 46.1151 33.5013 46.1151 33.3424C46.1151 33.1439 46.1945 32.9057 46.4326 32.6674C46.4326 32.6277 46.5517 32.588 46.5914 32.5483C47.2263 32.4292 47.8613 32.4689 48.4169 32.588C48.9725 32.7072 49.4884 32.9057 49.9646 33.1439C50.9568 33.6601 51.8299 34.2954 52.6236 35.0498C52.8221 35.2483 53.0205 35.4071 53.2189 35.6056C53.3777 35.7645 53.5364 35.963 53.6951 36.1615C53.8539 36.3601 54.0126 36.5586 54.1317 36.7174C54.211 36.7968 54.2904 36.9159 54.3301 36.9953L54.5285 37.2733C54.6476 37.4718 54.727 37.6306 54.846 37.8291C54.9651 37.988 55.0047 38.1468 55.1238 38.3453C55.2032 38.5041 55.2429 38.6629 55.3222 38.8218L55.9969 40.5291L56.1953 41.0056L56.4335 41.5615L56.5128 41.7997L56.4731 41.76L56.4335 41.7203L56.3144 41.6409L56.0763 41.482L55.2032 40.7673L54.7667 40.41L54.6476 40.3306C54.6079 40.2909 54.5682 40.2512 54.5682 40.2512L54.4095 40.1321L53.8539 39.735L53.2983 39.338L53.0205 39.1394L52.8617 39.0203C52.822 38.9806 52.7823 38.9409 52.703 38.9012L51.9093 38.5835L52.1077 38.8218C52.6633 39.4968 53.1395 40.2512 53.6158 40.9659C54.5682 42.435 55.4016 43.9835 56.1159 45.6511L56.5922 46.9217L56.6319 47.0805L56.6716 47.1599V47.1996L56.7112 47.279L56.87 47.8746L57.1875 49.0261L57.3462 49.6216L57.4256 49.8996L57.4653 50.0584L57.3065 50.0187L56.0366 49.8202L54.8857 49.6216L54.6079 49.5819L54.4492 49.5422L54.1317 49.4628C52.4252 49.1452 50.7187 48.6687 49.0519 48.0731C48.2185 47.7555 47.3851 47.4378 46.5914 47.0408C46.3929 46.9614 46.1945 46.8423 45.9961 46.7232L45.9167 46.6835V46.7232L46.3136 48.1128L46.3929 48.4702C46.4326 48.5893 46.4326 48.6687 46.4723 48.7878L46.6311 49.3834L46.9089 50.5746C46.9089 50.6143 46.9485 50.6937 46.9485 50.7334L46.8295 50.654L46.5517 50.4952L46.0358 50.1775L45.0039 49.5819L44.488 49.2643C44.3293 49.1849 44.1308 49.0261 43.9721 48.9069L43.4562 48.5496L43.1784 48.3908L43.0196 48.2717C42.8212 48.1128 42.6625 47.9937 42.4641 47.8349C42.1069 47.557 41.7497 47.2393 41.4322 46.882C40.7972 46.207 40.2019 45.4129 39.8051 44.4997C39.4479 43.5864 39.2892 42.5144 39.4082 41.5218C39.4082 41.4026 39.4479 41.2835 39.4479 41.1644L39.5273 40.807C39.567 40.5688 39.6464 40.3703 39.7257 40.1321C39.8051 39.9335 39.8845 39.6953 39.9638 39.4968L40.1623 39.06C40.2416 38.9012 40.3607 38.7027 40.44 38.5439C40.5194 38.385 40.6385 38.2262 40.7179 38.0674C40.7973 37.9086 40.9163 37.7497 41.0353 37.5909C41.0353 37.5909 41.4719 37.035 42.1466 36.3601C42.8212 35.6851 43.734 34.9704 44.5277 34.4145C45.2024 33.938 45.6389 33.6998 45.9167 33.5807C46.1945 33.4616 46.3136 33.5013 46.3136 33.5807C46.3136 33.8189 45.758 34.4542 45.123 35.1689C45.2024 35.1292 44.4087 35.963 43.6943 36.8762C43.3371 37.313 42.98 37.7895 42.7418 38.1468C42.6228 38.3056 42.5434 38.4644 42.4641 38.5835C42.3847 38.7027 42.345 38.7424 42.345 38.7424C42.1862 38.9806 42.0275 39.2188 41.9085 39.4968L41.7894 39.6953C41.7894 39.735 41.7497 39.7747 41.7497 39.7747L41.6703 39.9335C41.3925 40.5291 41.1941 41.1247 41.1147 41.7203C40.9957 42.435 41.1147 43.1497 41.3925 43.7849C41.6703 44.4599 42.1069 45.0555 42.6625 45.6114C42.9403 45.8893 43.2181 46.1673 43.5356 46.4055C43.6943 46.5246 43.853 46.6437 44.0118 46.7628L44.1308 46.8423L44.2102 47.1202L44.1308 46.8423C44.0912 46.7231 44.0515 46.6437 44.0118 46.5246C43.9721 46.4055 43.9324 46.3261 43.8927 46.207L43.734 45.8893L43.1387 44.5791L42.8609 43.9041L42.5434 43.2688L41.9481 41.9982L41.6306 41.3629L41.5513 41.2041L41.71 41.3232L41.9878 41.5615L43.2181 42.5541L43.8927 43.0703L44.2102 43.3482L44.369 43.4673C44.4086 43.507 44.488 43.5467 44.5277 43.5864L45.7183 44.4599C45.7977 44.5393 45.9167 44.6188 45.9961 44.6585L46.2739 44.8173C46.3533 44.8967 46.4723 44.9364 46.5517 44.9761L46.7501 45.0952C46.9088 45.2144 47.1073 45.2937 47.3057 45.3732C48.0201 45.7305 48.8138 46.0482 49.5678 46.3261C51.1155 46.882 52.7427 47.3187 54.4095 47.6364L54.8857 47.7158H55.0048V47.6761V47.6364V47.5967L54.9254 47.3584L54.4888 46.207C53.8142 44.6982 53.0205 43.2291 52.1474 41.7997C51.6711 41.1247 51.1949 40.41 50.679 39.735L50.4806 39.4571C50.3615 39.2982 50.2028 39.0997 50.0837 38.9409C50.0043 38.8615 49.925 38.7821 49.8853 38.7027L49.7265 38.4644L49.4091 38.0277L48.7741 37.1542L48.4566 36.7174L48.3772 36.5983L48.3375 36.5586V36.5189C48.3375 36.5189 48.3375 36.4792 48.3375 36.5189H48.6154L49.925 36.4792H50.2425C50.3615 36.4792 50.4409 36.4792 50.5599 36.4792L51.2346 36.5586C51.3537 36.5586 51.4727 36.5586 51.5918 36.5983C51.7109 36.638 51.8299 36.638 51.9489 36.6777L52.3458 36.7968H52.3855H52.4252H52.3855L52.2664 36.7571L51.9887 36.6777H51.9489L51.433 36.1615C50.7584 35.5262 49.9646 34.9704 49.1709 34.5336C48.4169 34.4145 47.5835 34.1763 46.9485 34.2954Z" fill="url(#paint7_linear)"/>
<defs>
<linearGradient id="paint0_linear" x1="43.9653" y1="15.872" x2="43.9653" y2="26.2749" gradientUnits="userSpaceOnUse">
<stop stop-color="#0852E3"/>
<stop offset="1" stop-color="#B65DFC"/>
</linearGradient>
<linearGradient id="paint1_linear" x1="27.3163" y1="32.9539" x2="27.3163" y2="48.8139" gradientUnits="userSpaceOnUse">
<stop stop-color="#0852E3"/>
<stop offset="1" stop-color="#B65DFC"/>
</linearGradient>
<linearGradient id="paint2_linear" x1="37.7879" y1="30.723" x2="37.7879" y2="48.7481" gradientUnits="userSpaceOnUse">
<stop stop-color="#0852E3"/>
<stop offset="1" stop-color="#B65DFC"/>
</linearGradient>
<linearGradient id="paint3_linear" x1="17.6489" y1="0" x2="17.6489" y2="33.0678" gradientUnits="userSpaceOnUse">
<stop stop-color="#0852E3"/>
<stop offset="1" stop-color="#B65DFC"/>
</linearGradient>
<linearGradient id="paint4_linear" x1="47.4499" y1="24.8951" x2="47.4499" y2="27.2339" gradientUnits="userSpaceOnUse">
<stop stop-color="#0852E3"/>
<stop offset="1" stop-color="#B65DFC"/>
</linearGradient>
<linearGradient id="paint5_linear" x1="42.647" y1="26.7116" x2="42.647" y2="30.9589" gradientUnits="userSpaceOnUse">
<stop stop-color="#0852E3"/>
<stop offset="1" stop-color="#B65DFC"/>
</linearGradient>
<linearGradient id="paint6_linear" x1="14.8071" y1="8.74026" x2="14.8071" y2="16.418" gradientUnits="userSpaceOnUse">
<stop stop-color="#0852E3"/>
<stop offset="1" stop-color="#B65DFC"/>
</linearGradient>
<linearGradient id="paint7_linear" x1="48.4172" y1="32.4764" x2="48.4172" y2="50.7334" gradientUnits="userSpaceOnUse">
<stop stop-color="#0852E3"/>
<stop offset="1" stop-color="#B65DFC"/>
</linearGradient>
</defs>
</svg>
